<svg width="1303" height="871" xmlns="http://www.w3.org/2000/svg" xmlns:xlink="http://www.w3.org/1999/xlink" xml:space="preserve" overflow="hidden"><defs><clipPath id="clip0"><rect x="549" y="510" width="1303" height="871"/></clipPath></defs><g clip-path="url(#clip0)" transform="translate(-549 -510)"><path d="M653.421 878 1205 663.127 1106.22 609 551 711.442 653.421 878Z" fill="#0070C0" fill-rule="evenodd"/><path d="M815.117 1143 1437 795.368 1202.52 662 652 877.721 815.117 1143Z" fill="#00B050" fill-rule="evenodd"/><path d="M1850 1025.45 1436.22 794 815 1141.18 960.206 1377 1850 1025.45Z" fill="#FF0000" fill-rule="evenodd"/><path d="M833.578 807 806.786 782.417 801.865 754.556 795.303 727.241 786.008 696.102 778.9 676.981 771.792 664.417 768.511 658.407 762.497 662.778 758.669 674.796C758.852 679.349 759.034 683.901 759.216 688.454L759.216 701.565 760.856 715.222 761.403 716.861 754.842 700.472 747.187 671.519 745 648.028 746.093 629.453 751.561 599.407 754.842 585.75 761.95 579.741 773.979 574.824 797.491 557.342 808.426 548.055 824.829 543.139 854.902 534.944 892.63 528.935 923.796 525.657 968.632 519.102 1026.04 512 1056.12 512 1080.72 514.731 1112.43 523.472 1143.6 536.037 1162.74 549.148 1190.62 575.917 1211.4 598.315 1233.82 623.444 1238.19 620.713 1232.18 607.055 1231.63 598.315 1231.63 593.944 1238.74 588.481 1244.21 588.481 1254.05 587.389 1264.44 592.852 1271 610.333 1264.99 619.074 1255.14 627.268 1243.66 634.917 1253.5 643.111 833.578 807Z" fill="#002060" fill-rule="evenodd"/><path d="M1036.66 1017 1454 781.681 1443.62 768.577 1430.51 753.289 1413.03 739.094 1394.46 725.444 1366.05 707.972 1340.93 693.231 1311.43 676.305 1287.39 662.11 1262.26 649.006 1251.89 643 1243.15 647.914 1249.15 653.92 1250.25 655.012 1228.94 663.748 1203.27 669.754 1173.77 677.397 1155.2 680.673 834 807.888 872.238 851.021 921.401 903.981 950.899 932.918 958.546 938.378 952.537 912.171C952.355 905.619 952.173 899.067 951.991 892.516L953.084 875.59 958.546 860.848 964.555 854.297 976.573 848.837 988.59 864.67C994.053 875.59 998.969 884.871 1004.98 897.429L1019.73 935.102 1032.29 981.511 1036.66 1017Z" fill="#00B0F0" fill-rule="evenodd"/><path d="M1037 1015.22 1454.7 782 1461.25 790.739 1466.17 798.932 1468.9 804.394 1470.53 808.763 1470.53 813.679 1471.08 821.325 1479.27 842.627 1482 852.458 1481.45 857.374 1479.27 861.743 1482 866.113 1481.45 870.482 1480.36 878.128 1470.53 899.43 1474.9 909.261 1477.09 916.362 1478.18 925.1 1478.18 930.562 1476.54 936.57 1455.25 968.249 1437.77 966.064 1436.13 969.341 1430.67 973.165 1411.02 984.635 1378.8 997.197 1346.04 1009.21 1300.72 1023.41 1256.5 1035.98 1239.02 1040.35 1226.47 1040.35 1222.64 1040.89 1214.45 1038.71 1189.88 1054 1107.44 1052.36 1078.5 1041.44 1058.84 1033.79 1038.09 1021.78C1038.09 1019.04 1037 1017.95 1037 1015.22Z" fill="#7030A0" fill-rule="evenodd"/><path d="M1447.46 857 1459.27 846.062 1466.78 831.844 1470 822.547 1470 812.703 1466.24 800.125 1458.73 788.641 1449.07 773.328 1432.98 755.828 1429.22 752 1427.07 753.641 1426 755.281 1426 758.016 1428.68 765.125 1432.44 778.797 1436.73 793.563 1438.34 804.5 1439.41 823.094 1439.41 835.125 1439.95 840.594 1440.49 847.156 1447.46 857Z" fill-rule="evenodd"/><path d="M1014 855.364 1031.47 884.273 1048.95 905.545 1066.42 921.909 1075.16 928.454 1087.72 932.818 1104.65 937.182 1136.87 940.454 1150.52 941 1159.8 937.182 1169.09 930.636 1173.45 926.273 1174 924.091 1172.91 917.545 1160.89 909.364 1140.14 895.727 1109.02 879.909 1081.71 867.364 1056.05 856.455 1040.76 852.091 1030.93 851 1014 855.364Z" fill-rule="evenodd"/><path d="M964.452 960.016 957.414 934.313 954.165 911.891 952 891.109 953.624 874.156 957.414 862.672 963.369 855.563 971.49 850.641 976.363 849 985.026 858.844 998.56 880.172 1009.39 908.609 1022.38 941.422 1029.96 970.406 1034.29 996.656 1037 1016.89 1037 1019.62 1019.13 1023.45 1012.1 1024 1001.81 1022.91 989.357 1011.42 980.153 996.656 971.49 979.703 964.452 960.016Z" fill-rule="evenodd"/><path d="M815 788.705 797.629 792 787.314 785.959 775.914 768.385 770.486 753.008 764.514 732.139 760.171 699.188 758 682.713 760.714 667.336 765.057 660.197 768.857 658 777.543 674.475 786.229 695.893 798.714 738.18 804.686 771.68 815 788.705Z" fill-rule="evenodd"/><path d="M833 627.717 835.176 615.679 840.618 600.906 849.324 585.585 857.485 576.283 864.015 573 868.912 573.547 880.338 581.207 891.221 591.604 897.206 597.076 907 656.717 900.471 689 892.853 689 882.515 658.906 871.632 657.264 865.103 657.264 833 627.717Z" fill-rule="evenodd"/><path d="M942.28 713 915 593.478 939.007 585.292 988.111 572.739 1020.85 566.19 1065.59 559.095 1100.5 554.183 1128.33 552.546 1147.97 552.546 1158.88 552 1180.16 574.922 1207.99 606.031 1234.18 637.685 1250 655.695 1215.63 666.61 1153.43 682.437 1079.23 694.99 999.023 706.451 955.92 711.908 942.28 713Z" fill-rule="evenodd"/><path d="M961.5 1379.5 551.5 714.5" stroke="#000000" stroke-width="4.58333" stroke-linejoin="round" stroke-miterlimit="10" fill="none" fill-rule="evenodd"/><path d="M960.5 1378.5 1848.5 1026.5" stroke="#000000" stroke-width="4.58333" stroke-linejoin="round" stroke-miterlimit="10" fill="none" fill-rule="evenodd"/><path d="M1038.5 1022.5C1037.37 1012.78 1036.24 1003.07 1034.16 991.3 1032.08 979.531 1030.09 966.029 1026.02 951.888 1021.95 937.748 1015.26 920.14 1009.75 906.456 1004.23 892.772 999.441 880.364 992.931 869.782 986.422 859.199 976.928 848.069 970.69 842.96 964.451 837.851 959.478 838.033 955.5 839.128" stroke="#000000" stroke-width="4.58333" stroke-linejoin="round" stroke-miterlimit="10" fill="none" fill-rule="evenodd"/><path d="M954.318 911.5C951.363 899.046 948.408 886.591 947.226 877.137 946.044 867.682 946.498 860.409 947.226 854.773 947.953 849.136 950.044 845.864 951.59 843.318 953.136 840.773 954.818 840.136 956.5 839.5" stroke="#000000" stroke-width="4.58333" stroke-linejoin="round" stroke-miterlimit="10" fill="none" fill-rule="evenodd"/><path d="M974.406 986.5C970.44 975.586 966.474 964.671 963.465 954.168 960.457 943.665 958.177 933.253 956.354 923.48 954.53 913.707 952.707 904.3 952.525 895.532 952.342 886.764 953.163 877.631 955.26 870.872 957.357 864.113 961.733 858.542 965.106 854.98 968.48 851.418 973.335 850.642 975.5 849.5" stroke="#000000" stroke-width="4.58333" stroke-linejoin="round" stroke-miterlimit="10" fill="none" fill-rule="evenodd"/><path d="M974.5 986.5C979.788 996.627 985.075 1006.75 990.91 1013.2 996.745 1019.65 1001.94 1023.74 1009.51 1025.19 1017.08 1026.64 1028.88 1022.65 1038.5 1020.29" stroke="#000000" stroke-width="4.58333" stroke-linejoin="round" stroke-miterlimit="10" fill="none" fill-rule="evenodd"/><path d="M1037.5 1021.5C1047.67 1027.3 1057.84 1033.1 1068.28 1037.82 1078.72 1042.53 1093.29 1047.33 1100.16 1049.78 1107.03 1052.23 1108.26 1052.36 1109.5 1052.5" stroke="#000000" stroke-width="4.58333" stroke-linejoin="round" stroke-miterlimit="10" fill="none" fill-rule="evenodd"/><path d="M1108.5 1052.5 1189.5 1055.5" stroke="#000000" stroke-width="4.58333" stroke-linejoin="round" stroke-miterlimit="10" fill="none" fill-rule="evenodd"/><path d="M1189.5 1055.5 1214.5 1039.5" stroke="#000000" stroke-width="4.58333" stroke-linejoin="round" stroke-miterlimit="10" fill="none" fill-rule="evenodd"/><path d="M1213.5 1039.24C1217.38 1040.29 1221.26 1041.34 1226.64 1041.43 1232.02 1041.53 1236.31 1041.8 1245.8 1039.79 1255.29 1037.78 1283.57 1029.39 1283.57 1029.39 1300.45 1024.46 1326.82 1017.06 1347.08 1010.22 1367.33 1003.37 1391.24 994.153 1405.11 988.312 1418.97 982.47 1424.72 978.636 1430.29 975.168 1435.85 971.699 1437.18 969.6 1438.5 967.5" stroke="#000000" stroke-width="4.58333" stroke-linejoin="round" stroke-miterlimit="10" fill="none" fill-rule="evenodd"/><path d="M1438.5 967.5C1443.63 967.833 1450.37 968.167 1455.5 968.5" stroke="#000000" stroke-width="4.58333" stroke-linejoin="round" stroke-miterlimit="10" fill="none" fill-rule="evenodd"/><path d="M1455.5 968.5C1462.84 958.797 1470.18 949.093 1474.01 942.927 1477.85 936.76 1478.17 934.13 1478.5 931.5" stroke="#000000" stroke-width="4.58333" stroke-linejoin="round" stroke-miterlimit="10" fill="none" fill-rule="evenodd"/><path d="M1478.11 931.5C1478.84 927.738 1478.48 922.889 1477.56 917.904 1476.64 912.918 1474.07 906.709 1471.5 900.5" stroke="#000000" stroke-width="4.58333" stroke-linejoin="round" stroke-miterlimit="10" fill="none" fill-rule="evenodd"/><path d="M807.5 782.5C810.642 784.317 813.784 786.134 831.543 804.851 849.302 823.567 892.561 872.357 914.054 894.799 935.546 917.24 948.023 928.37 960.5 939.5" stroke="#000000" stroke-width="4.58333" stroke-linejoin="round" stroke-miterlimit="10" fill="none" fill-rule="evenodd"/><path d="M807.5 782.5C805.346 770.582 803.192 758.665 799.962 744.837 796.731 731.01 792.244 712.269 788.115 699.533 783.987 686.797 778.872 675.79 775.192 668.421 771.513 661.052 768.821 658.141 766.039 655.321 763.257 652.501 760.205 651.955 758.5 651.5" stroke="#000000" stroke-width="4.58333" stroke-linejoin="round" stroke-miterlimit="10" fill="none" fill-rule="evenodd"/><path d="M760.5 699.5C757.47 689.039 756.334 678.578 755.387 671.421 754.441 664.264 754.252 660.043 754.819 656.556 755.387 653.069 757.092 651.784 758.796 650.5" stroke="#000000" stroke-width="4.58333" stroke-linejoin="round" stroke-miterlimit="10" fill="none" fill-rule="evenodd"/><path d="M815.5 789.648C809.531 791.294 803.833 792.941 799.221 792.392 794.609 791.844 791.715 790.38 787.826 786.354 783.937 782.328 779.234 775.283 775.888 768.239 772.542 761.194 770.371 755.156 767.748 744.085 765.126 733.015 761.418 712.521 760.152 701.816 758.886 691.111 759.79 685.622 760.152 679.858 760.514 674.094 761.237 670.435 762.322 667.233 763.408 664.03 766.663 660.645 766.663 660.645 767.658 659.364 767.975 659.456 768.291 659.547" stroke="#000000" stroke-width="4.58333" stroke-linejoin="round" stroke-miterlimit="10" fill="none" fill-rule="evenodd"/><path d="M762.439 718.5C758.236 707.727 754.034 696.954 751.292 686.864 748.55 676.773 746.869 666.227 745.984 657.954 745.1 649.682 745.63 642.591 745.984 637.227 746.338 631.864 747.4 629.863 748.107 625.773 748.815 621.682 749.523 616.864 750.231 612.682 750.938 608.5 751.292 605.046 752.354 600.682 753.415 596.318 754.742 589.863 756.6 586.5 758.458 583.136 760.979 581.818 763.5 580.5" stroke="#000000" stroke-width="4.58333" stroke-linejoin="round" stroke-miterlimit="10" fill="none" fill-rule="evenodd"/><path d="M763.5 580.5C767.893 578.936 772.286 577.371 778.717 573.323 785.148 569.274 795.384 560.717 802.087 556.208 808.79 551.7 810.42 549.583 818.935 546.271 827.449 542.958 841.67 539.002 853.174 536.333 864.677 533.665 877.902 531.733 887.956 530.261 898.011 528.788 905.755 528.144 913.5 527.5" stroke="#000000" stroke-width="4.58333" stroke-linejoin="round" stroke-miterlimit="10" fill="none" fill-rule="evenodd"/><path d="M832.54 625.5C826.635 619.439 820.731 613.378 816.734 608.132 812.737 602.885 810.013 597.91 808.559 594.02 807.106 590.13 807.378 587.145 808.014 584.793 808.65 582.441 809.013 582.35 812.374 579.908 815.735 577.465 823.002 574.209 828.18 570.138 833.357 566.067 838.444 559.554 843.44 555.483 848.436 551.413 851.706 548.699 858.155 545.714 864.604 542.728 872.598 540.557 882.135 537.572 891.673 534.587 900.303 530.878 915.381 527.802 930.46 524.727 954.259 521.47 972.607 519.118 990.956 516.766 1009.94 514.685 1025.47 513.69 1041.01 512.695 1052.63 511.881 1065.8 513.148 1078.98 514.414 1091.74 517.852 1104.5 521.289" stroke="#000000" stroke-width="4.58333" stroke-linejoin="round" stroke-miterlimit="10" fill="none" fill-rule="evenodd"/><path d="M1104.5 521.5C1112.64 524.381 1120.77 527.262 1128.5 530.542 1136.23 533.823 1145.95 538.433 1150.86 541.181 1155.77 543.929 1157.41 544.948 1158.5 546.5" stroke="#000000" stroke-width="4.58333" stroke-linejoin="round" stroke-miterlimit="10" fill="none" fill-rule="evenodd"/><path d="M897.5 598.5C899.543 596.026 901.587 593.552 906.218 590.943 910.85 588.334 910.668 586.715 925.289 582.846 939.91 578.978 971.877 572.14 993.945 567.732 1016.01 563.324 1036.26 559.455 1057.7 556.396 1079.13 553.338 1105.74 550.638 1122.54 549.379 1139.34 548.12 1148.92 548.479 1158.5 548.839" stroke="#000000" stroke-width="4.58333" stroke-linejoin="round" stroke-miterlimit="10" fill="none" fill-rule="evenodd"/><path d="M908.5 655.5C905.103 634.583 901.707 613.665 899.261 603.342 896.815 593.019 897.359 597.366 893.826 593.563 890.294 589.76 882.141 583.602 878.065 580.524 873.989 577.445 872.268 575.815 869.37 575.09 866.471 574.366 864.025 573.913 860.674 576.177 857.323 578.441 852.884 583.24 849.261 588.673 845.638 594.106 841.471 601.803 838.935 608.776 836.399 615.748 834.949 621.77 833.5 627.791" stroke="#000000" stroke-width="4.58333" stroke-linejoin="round" stroke-miterlimit="10" fill="none" fill-rule="evenodd"/><path d="M865.5 657.5 833.5 627.5" stroke="#000000" stroke-width="4.58333" stroke-linejoin="round" stroke-miterlimit="10" fill="none" fill-rule="evenodd"/><path d="M829.5 683.5C830.771 678.3 832.041 673.1 834.946 669.695 837.85 666.289 841.48 664.909 846.926 663.068 852.371 661.227 861.992 659.203 867.619 658.65 873.246 658.098 877.875 659.203 880.688 659.755 883.502 660.307 884.001 661.135 884.5 661.964" stroke="#000000" stroke-width="4.58333" stroke-linejoin="round" stroke-miterlimit="10" fill="none" fill-rule="evenodd"/><path d="M892.5 688.5 884.5 662.5" stroke="#000000" stroke-width="4.58333" stroke-linejoin="round" stroke-miterlimit="10" fill="none" fill-rule="evenodd"/><path d="M892.5 688.5 902.328 688.5" stroke="#000000" stroke-width="4.58333" stroke-linejoin="round" stroke-miterlimit="10" fill="none" fill-rule="evenodd"/><path d="M901.5 690.5C902.712 682.662 905 670.995 905.808 665.891 906.616 660.787 908.096 657.87 908.5 655.5" stroke="#000000" stroke-width="4.58333" stroke-linejoin="round" stroke-miterlimit="10" fill="none" fill-rule="evenodd"/><path d="M914.5 593.5C931.334 588.7 949.994 583.002 971.984 577.888 993.973 572.773 1022.17 566.671 1046.44 562.813 1070.71 558.955 1098.26 556.263 1117.61 554.737 1136.95 553.212 1149.73 553.436 1162.5 553.66" stroke="#000000" stroke-width="4.58333" stroke-linejoin="round" stroke-miterlimit="10" fill="none" fill-rule="evenodd"/><path d="M1250.5 655.5 1209.05 607.242C1197.14 593.441 1186.95 581.468 1179.05 572.694 1171.14 563.919 1165.27 558.161 1160.5 553.5" stroke="#000000" stroke-width="4.58333" stroke-linejoin="round" stroke-miterlimit="10" fill="none" fill-rule="evenodd"/><path d="M943.5 714.5C937.415 689 931.33 663.5 927.029 645.227 922.729 626.954 919.617 613.318 917.696 604.864 915.774 596.409 915.637 595.454 915.5 594.5" stroke="#000000" stroke-width="4.58333" stroke-linejoin="round" stroke-miterlimit="10" fill="none" fill-rule="evenodd"/><path d="M942.5 714.5 1046.29 700.843C1078.34 696.108 1108.2 691.283 1134.78 686.093 1161.37 680.903 1186.68 674.803 1205.8 669.704 1224.92 664.605 1237.21 660.053 1249.5 655.5" stroke="#000000" stroke-width="4.58333" stroke-linejoin="round" stroke-miterlimit="10" fill="none" fill-rule="evenodd"/><path d="M1270.5 611.5C1269.32 607.646 1268.15 603.793 1266.7 600.619 1265.25 597.445 1264.16 594.453 1261.81 592.458 1259.46 590.463 1256.11 589.103 1252.58 588.65 1249.05 588.197 1243.98 588.831 1240.63 589.738 1237.28 590.645 1233.93 592.73 1232.48 594.09 1231.04 595.45 1231.49 596.675 1231.94 597.899" stroke="#000000" stroke-width="4.58333" stroke-linejoin="round" stroke-miterlimit="10" fill="none" fill-rule="evenodd"/><path d="M1237.5 621.5C1235.55 616.567 1233.59 611.633 1232.59 607.633 1231.59 603.633 1231.55 600.567 1231.5 597.5" stroke="#000000" stroke-width="4.58333" stroke-linejoin="round" stroke-miterlimit="10" fill="none" fill-rule="evenodd"/><path d="M0 0 3.27582 0.54603" stroke="#000000" stroke-width="4.58333" stroke-linejoin="round" stroke-miterlimit="10" fill="none" fill-rule="evenodd" transform="matrix(-1 0 0 1 1237.78 621.5)"/><path d="M1245.5 634.5C1251.19 630.62 1256.89 626.74 1260.5 623.842 1264.11 620.943 1265.5 619.167 1267.17 617.11 1268.83 615.053 1269.67 613.277 1270.5 611.5" stroke="#000000" stroke-width="4.58333" stroke-linejoin="round" stroke-miterlimit="10" fill="none" fill-rule="evenodd"/><path d="M1471.14 823.5C1471.82 819.895 1471.59 814.464 1470.04 809.262 1468.49 804.059 1468.49 801.595 1461.84 792.286 1455.19 782.976 1442.06 764.996 1430.13 753.405 1418.19 741.813 1406.34 733.599 1390.21 722.738 1374.08 711.877 1357.13 702.111 1333.35 688.238 1309.56 674.365 1278.53 656.932 1247.5 639.5" stroke="#000000" stroke-width="4.58333" stroke-linejoin="round" stroke-miterlimit="10" fill="none" fill-rule="evenodd"/><path d="M1447.5 858.5C1450.28 856.464 1453.06 854.428 1456.39 850.357 1459.72 846.286 1465.09 838.776 1467.5 834.072 1469.91 829.367 1472.04 824.119 1472.5 820.5" stroke="#000000" stroke-width="4.58333" stroke-linejoin="round" stroke-miterlimit="10" fill="none" fill-rule="evenodd"/><path d="M1448.5 857.5C1444.83 853.535 1442.08 848.659 1440.8 843.281 1439.52 837.904 1441.08 831.068 1440.8 825.235 1440.53 819.401 1440.07 815.026 1439.15 808.281 1438.23 801.536 1436.95 791.875 1435.3 784.766 1433.65 777.656 1430.72 770.365 1429.25 765.625 1427.78 760.885 1426.5 758.515 1426.5 756.328 1426.5 754.14 1427.88 753.32 1429.25 752.5" stroke="#000000" stroke-width="4.58333" stroke-linejoin="round" stroke-miterlimit="10" fill="none" fill-rule="evenodd"/><path d="M1015.5 857.5C1019.97 865.232 1024.45 872.964 1030.29 881.108 1036.14 889.252 1044.72 899.683 1050.57 906.363 1056.41 913.043 1060.79 917.252 1065.36 921.186 1069.92 925.121 1073.03 927.592 1077.96 929.971 1082.89 932.35 1088.28 933.905 1094.95 935.461 1101.61 937.016 1109.46 938.297 1117.96 939.304 1126.45 940.311 1139.33 941.5 1145.9 941.5 1152.47 941.5 1153.39 941.043 1157.41 939.304 1161.42 937.565 1167.18 933.539 1170.01 931.069 1172.84 928.598 1173.93 926.676 1174.39 924.48 1174.85 922.284 1173.8 920.088 1172.75 917.892" stroke="#000000" stroke-width="4.58333" stroke-linejoin="round" stroke-miterlimit="10" fill="none" fill-rule="evenodd"/><path d="M1171.5 918.5C1169.64 916.566 1167.78 914.632 1161.17 910.211 1154.55 905.79 1144.31 898.79 1131.8 891.974 1119.29 885.159 1099.98 875.58 1086.11 869.317 1072.25 863.054 1056.93 857.252 1048.59 854.396 1040.25 851.541 1039.52 852.646 1036.08 852.186 1032.63 851.726 1030.82 851.265 1027.92 851.634 1025.02 852.002 1018.68 854.396 1018.68 854.396 1017.04 854.949 1016.77 855.778 1016.5 856.607" stroke="#000000" stroke-width="4.58333" stroke-linejoin="round" stroke-miterlimit="10" fill="none" fill-rule="evenodd"/><path d="M1471.5 898.5C1474.04 893.396 1476.57 888.291 1478.39 883.992 1480.21 879.694 1481.93 875.933 1482.41 872.709 1482.89 869.485 1481.26 864.649 1481.26 864.649 1480.88 862.948 1480.5 862.724 1480.11 862.5" stroke="#000000" stroke-width="4.58333" stroke-linejoin="round" stroke-miterlimit="10" fill="none" fill-rule="evenodd"/><path d="M1473.5 825.5C1476.28 834.231 1479.06 842.962 1480.38 848.067 1481.7 853.171 1481.53 853.888 1481.44 856.127 1481.35 858.365 1480.6 859.933 1479.85 861.5" stroke="#000000" stroke-width="4.58333" stroke-linejoin="round" stroke-miterlimit="10" fill="none" fill-rule="evenodd"/><path d="M918.5 710.5 908.5 655.5" stroke="#000000" stroke-width="4.58333" stroke-linejoin="round" stroke-miterlimit="10" fill="none" fill-rule="evenodd"/><path d="M910.5 701.5 867.956 698.773C857.047 697.864 850.683 697.136 845.047 696.046 839.411 694.955 836.683 693.864 834.138 692.227 831.593 690.591 830.411 687.682 829.774 686.227 829.138 684.773 829.729 684.136 830.32 683.5" stroke="#000000" stroke-width="4.58333" stroke-linejoin="round" stroke-miterlimit="10" fill="none" fill-rule="evenodd"/><path d="M915.96 709.69 910.5 701.5" stroke="#000000" stroke-width="4.58333" stroke-linejoin="round" stroke-miterlimit="10" fill="none" fill-rule="evenodd"/><path d="M1249.5 640.5C1238.05 627.465 1226.6 614.431 1215.16 602.083 1203.71 589.734 1189.53 575.19 1180.81 566.409 1172.09 557.628 1166.37 552.689 1162.82 549.396 1159.28 546.103 1159.42 546.378 1159.55 546.652" stroke="#000000" stroke-width="4.58333" stroke-linejoin="round" stroke-miterlimit="10" fill="none" fill-rule="evenodd"/><path d="M551.5 712.5 748.5 676.5" stroke="#000000" stroke-width="4.58333" stroke-linejoin="round" stroke-miterlimit="10" fill="none" fill-rule="evenodd"/><path d="M1850.5 1025.5 1472.5 815.5" stroke="#000000" stroke-width="4.58333" stroke-linejoin="round" stroke-miterlimit="10" fill="none" fill-rule="evenodd"/></g></svg>