<svg width="3325" height="1813" xmlns="http://www.w3.org/2000/svg" xmlns:xlink="http://www.w3.org/1999/xlink" xml:space="preserve" overflow="hidden"><defs><clipPath id="clip0"><rect x="549" y="343" width="3325" height="1813"/></clipPath></defs><g clip-path="url(#clip0)" transform="translate(-549 -343)"><path d="M653.421 711 1205 496.127 1106.22 442 551 544.442 653.421 711Z" fill="#0070C0" fill-rule="evenodd"/><path d="M815.117 975 1437 628.091 1202.52 495 652 710.273 815.117 975Z" fill="#00B050" fill-rule="evenodd"/><path d="M1850 858.453 1436.22 627 815 974.18 960.206 1210 1850 858.453Z" fill="#FF0000" fill-rule="evenodd"/><path d="M833.578 640 806.786 615.417 801.865 587.556 795.303 560.241 786.008 529.102 778.9 509.981 771.792 497.417 768.511 491.408 762.497 495.778 758.669 507.796C758.852 512.349 759.034 516.901 759.216 521.454L759.216 534.565 760.856 548.222 761.403 549.861 754.842 533.472 747.187 504.519 745 481.028 746.093 462.454 751.561 432.408 754.842 418.75 761.95 412.741 773.979 407.824 797.491 390.343 808.426 381.056 824.829 376.139 854.902 367.944 892.63 361.935 923.796 358.657 968.632 352.102 1026.04 345 1056.12 345 1080.72 347.732 1112.43 356.472 1143.6 369.037 1162.74 382.148 1190.62 408.917 1211.4 431.315 1233.82 456.445 1238.19 453.713 1232.18 440.056 1231.63 431.315 1231.63 426.944 1238.74 421.482 1244.21 421.482 1254.05 420.389 1264.44 425.852 1271 443.333 1264.99 452.074 1255.14 460.268 1243.66 467.917 1253.5 476.111 833.578 640Z" fill="#002060" fill-rule="evenodd"/><path d="M1036.66 849 1454 613.68 1443.62 600.577 1430.51 585.289 1413.03 571.093 1394.46 557.444 1366.05 539.972 1340.93 525.231 1311.43 508.305 1287.39 494.11 1262.26 481.006 1251.89 475 1243.15 479.914 1249.15 485.92 1250.25 487.012 1228.94 495.748 1203.27 501.754 1173.77 509.397 1155.2 512.673 834 639.888 872.238 683.021 921.401 735.981 950.899 764.918 958.546 770.378 952.537 744.171C952.355 737.619 952.173 731.067 951.991 724.515L953.084 707.59 958.546 692.848 964.555 686.296 976.573 680.837 988.59 696.67C994.053 707.59 998.969 716.871 1004.98 729.429L1019.73 767.102 1032.29 813.511 1036.66 849Z" fill="#00B0F0" fill-rule="evenodd"/><path d="M1037 848.221 1454.7 615 1461.25 623.739 1466.17 631.932 1468.9 637.394 1470.53 641.763 1470.53 646.679 1471.08 654.325 1479.27 675.626 1482 685.458 1481.45 690.373 1479.27 694.743 1482 699.112 1481.45 703.482 1480.36 711.128 1470.53 732.43 1474.9 742.261 1477.09 749.361 1478.18 758.1 1478.18 763.562 1476.54 769.57 1455.25 801.249 1437.77 799.064 1436.13 802.341 1430.67 806.165 1411.02 817.634 1378.8 830.197 1346.04 842.213 1300.72 856.414 1256.5 868.976 1239.02 873.345 1226.47 873.345 1222.64 873.891 1214.45 871.707 1189.88 887 1107.44 885.361 1078.5 874.438 1058.84 866.791 1038.09 854.775C1038.09 852.044 1037 850.952 1037 848.221Z" fill="#7030A0" fill-rule="evenodd"/><path d="M1447.46 689 1459.27 678.167 1466.78 664.083 1470 654.875 1470 645.125 1466.24 632.667 1458.73 621.292 1449.07 606.125 1432.98 588.792 1429.22 585 1427.07 586.625 1426 588.25 1426 590.958 1428.68 598 1432.44 611.542 1436.73 626.167 1438.34 637 1439.41 655.417 1439.41 667.333 1439.95 672.75 1440.49 679.25 1447.46 689Z" fill-rule="evenodd"/><path d="M1014 688.364 1031.47 717.273 1048.95 738.546 1066.42 754.909 1075.16 761.455 1087.72 765.818 1104.65 770.182 1136.87 773.455 1150.52 774 1159.8 770.182 1169.09 763.636 1173.45 759.273 1174 757.091 1172.91 750.545 1160.89 742.364 1140.14 728.727 1109.02 712.909 1081.71 700.364 1056.05 689.455 1040.76 685.091 1030.93 684 1014 688.364Z" fill-rule="evenodd"/><path d="M964.452 793.016 957.414 767.312 954.165 744.891 952 724.109 953.624 707.156 957.414 695.672 963.369 688.562 971.49 683.641 976.363 682 985.026 691.844 998.56 713.172 1009.39 741.609 1022.38 774.422 1029.96 803.406 1034.29 829.656 1037 849.891 1037 852.625 1019.13 856.453 1012.1 857 1001.81 855.906 989.357 844.422 980.153 829.656 971.49 812.703 964.452 793.016Z" fill-rule="evenodd"/><path d="M815 620.729 797.629 624 787.314 618.004 775.914 600.561 770.486 585.299 764.514 564.586 760.171 531.881 758 515.529 760.714 500.266 765.057 493.18 768.857 491 777.543 507.352 786.229 528.61 798.714 570.582 804.686 603.832 815 620.729Z" fill-rule="evenodd"/><path d="M833 460.717 835.176 448.679 840.618 433.906 849.324 418.585 857.485 409.283 864.015 406 868.912 406.547 880.338 414.207 891.221 424.604 897.206 430.075 907 489.717 900.471 522 892.853 522 882.515 491.906 871.632 490.264 865.103 490.264 833 460.717Z" fill-rule="evenodd"/><path d="M942.28 546 915 426.478 939.007 418.291 988.111 405.739 1020.85 399.19 1065.59 392.095 1100.5 387.183 1128.33 385.546 1147.97 385.546 1158.88 385 1180.16 407.922 1207.99 439.031 1234.18 470.685 1250 488.695 1215.63 499.61 1153.43 515.437 1079.23 527.99 999.023 539.451 955.92 544.908 942.28 546Z" fill-rule="evenodd"/><path d="M961.5 1212.5 551.5 547.5" stroke="#000000" stroke-width="4.58333" stroke-linejoin="round" stroke-miterlimit="10" fill="none" fill-rule="evenodd"/><path d="M960.5 1211.5 1848.5 859.5" stroke="#000000" stroke-width="4.58333" stroke-linejoin="round" stroke-miterlimit="10" fill="none" fill-rule="evenodd"/><path d="M1038.5 855.5C1037.37 845.784 1036.24 836.068 1034.16 824.3 1032.08 812.531 1030.09 799.029 1026.02 784.888 1021.95 770.748 1015.26 753.14 1009.75 739.456 1004.23 725.771 999.441 713.364 992.931 702.781 986.422 692.199 976.928 681.069 970.69 675.96 964.451 670.851 959.478 671.033 955.5 672.128" stroke="#000000" stroke-width="4.58333" stroke-linejoin="round" stroke-miterlimit="10" fill="none" fill-rule="evenodd"/><path d="M954.318 744.5C951.363 732.045 948.408 719.591 947.226 710.137 946.044 700.682 946.498 693.409 947.226 687.773 947.953 682.136 950.044 678.863 951.59 676.318 953.136 673.773 954.818 673.136 956.5 672.5" stroke="#000000" stroke-width="4.58333" stroke-linejoin="round" stroke-miterlimit="10" fill="none" fill-rule="evenodd"/><path d="M974.406 819.5C970.44 808.586 966.474 797.671 963.465 787.168 960.457 776.664 958.177 766.252 956.354 756.48 954.53 746.707 952.707 737.3 952.525 728.532 952.342 719.764 953.163 710.631 955.26 703.872 957.357 697.113 961.733 691.542 965.106 687.98 968.48 684.418 973.335 683.641 975.5 682.5" stroke="#000000" stroke-width="4.58333" stroke-linejoin="round" stroke-miterlimit="10" fill="none" fill-rule="evenodd"/><path d="M974.5 819.5C979.788 829.627 985.075 839.753 990.91 846.202 996.745 852.65 1001.94 856.737 1009.51 858.19 1017.08 859.643 1028.88 855.647 1038.5 853.286" stroke="#000000" stroke-width="4.58333" stroke-linejoin="round" stroke-miterlimit="10" fill="none" fill-rule="evenodd"/><path d="M1037.5 854.5C1047.67 860.301 1057.84 866.102 1068.28 870.816 1078.72 875.529 1093.29 880.333 1100.16 882.781 1107.03 885.228 1108.26 885.364 1109.5 885.5" stroke="#000000" stroke-width="4.58333" stroke-linejoin="round" stroke-miterlimit="10" fill="none" fill-rule="evenodd"/><path d="M1108.5 885.5 1189.5 887.5" stroke="#000000" stroke-width="4.58333" stroke-linejoin="round" stroke-miterlimit="10" fill="none" fill-rule="evenodd"/><path d="M1189.5 887.5 1214.5 872.5" stroke="#000000" stroke-width="4.58333" stroke-linejoin="round" stroke-miterlimit="10" fill="none" fill-rule="evenodd"/><path d="M1213.5 872.244C1217.38 873.294 1221.26 874.343 1226.64 874.435 1232.02 874.526 1236.31 874.8 1245.8 872.792 1255.29 870.784 1283.57 862.386 1283.57 862.386 1300.45 857.457 1326.82 850.064 1347.08 843.218 1367.33 836.372 1391.24 827.153 1405.11 821.311 1418.97 815.47 1424.72 811.636 1430.29 808.168 1435.85 804.699 1437.18 802.599 1438.5 800.5" stroke="#000000" stroke-width="4.58333" stroke-linejoin="round" stroke-miterlimit="10" fill="none" fill-rule="evenodd"/><path d="M1438.5 799.5C1443.63 800.167 1450.37 800.833 1455.5 801.5" stroke="#000000" stroke-width="4.58333" stroke-linejoin="round" stroke-miterlimit="10" fill="none" fill-rule="evenodd"/><path d="M1455.5 801.5C1462.84 791.535 1470.18 781.569 1474.01 775.235 1477.85 768.902 1478.17 766.201 1478.5 763.5" stroke="#000000" stroke-width="4.58333" stroke-linejoin="round" stroke-miterlimit="10" fill="none" fill-rule="evenodd"/><path d="M1478.11 764.5C1478.84 760.738 1478.48 755.889 1477.56 750.904 1476.64 745.918 1474.07 739.709 1471.5 733.5" stroke="#000000" stroke-width="4.58333" stroke-linejoin="round" stroke-miterlimit="10" fill="none" fill-rule="evenodd"/><path d="M807.5 615.5C810.642 617.317 813.784 619.135 831.543 637.851 849.302 656.567 892.561 705.357 914.054 727.799 935.546 750.24 948.023 761.37 960.5 772.5" stroke="#000000" stroke-width="4.58333" stroke-linejoin="round" stroke-miterlimit="10" fill="none" fill-rule="evenodd"/><path d="M807.5 614.5C805.346 602.583 803.192 590.665 799.962 576.838 796.731 563.01 792.244 544.269 788.115 531.533 783.987 518.797 778.872 507.79 775.192 500.421 771.513 493.052 768.821 490.141 766.039 487.321 763.257 484.501 760.205 483.955 758.5 483.5" stroke="#000000" stroke-width="4.58333" stroke-linejoin="round" stroke-miterlimit="10" fill="none" fill-rule="evenodd"/><path d="M760.5 531.5C757.47 521.253 756.334 511.005 755.387 503.994 754.441 496.983 754.252 492.848 754.819 489.433 755.387 486.017 757.092 484.759 758.796 483.5" stroke="#000000" stroke-width="4.58333" stroke-linejoin="round" stroke-miterlimit="10" fill="none" fill-rule="evenodd"/><path d="M815.5 621.669C809.531 623.304 803.833 624.938 799.221 624.393 794.609 623.849 791.715 622.396 787.826 618.4 783.937 614.405 779.234 607.413 775.888 600.421 772.542 593.429 770.371 587.437 767.748 576.449 765.126 565.462 761.418 545.122 760.152 534.498 758.886 523.874 759.79 518.426 760.152 512.705 760.514 506.984 761.237 503.353 762.322 500.174 763.408 496.996 766.663 493.637 766.663 493.637 767.658 492.365 767.975 492.456 768.291 492.547" stroke="#000000" stroke-width="4.58333" stroke-linejoin="round" stroke-miterlimit="10" fill="none" fill-rule="evenodd"/><path d="M762.439 551.5C758.236 540.649 754.034 529.798 751.292 519.634 748.55 509.47 746.869 498.848 745.984 490.516 745.1 482.183 745.63 475.041 745.984 469.638 746.338 464.236 747.4 462.221 748.107 458.101 748.815 453.98 749.523 449.127 750.231 444.915 750.938 440.703 751.292 437.223 752.354 432.828 753.415 428.433 754.742 421.931 756.6 418.543 758.458 415.155 760.979 413.828 763.5 412.5" stroke="#000000" stroke-width="4.58333" stroke-linejoin="round" stroke-miterlimit="10" fill="none" fill-rule="evenodd"/><path d="M763.5 412.5C767.893 410.965 772.286 409.43 778.717 405.458 785.148 401.486 795.384 393.09 802.087 388.667 808.79 384.243 810.42 382.167 818.935 378.917 827.449 375.667 841.67 371.785 853.174 369.167 864.677 366.549 877.902 364.653 887.956 363.208 898.011 361.764 905.755 361.132 913.5 360.5" stroke="#000000" stroke-width="4.58333" stroke-linejoin="round" stroke-miterlimit="10" fill="none" fill-rule="evenodd"/><path d="M832.54 458.5C826.635 452.439 820.731 446.378 816.734 441.132 812.737 435.885 810.013 430.909 808.559 427.02 807.106 423.13 807.378 420.145 808.014 417.793 808.65 415.441 809.013 415.35 812.374 412.908 815.735 410.465 823.002 407.209 828.18 403.138 833.357 399.067 838.444 392.554 843.44 388.483 848.436 384.412 851.706 381.699 858.155 378.713 864.604 375.728 872.598 373.557 882.135 370.572 891.673 367.587 900.303 363.878 915.381 360.802 930.46 357.727 954.259 354.47 972.607 352.118 990.956 349.766 1009.94 347.685 1025.47 346.69 1041.01 345.695 1052.63 344.881 1065.8 346.148 1078.98 347.414 1091.74 350.851 1104.5 354.289" stroke="#000000" stroke-width="4.58333" stroke-linejoin="round" stroke-miterlimit="10" fill="none" fill-rule="evenodd"/><path d="M1104.5 353.5C1112.64 356.496 1120.77 359.493 1128.5 362.904 1136.23 366.315 1145.95 371.11 1150.86 373.968 1155.77 376.826 1157.41 377.886 1158.5 379.5" stroke="#000000" stroke-width="4.58333" stroke-linejoin="round" stroke-miterlimit="10" fill="none" fill-rule="evenodd"/><path d="M897.5 431.5C899.543 428.976 901.587 426.453 906.218 423.792 910.85 421.131 910.668 419.479 925.289 415.533 939.91 411.587 971.877 404.613 993.945 400.117 1016.01 395.62 1036.26 391.674 1057.7 388.554 1079.13 385.434 1105.74 382.681 1122.54 381.396 1139.34 380.112 1148.92 380.479 1158.5 380.846" stroke="#000000" stroke-width="4.58333" stroke-linejoin="round" stroke-miterlimit="10" fill="none" fill-rule="evenodd"/><path d="M908.5 488.5C905.103 467.324 901.707 446.149 899.261 435.699 896.815 425.248 897.359 429.649 893.826 425.798 890.294 421.948 882.141 415.715 878.065 412.598 873.989 409.481 872.268 407.831 869.37 407.098 866.471 406.365 864.025 405.906 860.674 408.198 857.323 410.49 852.884 415.348 849.261 420.848 845.638 426.348 841.471 434.14 838.935 441.199 836.399 448.257 834.949 454.353 833.5 460.449" stroke="#000000" stroke-width="4.58333" stroke-linejoin="round" stroke-miterlimit="10" fill="none" fill-rule="evenodd"/><path d="M865.5 489.5 833.5 459.5" stroke="#000000" stroke-width="4.58333" stroke-linejoin="round" stroke-miterlimit="10" fill="none" fill-rule="evenodd"/><path d="M829.5 516.5C830.771 511.3 832.041 506.1 834.946 502.695 837.85 499.289 841.48 497.909 846.926 496.068 852.371 494.227 861.992 492.202 867.619 491.65 873.246 491.098 877.875 492.202 880.688 492.755 883.502 493.307 884.001 494.135 884.5 494.964" stroke="#000000" stroke-width="4.58333" stroke-linejoin="round" stroke-miterlimit="10" fill="none" fill-rule="evenodd"/><path d="M892.5 521.5 884.5 495.5" stroke="#000000" stroke-width="4.58333" stroke-linejoin="round" stroke-miterlimit="10" fill="none" fill-rule="evenodd"/><path d="M892.5 521.5 902.328 521.5" stroke="#000000" stroke-width="4.58333" stroke-linejoin="round" stroke-miterlimit="10" fill="none" fill-rule="evenodd"/><path d="M901.5 523.5C902.712 515.661 905 503.995 905.808 498.891 906.616 493.787 908.096 490.87 908.5 488.5" stroke="#000000" stroke-width="4.58333" stroke-linejoin="round" stroke-miterlimit="10" fill="none" fill-rule="evenodd"/><path d="M914.5 426.5C931.334 421.58 949.994 415.74 971.984 410.497 993.973 405.255 1022.17 399.001 1046.44 395.046 1070.71 391.091 1098.26 388.332 1117.61 386.768 1136.95 385.205 1149.73 385.435 1162.5 385.664" stroke="#000000" stroke-width="4.58333" stroke-linejoin="round" stroke-miterlimit="10" fill="none" fill-rule="evenodd"/><path d="M1250.5 488.5 1209.05 440.242C1197.14 426.441 1186.95 414.468 1179.05 405.693 1171.14 396.919 1165.27 391.161 1160.5 386.5" stroke="#000000" stroke-width="4.58333" stroke-linejoin="round" stroke-miterlimit="10" fill="none" fill-rule="evenodd"/><path d="M943.5 547.5C937.415 522 931.33 496.5 927.029 478.227 922.729 459.955 919.617 446.318 917.696 437.864 915.774 429.409 915.637 428.455 915.5 427.5" stroke="#000000" stroke-width="4.58333" stroke-linejoin="round" stroke-miterlimit="10" fill="none" fill-rule="evenodd"/><path d="M942.5 547.5 1046.29 533.843C1078.34 529.108 1108.2 524.282 1134.78 519.093 1161.37 513.903 1186.68 507.803 1205.8 502.704 1224.92 497.605 1237.21 493.053 1249.5 488.5" stroke="#000000" stroke-width="4.58333" stroke-linejoin="round" stroke-miterlimit="10" fill="none" fill-rule="evenodd"/><path d="M1270.5 444.5C1269.32 440.646 1268.15 436.793 1266.7 433.619 1265.25 430.445 1264.16 427.453 1261.81 425.458 1259.46 423.463 1256.11 422.103 1252.58 421.65 1249.05 421.197 1243.98 421.831 1240.63 422.738 1237.28 423.645 1233.93 425.73 1232.48 427.09 1231.04 428.45 1231.49 429.674 1231.94 430.899" stroke="#000000" stroke-width="4.58333" stroke-linejoin="round" stroke-miterlimit="10" fill="none" fill-rule="evenodd"/><path d="M1237.5 454.5C1235.55 449.361 1233.59 444.222 1232.59 440.055 1231.59 435.889 1231.55 432.694 1231.5 429.5" stroke="#000000" stroke-width="4.58333" stroke-linejoin="round" stroke-miterlimit="10" fill="none" fill-rule="evenodd"/><path d="M0 0 3.27582 0.54603" stroke="#000000" stroke-width="4.58333" stroke-linejoin="round" stroke-miterlimit="10" fill="none" fill-rule="evenodd" transform="matrix(-1 0 0 1 1237.78 454.5)"/><path d="M1245.5 466.5C1251.19 462.789 1256.89 459.077 1260.5 456.305 1264.11 453.533 1265.5 451.833 1267.17 449.866 1268.83 447.899 1269.67 446.199 1270.5 444.5" stroke="#000000" stroke-width="4.58333" stroke-linejoin="round" stroke-miterlimit="10" fill="none" fill-rule="evenodd"/><path d="M1471.14 655.5C1471.82 651.914 1471.59 646.513 1470.04 641.339 1468.49 636.165 1468.49 633.714 1461.84 624.455 1455.19 615.196 1442.06 597.314 1430.13 585.786 1418.19 574.257 1406.34 566.088 1390.21 555.286 1374.08 544.484 1357.13 534.771 1333.35 520.973 1309.56 507.176 1278.53 489.838 1247.5 472.5" stroke="#000000" stroke-width="4.58333" stroke-linejoin="round" stroke-miterlimit="10" fill="none" fill-rule="evenodd"/><path d="M1447.5 691.5C1450.28 689.464 1453.06 687.429 1456.39 683.357 1459.72 679.286 1465.09 671.776 1467.5 667.072 1469.91 662.367 1472.04 657.119 1472.5 653.5" stroke="#000000" stroke-width="4.58333" stroke-linejoin="round" stroke-miterlimit="10" fill="none" fill-rule="evenodd"/><path d="M1448.5 690.5C1444.83 686.535 1442.08 681.659 1440.8 676.281 1439.52 670.904 1441.08 664.068 1440.8 658.234 1440.53 652.401 1440.07 648.026 1439.15 641.281 1438.23 634.536 1436.95 624.875 1435.3 617.765 1433.65 610.656 1430.72 603.364 1429.25 598.625 1427.78 593.885 1426.5 591.515 1426.5 589.328 1426.5 587.14 1427.88 586.32 1429.25 585.5" stroke="#000000" stroke-width="4.58333" stroke-linejoin="round" stroke-miterlimit="10" fill="none" fill-rule="evenodd"/><path d="M1015.5 690.5C1019.97 698.232 1024.45 705.964 1030.29 714.108 1036.14 722.252 1044.72 732.683 1050.57 739.363 1056.41 746.043 1060.79 750.252 1065.36 754.186 1069.92 758.121 1073.03 760.591 1077.96 762.971 1082.89 765.35 1088.28 766.905 1094.95 768.461 1101.61 770.016 1109.46 771.297 1117.96 772.304 1126.45 773.311 1139.33 774.5 1145.9 774.5 1152.47 774.5 1153.39 774.043 1157.41 772.304 1161.42 770.565 1167.18 766.539 1170.01 764.069 1172.84 761.598 1173.93 759.676 1174.39 757.48 1174.85 755.284 1173.8 753.088 1172.75 750.892" stroke="#000000" stroke-width="4.58333" stroke-linejoin="round" stroke-miterlimit="10" fill="none" fill-rule="evenodd"/><path d="M1171.5 750.5C1169.64 748.595 1167.78 746.689 1161.17 742.335 1154.55 737.98 1144.31 731.084 1131.8 724.37 1119.29 717.656 1099.98 708.221 1086.11 702.051 1072.25 695.882 1056.93 690.166 1048.59 687.353 1040.25 684.541 1039.52 685.629 1036.08 685.176 1032.63 684.722 1030.82 684.269 1027.92 684.632 1025.02 684.994 1018.68 687.353 1018.68 687.353 1017.04 687.897 1016.77 688.714 1016.5 689.531" stroke="#000000" stroke-width="4.58333" stroke-linejoin="round" stroke-miterlimit="10" fill="none" fill-rule="evenodd"/><path d="M1471.5 731.5C1474.04 726.395 1476.57 721.291 1478.39 716.992 1480.21 712.694 1481.93 708.933 1482.41 705.709 1482.89 702.485 1481.26 697.649 1481.26 697.649 1480.88 695.948 1480.5 695.724 1480.11 695.5" stroke="#000000" stroke-width="4.58333" stroke-linejoin="round" stroke-miterlimit="10" fill="none" fill-rule="evenodd"/><path d="M1473.5 658.5C1476.28 667.231 1479.06 675.963 1480.38 681.067 1481.7 686.171 1481.53 686.888 1481.44 689.127 1481.35 691.365 1480.6 692.933 1479.85 694.5" stroke="#000000" stroke-width="4.58333" stroke-linejoin="round" stroke-miterlimit="10" fill="none" fill-rule="evenodd"/><path d="M918.5 542.5 908.5 488.5" stroke="#000000" stroke-width="4.58333" stroke-linejoin="round" stroke-miterlimit="10" fill="none" fill-rule="evenodd"/><path d="M910.5 534.5 867.956 531.773C857.047 530.864 850.683 530.136 845.047 529.046 839.411 527.955 836.683 526.864 834.138 525.227 831.593 523.591 830.411 520.682 829.774 519.227 829.138 517.773 829.729 517.137 830.32 516.5" stroke="#000000" stroke-width="4.58333" stroke-linejoin="round" stroke-miterlimit="10" fill="none" fill-rule="evenodd"/><path d="M915.96 542.69 910.5 534.5" stroke="#000000" stroke-width="4.58333" stroke-linejoin="round" stroke-miterlimit="10" fill="none" fill-rule="evenodd"/><path d="M1249.5 472.5C1238.05 459.604 1226.6 446.709 1215.16 434.492 1203.71 422.275 1189.53 407.885 1180.81 399.198 1172.09 390.51 1166.37 385.623 1162.82 382.365 1159.28 379.108 1159.42 379.379 1159.55 379.65" stroke="#000000" stroke-width="4.58333" stroke-linejoin="round" stroke-miterlimit="10" fill="none" fill-rule="evenodd"/><path d="M551.5 545.5 748.5 509.5" stroke="#000000" stroke-width="4.58333" stroke-linejoin="round" stroke-miterlimit="10" fill="none" fill-rule="evenodd"/><path d="M1850.5 858.5 1472.5 648.5" stroke="#000000" stroke-width="4.58333" stroke-linejoin="round" stroke-miterlimit="10" fill="none" fill-rule="evenodd"/><path d="M551.5 1346.45C551.5 1310.02 581.025 1280.5 617.445 1280.5L1820.55 1280.5C1856.98 1280.5 1886.5 1310.02 1886.5 1346.45L1886.5 2072.55C1886.5 2108.98 1856.98 2138.5 1820.55 2138.5L617.445 2138.5C581.025 2138.5 551.5 2108.98 551.5 2072.55Z" stroke="#7F7F7F" stroke-width="4.58333" stroke-linejoin="round" stroke-miterlimit="10" fill="#FFFFFF" fill-rule="evenodd"/><text font-family="Calibri,Calibri_MSFontService,sans-serif" font-weight="700" font-size="73" transform="matrix(1 0 0 1 828.405 1480)">OpenMATERIAL</text><text font-family="Calibri,Calibri_MSFontService,sans-serif" font-weight="700" font-size="73" transform="matrix(1 0 0 1 1310.8 1480)">:</text><text font-family="Calibri,Calibri_MSFontService,sans-serif" font-weight="700" font-size="73" transform="matrix(1 0 0 1 828.405 1568)">Asset Info &amp; Model </text><text font-family="Calibri,Calibri_MSFontService,sans-serif" font-weight="700" font-size="73" transform="matrix(1 0 0 1 1431.11 1568)">Specs</text><text font-family="Calibri,Calibri_MSFontService,sans-serif" font-weight="700" font-size="73" transform="matrix(1 0 0 1 828.405 1656)">-</text><text font-family="Calibri,Calibri_MSFontService,sans-serif" font-weight="400" font-size="73" transform="matrix(1 0 0 1 867.364 1656)">Semantic</text><text font-family="Calibri,Calibri_MSFontService,sans-serif" font-weight="400" font-size="73" transform="matrix(1 0 0 1 1158.41 1656)">Information</text><text font-family="Calibri,Calibri_MSFontService,sans-serif" font-weight="400" font-size="73" transform="matrix(1 0 0 1 828.405 1744)">-</text><text font-family="Calibri,Calibri_MSFontService,sans-serif" font-weight="400" font-size="73" transform="matrix(1 0 0 1 867.364 1744)">Coordinate</text><text font-family="Calibri,Calibri_MSFontService,sans-serif" font-weight="400" font-size="73" transform="matrix(1 0 0 1 1216.27 1744)">Frames</text><text font-family="Calibri,Calibri_MSFontService,sans-serif" font-weight="400" font-size="73" transform="matrix(1 0 0 1 828.405 1832)">-</text><text font-family="Calibri,Calibri_MSFontService,sans-serif" font-weight="400" font-size="73" transform="matrix(1 0 0 1 867.364 1832)">Node </text><text font-family="Calibri,Calibri_MSFontService,sans-serif" font-weight="400" font-size="73" transform="matrix(1 0 0 1 1045.54 1832)">Hierarchy</text><text font-family="Calibri,Calibri_MSFontService,sans-serif" font-weight="400" font-size="73" transform="matrix(1 0 0 1 828.405 1920)">-</text><text font-family="Calibri,Calibri_MSFontService,sans-serif" font-weight="400" font-size="73" transform="matrix(1 0 0 1 867.364 1920)">Animation</text><text font-family="Calibri,Calibri_MSFontService,sans-serif" font-weight="400" font-size="73" transform="matrix(1 0 0 1 828.405 2008)">-</text><text font-family="Calibri,Calibri_MSFontService,sans-serif" font-weight="400" font-size="73" transform="matrix(1 0 0 1 867.364 2008)">Quality </text><text font-family="Calibri,Calibri_MSFontService,sans-serif" font-weight="400" font-size="73" transform="matrix(1 0 0 1 1097.68 2008)">Requirements</text><path d="M1918.5 420.25C1918.5 384.489 1947.49 355.5 1983.25 355.5L3806.75 355.5C3842.51 355.5 3871.5 384.489 3871.5 420.25L3871.5 794.75C3871.5 830.51 3842.51 859.5 3806.75 859.5L1983.25 859.5C1947.49 859.5 1918.5 830.51 1918.5 794.75Z" stroke="#7F7F7F" stroke-width="4.58333" stroke-linejoin="round" stroke-miterlimit="10" fill="#FFFFFF" fill-rule="evenodd"/><path d="M1920.5 962.639C1920.5 925.559 1950.56 895.5 1987.64 895.5L3804.36 895.5C3841.44 895.5 3871.5 925.559 3871.5 962.639L3871.5 2072.36C3871.5 2109.44 3841.44 2139.5 3804.36 2139.5L1987.64 2139.5C1950.56 2139.5 1920.5 2109.44 1920.5 2072.36Z" stroke="#7F7F7F" stroke-width="4.58333" stroke-linejoin="round" stroke-miterlimit="10" fill="#FFFFFF" fill-rule="evenodd"/><rect x="2338.5" y="925.5" width="156" height="238" stroke="#7F7F7F" stroke-width="4.58333" stroke-linejoin="round" stroke-miterlimit="10" fill="#FFFFFF"/><path d="M0 0 32.4803 32.6561" stroke="#7F7F7F" stroke-width="4.58333" stroke-linejoin="round" stroke-miterlimit="10" fill="#FFFFFF" fill-rule="evenodd" transform="matrix(1 0 0 -1 2338.5 958.156)"/><text fill="#7F7F7F" font-family="Calibri,Calibri_MSFontService,sans-serif" font-weight="400" font-size="73" transform="matrix(1 0 0 1 2297.89 1268)">iron.gltf</text><rect x="2338.5" y="1338.5" width="156" height="238" stroke="#7F7F7F" stroke-width="4.58333" stroke-linejoin="round" stroke-miterlimit="10" fill="#FFFFFF"/><path d="M0 0 32.4803 32.6561" stroke="#7F7F7F" stroke-width="4.58333" stroke-linejoin="round" stroke-miterlimit="10" fill="#FFFFFF" fill-rule="evenodd" transform="matrix(1 0 0 -1 2338.5 1371.16)"/><text fill="#7F7F7F" font-family="Calibri,Calibri_MSFontService,sans-serif" font-weight="400" font-size="73" transform="matrix(1 0 0 1 2256.06 1681)">rubber.gltf</text><rect x="2338.5" y="1750.5" width="156" height="237" stroke="#7F7F7F" stroke-width="4.58333" stroke-linejoin="round" stroke-miterlimit="10" fill="#FFFFFF"/><path d="M0 0 32.4803 32.6561" stroke="#7F7F7F" stroke-width="4.58333" stroke-linejoin="round" stroke-miterlimit="10" fill="#FFFFFF" fill-rule="evenodd" transform="matrix(1 0 0 -1 2338.5 1782.16)"/><text fill="#7F7F7F" font-family="Calibri,Calibri_MSFontService,sans-serif" font-weight="400" font-size="73" transform="matrix(1 0 0 1 2286.14 2092)">glass.gltf</text><rect x="2076.5" y="433.5" width="156" height="238" stroke="#7F7F7F" stroke-width="4.58333" stroke-linejoin="round" stroke-miterlimit="10" fill="none"/><path d="M0 0 32.4803 32.6561" stroke="#7F7F7F" stroke-width="4.58333" stroke-linejoin="round" stroke-miterlimit="10" fill="none" fill-rule="evenodd" transform="matrix(1 0 0 -1 2076.5 466.156)"/><rect x="2109.5" y="463.5" width="155" height="237" stroke="#7F7F7F" stroke-width="4.58333" stroke-linejoin="round" stroke-miterlimit="10" fill="#FFFFFF"/><path d="M0 0 32.4803 32.6561" stroke="#7F7F7F" stroke-width="4.58333" stroke-linejoin="round" stroke-miterlimit="10" fill="#FFFFFF" fill-rule="evenodd" transform="matrix(1 0 0 -1 2109.5 495.156)"/><text fill="#7F7F7F" font-family="Calibri,Calibri_MSFontService,sans-serif" font-weight="400" font-size="73" transform="matrix(1 0 0 1 1996.45 806)">c</text><text fill="#7F7F7F" font-family="Calibri,Calibri_MSFontService,sans-serif" font-weight="400" font-size="73" transform="matrix(1 0 0 1 2027.39 806)">ar.gltf</text><text fill="#7F7F7F" font-family="Calibri,Calibri_MSFontService,sans-serif" font-weight="400" font-size="73" transform="matrix(1 0 0 1 2204.42 806)">/.bin</text><text font-family="Calibri,Calibri_MSFontService,sans-serif" font-weight="700" font-size="73" transform="matrix(1 0 0 1 2682.13 559)">glTF</text><text font-family="Calibri,Calibri_MSFontService,sans-serif" font-weight="700" font-size="73" transform="matrix(1 0 0 1 2804.74 559)">: 3D </text><text font-family="Calibri,Calibri_MSFontService,sans-serif" font-weight="700" font-size="73" transform="matrix(1 0 0 1 2941.67 559)">Geometry &amp; </text><text font-family="Calibri,Calibri_MSFontService,sans-serif" font-weight="700" font-size="73" transform="matrix(1 0 0 1 3332.4 559)">Rendering</text><text font-family="Calibri,Calibri_MSFontService,sans-serif" font-weight="400" font-size="73" transform="matrix(1 0 0 1 2682.13 647)">PBR (Metallic</text><text font-family="Calibri,Calibri_MSFontService,sans-serif" font-weight="400" font-size="73" transform="matrix(1 0 0 1 3078.59 647)">-</text><text font-family="Calibri,Calibri_MSFontService,sans-serif" font-weight="400" font-size="73" transform="matrix(1 0 0 1 3100.94 647)">Roughness</text><text font-family="Calibri,Calibri_MSFontService,sans-serif" font-weight="400" font-size="73" transform="matrix(1 0 0 1 3423.49 647)">)</text><path d="M0-2.29167 201.86-2.29167C203.125-2.29167 204.151-1.26565 204.151 0L204.151 144.96 199.568 144.96 199.568 0 201.86 2.29167 0 2.29167ZM215.61 140.377 201.86 167.877 188.11 140.377Z" fill="#7F7F7F" transform="matrix(1.83697e-16 1 1 -1.83697e-16 2170.5 842.5)"/><path d="M0-2.29167 614.844-2.29167C616.11-2.29167 617.136-1.26565 617.136 0L617.136 144.961 612.552 144.961 612.552 0 614.844 2.29167 0 2.29167ZM628.594 140.377 614.844 167.877 601.094 140.377Z" fill="#7F7F7F" transform="matrix(1.83697e-16 1 1 -1.83697e-16 2170.5 842.5)"/><path d="M0-2.29167 1026.01-2.29167C1027.27-2.29167 1028.3-1.26565 1028.3 0L1028.3 144.961 1023.72 144.961 1023.72 0 1026.01 2.29167 0 2.29167ZM1039.76 140.377 1026.01 167.877 1012.26 140.377Z" fill="#7F7F7F" transform="matrix(1.83697e-16 1 1 -1.83697e-16 2170.5 842.5)"/><text font-family="Calibri,Calibri_MSFontService,sans-serif" font-weight="700" font-size="73" transform="matrix(1 0 0 1 2682.13 1101)">OpenMATERIAL</text><text font-family="Calibri,Calibri_MSFontService,sans-serif" font-weight="700" font-size="73" transform="matrix(1 0 0 1 3164.53 1101)">: Material </text><text font-family="Calibri,Calibri_MSFontService,sans-serif" font-weight="700" font-size="73" transform="matrix(1 0 0 1 3477.92 1101)">Models</text><text font-family="Calibri,Calibri_MSFontService,sans-serif" font-weight="400" font-size="73" transform="matrix(1 0 0 1 2682.13 1189)">Frequency</text><text font-family="Calibri,Calibri_MSFontService,sans-serif" font-weight="400" font-size="73" transform="matrix(1 0 0 1 2994.37 1189)">-</text><text font-family="Calibri,Calibri_MSFontService,sans-serif" font-weight="400" font-size="73" transform="matrix(1 0 0 1 3016.72 1189)">specific</text><text font-family="Calibri,Calibri_MSFontService,sans-serif" font-weight="400" font-size="73" transform="matrix(1 0 0 1 3254.48 1189)">sensor</text><text font-family="Calibri,Calibri_MSFontService,sans-serif" font-weight="400" font-size="73" transform="matrix(1 0 0 1 2682.13 1277)">material </text><text font-family="Calibri,Calibri_MSFontService,sans-serif" font-weight="400" font-size="73" transform="matrix(1 0 0 1 2947.4 1277)">properties</text></g></svg>