<svg width="4175" height="1591" xmlns="http://www.w3.org/2000/svg" xmlns:xlink="http://www.w3.org/1999/xlink" xml:space="preserve" overflow="hidden"><defs><clipPath id="clip0"><rect x="20" y="198" width="4175" height="1591"/></clipPath></defs><g clip-path="url(#clip0)" transform="translate(-20 -198)"><path d="M1279.5 1299.17C1279.5 1262.9 1308.9 1233.5 1345.17 1233.5L1749.83 1233.5C1786.1 1233.5 1815.5 1262.9 1815.5 1299.17L1815.5 1561.83C1815.5 1598.1 1786.1 1627.5 1749.83 1627.5L1345.17 1627.5C1308.9 1627.5 1279.5 1598.1 1279.5 1561.83Z" stroke="#7F7F7F" stroke-width="4.58333" stroke-linejoin="round" stroke-miterlimit="10" fill="#FFFFFF" fill-rule="evenodd"/><path d="M618.5 782.001C618.5 745.826 647.826 716.5 684.001 716.5L1090 716.5C1126.17 716.5 1155.5 745.826 1155.5 782.001L1155.5 1044C1155.5 1080.17 1126.17 1109.5 1090 1109.5L684.001 1109.5C647.826 1109.5 618.5 1080.17 618.5 1044Z" stroke="#7F7F7F" stroke-width="4.58333" stroke-linejoin="round" stroke-miterlimit="10" fill="#FFFFFF" fill-rule="evenodd"/><path d="M2537.5 962.378C2537.5 925.995 2566.99 896.5 2603.38 896.5L4126.62 896.5C4163.01 896.5 4192.5 925.995 4192.5 962.378L4192.5 1720.62C4192.5 1757.01 4163.01 1786.5 4126.62 1786.5L2603.38 1786.5C2566.99 1786.5 2537.5 1757.01 2537.5 1720.62Z" stroke="#7F7F7F" stroke-width="4.58333" stroke-linejoin="round" stroke-miterlimit="10" fill="#FFFFFF" fill-rule="evenodd"/><rect x="208.5" y="701.5" width="155" height="237" stroke="#7F7F7F" stroke-width="4.58333" stroke-linejoin="round" stroke-miterlimit="10" fill="#FFFFFF"/><path d="M0 0 32.4803 32.6561" stroke="#7F7F7F" stroke-width="4.58333" stroke-linejoin="round" stroke-miterlimit="10" fill="#FFFFFF" fill-rule="evenodd" transform="matrix(1 0 0 -1 208.5 733.156)"/><rect x="241.5" y="730.5" width="155" height="238" stroke="#7F7F7F" stroke-width="4.58333" stroke-linejoin="round" stroke-miterlimit="10" fill="#FFFFFF"/><path d="M0 0 32.4803 32.6561" stroke="#7F7F7F" stroke-width="4.58333" stroke-linejoin="round" stroke-miterlimit="10" fill="#FFFFFF" fill-rule="evenodd" transform="matrix(1 0 0 -1 241.5 763.156)"/><text fill="#7F7F7F" font-family="Calibri,Calibri_MSFontService,sans-serif" font-weight="400" font-size="73" transform="matrix(1 0 0 1 64.5301 1073)">Map</text><text fill="#7F7F7F" font-family="Calibri,Calibri_MSFontService,sans-serif" font-weight="400" font-size="73" transform="matrix(1 0 0 1 216.926 1073)">&amp; Scenario</text><path d="M1279.5 266.001C1279.5 229.826 1308.83 200.5 1345 200.5L1750 200.5C1786.17 200.5 1815.5 229.826 1815.5 266.001L1815.5 527.999C1815.5 564.174 1786.17 593.5 1750 593.5L1345 593.5C1308.83 593.5 1279.5 564.174 1279.5 527.999Z" stroke="#7F7F7F" stroke-width="4.58333" stroke-linejoin="round" stroke-miterlimit="10" fill="#FFFFFF" fill-rule="evenodd"/><rect x="1361" y="427" width="374" height="122" fill="#FFFFFF"/><text fill="#7F7F7F" font-family="Calibri,Calibri_MSFontService,sans-serif" font-weight="400" font-size="73" transform="matrix(1 0 0 1 1395.54 513)">Rendering</text><path d="M0 0 38.1301 73.9064" stroke="#7F7F7F" stroke-width="4.58333" stroke-linejoin="round" stroke-miterlimit="10" fill="#FFFFFF" fill-rule="evenodd" transform="matrix(1 0 0 -1 1295.5 392.407)"/><path d="M1333.5 319.5 1370.67 380.695" stroke="#7F7F7F" stroke-width="4.58333" stroke-linejoin="round" stroke-miterlimit="10" fill="#FFFFFF" fill-rule="evenodd"/><path d="M0 0 76.9343 11.8517" stroke="#7F7F7F" stroke-width="4.58333" stroke-linejoin="round" stroke-miterlimit="10" fill="#FFFFFF" fill-rule="evenodd" transform="matrix(-1 0 0 1 1372.43 380.5)"/><path d="M1333.5 318.5 1370.67 351.642" stroke="#7F7F7F" stroke-width="4.58333" stroke-linejoin="round" stroke-miterlimit="10" fill="#FFFFFF" fill-rule="evenodd"/><path d="M1370.5 351.5 1370.5 380.413" stroke="#7F7F7F" stroke-width="4.58333" stroke-linejoin="round" stroke-miterlimit="10" fill="#FFFFFF" fill-rule="evenodd"/><path d="M0 0 25.1657 48.7782" stroke="#7F7F7F" stroke-width="4.58333" stroke-linejoin="round" stroke-miterlimit="10" fill="#FFFFFF" fill-rule="evenodd" transform="matrix(1 0 0 -1 1326.5 306.278)"/><path d="M1350.5 258.5 1375.03 298.889" stroke="#7F7F7F" stroke-width="4.58333" stroke-linejoin="round" stroke-miterlimit="10" fill="#FFFFFF" fill-rule="evenodd"/><path d="M0 0 50.7765 7.82198" stroke="#7F7F7F" stroke-width="4.58333" stroke-linejoin="round" stroke-miterlimit="10" fill="#FFFFFF" fill-rule="evenodd" transform="matrix(-1 0 0 1 1377.28 298.5)"/><path d="M1350.5 257.5 1375.03 279.374" stroke="#7F7F7F" stroke-width="4.58333" stroke-linejoin="round" stroke-miterlimit="10" fill="#FFFFFF" fill-rule="evenodd"/><path d="M1375.5 279.5 1375.5 298.582" stroke="#7F7F7F" stroke-width="4.58333" stroke-linejoin="round" stroke-miterlimit="10" fill="#FFFFFF" fill-rule="evenodd"/><path d="M0 0 19.0652 36.9532" stroke="#7F7F7F" stroke-width="4.58333" stroke-linejoin="round" stroke-miterlimit="10" fill="#FFFFFF" fill-rule="evenodd" transform="matrix(1 0 0 -1 1378.5 345.453)"/><path d="M1397.5 308.5 1416.09 339.098" stroke="#7F7F7F" stroke-width="4.58333" stroke-linejoin="round" stroke-miterlimit="10" fill="#FFFFFF" fill-rule="evenodd"/><path d="M0 0 38.4672 5.92585" stroke="#7F7F7F" stroke-width="4.58333" stroke-linejoin="round" stroke-miterlimit="10" fill="#FFFFFF" fill-rule="evenodd" transform="matrix(-1 0 0 1 1416.97 339.5)"/><path d="M1397.5 308.5 1416.09 325.071" stroke="#7F7F7F" stroke-width="4.58333" stroke-linejoin="round" stroke-miterlimit="10" fill="#FFFFFF" fill-rule="evenodd"/><path d="M1416.5 324.5 1416.5 338.956" stroke="#7F7F7F" stroke-width="4.58333" stroke-linejoin="round" stroke-miterlimit="10" fill="#FFFFFF" fill-rule="evenodd"/><path d="M1279.5 782.001C1279.5 745.826 1308.83 716.5 1345 716.5L1750 716.5C1786.17 716.5 1815.5 745.826 1815.5 782.001L1815.5 1044C1815.5 1080.17 1786.17 1109.5 1750 1109.5L1345 1109.5C1308.83 1109.5 1279.5 1080.17 1279.5 1044Z" stroke="#7F7F7F" stroke-width="4.58333" stroke-linejoin="round" stroke-miterlimit="10" fill="#FFFFFF" fill-rule="evenodd"/><text fill="#7F7F7F" font-family="Calibri,Calibri_MSFontService,sans-serif" font-weight="400" font-size="73" transform="matrix(1 0 0 1 1429.3 979)">Physical</text><text fill="#7F7F7F" font-family="Calibri,Calibri_MSFontService,sans-serif" font-weight="400" font-size="73" transform="matrix(1 0 0 1 1341.95 1067)">Sensor Model</text><path d="M0 0 38.1301 73.9064" stroke="#7F7F7F" stroke-width="4.58333" stroke-linejoin="round" stroke-miterlimit="10" fill="none" fill-rule="evenodd" transform="matrix(1 0 0 -1 1295.5 910.406)"/><path d="M1333.5 837.5 1370.67 898.695" stroke="#7F7F7F" stroke-width="4.58333" stroke-linejoin="round" stroke-miterlimit="10" fill="none" fill-rule="evenodd"/><path d="M0 0 76.9343 11.8517" stroke="#7F7F7F" stroke-width="4.58333" stroke-linejoin="round" stroke-miterlimit="10" fill="none" fill-rule="evenodd" transform="matrix(-1 0 0 1 1372.43 898.5)"/><path d="M1333.5 836.5 1370.67 869.642" stroke="#7F7F7F" stroke-width="4.58333" stroke-linejoin="round" stroke-miterlimit="10" fill="none" fill-rule="evenodd"/><path d="M1370.5 869.5 1370.5 898.412" stroke="#7F7F7F" stroke-width="4.58333" stroke-linejoin="round" stroke-miterlimit="10" fill="none" fill-rule="evenodd"/><path d="M0 0 25.1657 48.7782" stroke="#7F7F7F" stroke-width="4.58333" stroke-linejoin="round" stroke-miterlimit="10" fill="none" fill-rule="evenodd" transform="matrix(1 0 0 -1 1325.5 824.278)"/><path d="M1350.5 776.5 1375.03 816.889" stroke="#7F7F7F" stroke-width="4.58333" stroke-linejoin="round" stroke-miterlimit="10" fill="none" fill-rule="evenodd"/><path d="M0 0 50.7765 7.82198" stroke="#7F7F7F" stroke-width="4.58333" stroke-linejoin="round" stroke-miterlimit="10" fill="none" fill-rule="evenodd" transform="matrix(-1 0 0 1 1376.28 816.5)"/><path d="M1350.5 775.5 1375.03 797.374" stroke="#7F7F7F" stroke-width="4.58333" stroke-linejoin="round" stroke-miterlimit="10" fill="none" fill-rule="evenodd"/><path d="M1375.5 797.5 1375.5 816.582" stroke="#7F7F7F" stroke-width="4.58333" stroke-linejoin="round" stroke-miterlimit="10" fill="none" fill-rule="evenodd"/><path d="M0 0 19.0652 36.9532" stroke="#7F7F7F" stroke-width="4.58333" stroke-linejoin="round" stroke-miterlimit="10" fill="none" fill-rule="evenodd" transform="matrix(1 0 0 -1 1378.5 863.453)"/><path d="M1397.5 826.5 1416.09 857.098" stroke="#7F7F7F" stroke-width="4.58333" stroke-linejoin="round" stroke-miterlimit="10" fill="none" fill-rule="evenodd"/><path d="M0 0 38.4672 5.92585" stroke="#7F7F7F" stroke-width="4.58333" stroke-linejoin="round" stroke-miterlimit="10" fill="none" fill-rule="evenodd" transform="matrix(-1 0 0 1 1416.97 857.5)"/><path d="M1397.5 826.5 1416.09 843.071" stroke="#7F7F7F" stroke-width="4.58333" stroke-linejoin="round" stroke-miterlimit="10" fill="none" fill-rule="evenodd"/><path d="M1415.5 842.5 1415.5 856.956" stroke="#7F7F7F" stroke-width="4.58333" stroke-linejoin="round" stroke-miterlimit="10" fill="none" fill-rule="evenodd"/><text fill="#7F7F7F" font-family="Calibri,Calibri_MSFontService,sans-serif" font-weight="400" font-size="73" transform="matrix(1 0 0 1 694.78 985)">Environment</text><text fill="#7F7F7F" font-family="Calibri,Calibri_MSFontService,sans-serif" font-weight="400" font-size="73" transform="matrix(1 0 0 1 728.857 1073)">Simulation</text><path d="M0 0 38.1301 73.9064" stroke="#7F7F7F" stroke-width="4.58333" stroke-linejoin="round" stroke-miterlimit="10" fill="none" fill-rule="evenodd" transform="matrix(1 0 0 -1 635.5 908.407)"/><path d="M672.5 835.5 709.671 896.696" stroke="#7F7F7F" stroke-width="4.58333" stroke-linejoin="round" stroke-miterlimit="10" fill="none" fill-rule="evenodd"/><path d="M0 0 76.9343 11.8517" stroke="#7F7F7F" stroke-width="4.58333" stroke-linejoin="round" stroke-miterlimit="10" fill="none" fill-rule="evenodd" transform="matrix(-1 0 0 1 712.434 896.5)"/><path d="M672.5 834.5 709.671 867.642" stroke="#7F7F7F" stroke-width="4.58333" stroke-linejoin="round" stroke-miterlimit="10" fill="none" fill-rule="evenodd"/><path d="M709.5 867.5 709.5 896.413" stroke="#7F7F7F" stroke-width="4.58333" stroke-linejoin="round" stroke-miterlimit="10" fill="none" fill-rule="evenodd"/><path d="M0 0 25.1657 48.7782" stroke="#7F7F7F" stroke-width="4.58333" stroke-linejoin="round" stroke-miterlimit="10" fill="none" fill-rule="evenodd" transform="matrix(1 0 0 -1 665.5 822.278)"/><path d="M690.5 774.5 715.033 814.889" stroke="#7F7F7F" stroke-width="4.58333" stroke-linejoin="round" stroke-miterlimit="10" fill="none" fill-rule="evenodd"/><path d="M0 0 50.7765 7.82198" stroke="#7F7F7F" stroke-width="4.58333" stroke-linejoin="round" stroke-miterlimit="10" fill="none" fill-rule="evenodd" transform="matrix(-1 0 0 1 716.276 814.5)"/><path d="M690.5 773.5 715.033 795.374" stroke="#7F7F7F" stroke-width="4.58333" stroke-linejoin="round" stroke-miterlimit="10" fill="none" fill-rule="evenodd"/><path d="M714.5 795.5 714.501 814.582" stroke="#7F7F7F" stroke-width="4.58333" stroke-linejoin="round" stroke-miterlimit="10" fill="none" fill-rule="evenodd"/><path d="M0 0 19.0652 36.9532" stroke="#7F7F7F" stroke-width="4.58333" stroke-linejoin="round" stroke-miterlimit="10" fill="none" fill-rule="evenodd" transform="matrix(1 0 0 -1 718.5 861.453)"/><path d="M737.5 824.5 756.085 855.098" stroke="#7F7F7F" stroke-width="4.58333" stroke-linejoin="round" stroke-miterlimit="10" fill="none" fill-rule="evenodd"/><path d="M0 0 38.4672 5.92585" stroke="#7F7F7F" stroke-width="4.58333" stroke-linejoin="round" stroke-miterlimit="10" fill="none" fill-rule="evenodd" transform="matrix(-1 0 0 1 756.967 855.5)"/><path d="M737.5 824.5 756.085 841.071" stroke="#7F7F7F" stroke-width="4.58333" stroke-linejoin="round" stroke-miterlimit="10" fill="none" fill-rule="evenodd"/><path d="M755.5 840.5 755.5 854.956" stroke="#7F7F7F" stroke-width="4.58333" stroke-linejoin="round" stroke-miterlimit="10" fill="none" fill-rule="evenodd"/><text fill="#7F7F7F" font-family="Calibri,Calibri_MSFontService,sans-serif" font-weight="400" font-size="73" transform="matrix(1 0 0 1 1394.18 1506)">Stochastic</text><text fill="#7F7F7F" font-family="Calibri,Calibri_MSFontService,sans-serif" font-weight="400" font-size="73" transform="matrix(1 0 0 1 1339.48 1594)">Sensor Model</text><path d="M0 0 38.1301 73.9064" stroke="#7F7F7F" stroke-width="4.58333" stroke-linecap="square" stroke-linejoin="round" stroke-miterlimit="10" stroke-dasharray="13.75 4.58333" fill="none" fill-rule="evenodd" transform="matrix(1 0 0 -1 1293.5 1429.41)"/><path d="M1330.5 1355.5 1367.67 1416.7" stroke="#7F7F7F" stroke-width="4.58333" stroke-linecap="square" stroke-linejoin="round" stroke-miterlimit="10" stroke-dasharray="13.75 4.58333" fill="none" fill-rule="evenodd"/><path d="M0 0 76.9343 11.8517" stroke="#7F7F7F" stroke-width="4.58333" stroke-linecap="square" stroke-linejoin="round" stroke-miterlimit="10" stroke-dasharray="13.75 4.58333" fill="none" fill-rule="evenodd" transform="matrix(-1 0 0 1 1370.43 1417.5)"/><path d="M1330.5 1355.5 1367.67 1388.64" stroke="#7F7F7F" stroke-width="4.58333" stroke-linecap="square" stroke-linejoin="round" stroke-miterlimit="10" stroke-dasharray="13.75 4.58333" fill="none" fill-rule="evenodd"/><path d="M1367.5 1388.5 1367.5 1417.41" stroke="#7F7F7F" stroke-width="4.58333" stroke-linecap="square" stroke-linejoin="round" stroke-miterlimit="10" stroke-dasharray="13.75 4.58333" fill="none" fill-rule="evenodd"/><path d="M0 0 25.1657 48.7782" stroke="#7F7F7F" stroke-width="4.58333" stroke-linecap="square" stroke-linejoin="round" stroke-miterlimit="10" stroke-dasharray="13.75 4.58333" fill="none" fill-rule="evenodd" transform="matrix(1 0 0 -1 1323.5 1343.28)"/><path d="M1348.5 1294.5 1373.03 1334.89" stroke="#7F7F7F" stroke-width="4.58333" stroke-linecap="square" stroke-linejoin="round" stroke-miterlimit="10" stroke-dasharray="13.75 4.58333" fill="none" fill-rule="evenodd"/><path d="M0 0 50.7765 7.82198" stroke="#7F7F7F" stroke-width="4.58333" stroke-linecap="square" stroke-linejoin="round" stroke-miterlimit="10" stroke-dasharray="13.75 4.58333" fill="none" fill-rule="evenodd" transform="matrix(-1 0 0 1 1374.28 1335.5)"/><path d="M1348.5 1294.5 1373.03 1316.37" stroke="#7F7F7F" stroke-width="4.58333" stroke-linecap="square" stroke-linejoin="round" stroke-miterlimit="10" stroke-dasharray="13.75 4.58333" fill="none" fill-rule="evenodd"/><path d="M1372.5 1316.5 1372.5 1335.58" stroke="#7F7F7F" stroke-width="4.58333" stroke-linecap="square" stroke-linejoin="round" stroke-miterlimit="10" stroke-dasharray="13.75 4.58333" fill="none" fill-rule="evenodd"/><path d="M0 0 19.0652 36.9532" stroke="#7F7F7F" stroke-width="4.58333" stroke-linecap="square" stroke-linejoin="round" stroke-miterlimit="10" stroke-dasharray="13.75 4.58333" fill="none" fill-rule="evenodd" transform="matrix(1 0 0 -1 1376.5 1381.45)"/><path d="M1394.5 1345.5 1413.09 1376.1" stroke="#7F7F7F" stroke-width="4.58333" stroke-linecap="square" stroke-linejoin="round" stroke-miterlimit="10" stroke-dasharray="13.75 4.58333" fill="none" fill-rule="evenodd"/><path d="M0 0 38.4672 5.92585" stroke="#7F7F7F" stroke-width="4.58333" stroke-linecap="square" stroke-linejoin="round" stroke-miterlimit="10" stroke-dasharray="13.75 4.58333" fill="none" fill-rule="evenodd" transform="matrix(-1 0 0 1 1414.97 1375.5)"/><path d="M1394.5 1344.5 1413.09 1361.07" stroke="#7F7F7F" stroke-width="4.58333" stroke-linecap="square" stroke-linejoin="round" stroke-miterlimit="10" stroke-dasharray="13.75 4.58333" fill="none" fill-rule="evenodd"/><path d="M1413.5 1361.5 1413.5 1375.96" stroke="#7F7F7F" stroke-width="4.58333" stroke-linecap="square" stroke-linejoin="round" stroke-miterlimit="10" stroke-dasharray="13.75 4.58333" fill="none" fill-rule="evenodd"/><path d="M618.5 1299.17C618.5 1262.9 647.901 1233.5 684.17 1233.5L1089.83 1233.5C1126.1 1233.5 1155.5 1262.9 1155.5 1299.17L1155.5 1561.84C1155.5 1598.11 1126.1 1627.51 1089.83 1627.51L684.17 1627.51C647.901 1627.51 618.5 1598.11 618.5 1561.84Z" stroke="#7F7F7F" stroke-width="4.58333" stroke-linejoin="round" stroke-miterlimit="10" fill="#FFFFFF" fill-rule="evenodd"/><text fill="#7F7F7F" font-family="Calibri,Calibri_MSFontService,sans-serif" font-weight="400" font-size="73" transform="matrix(1 0 0 1 672.87 1455)">Vehicle Model</text><path d="M1939.5 1298C1939.5 1261.83 1968.83 1232.5 2005 1232.5L2410 1232.5C2446.17 1232.5 2475.5 1261.83 2475.5 1298L2475.5 1560C2475.5 1596.17 2446.17 1625.5 2410 1625.5L2005 1625.5C1968.83 1625.5 1939.5 1596.17 1939.5 1560Z" stroke="#7F7F7F" stroke-width="4.58333" stroke-linejoin="round" stroke-miterlimit="10" fill="#FFFFFF" fill-rule="evenodd"/><text fill="#7F7F7F" font-family="Calibri,Calibri_MSFontService,sans-serif" font-weight="400" font-size="73" transform="matrix(1 0 0 1 2067.36 1409)">AD/ADAS</text><text fill="#7F7F7F" font-family="Calibri,Calibri_MSFontService,sans-serif" font-weight="400" font-size="73" transform="matrix(1 0 0 1 2077.1 1497)">Function</text><path d="M1939.5 782.001C1939.5 745.826 1968.83 716.5 2005 716.5L2410 716.5C2446.17 716.5 2475.5 745.826 2475.5 782.001L2475.5 1044C2475.5 1080.17 2446.17 1109.5 2410 1109.5L2005 1109.5C1968.83 1109.5 1939.5 1080.17 1939.5 1044Z" stroke="#7F7F7F" stroke-width="4.58333" stroke-linejoin="round" stroke-miterlimit="10" fill="#FFFFFF" fill-rule="evenodd"/><text fill="#7F7F7F" font-family="Calibri,Calibri_MSFontService,sans-serif" font-weight="400" font-size="73" transform="matrix(1 0 0 1 2012.07 937)">Logics</text><text fill="#7F7F7F" font-family="Calibri,Calibri_MSFontService,sans-serif" font-weight="400" font-size="73" transform="matrix(1 0 0 1 2209.16 937)">Model</text><path d="M0-2.29167 61.9254-2.29167C63.1911-2.29167 64.2171-1.26565 64.2171 0L64.2171 516.111 61.9254 513.819 100.934 513.819 100.934 518.402 61.9254 518.402C60.6598 518.402 59.6338 517.376 59.6338 516.111L59.6338 0 61.9254 2.29167 0 2.29167ZM96.3503 502.361 123.85 516.111 96.3503 529.861Z" fill="#7F7F7F" transform="matrix(1 0 0 -1 1155.5 912.611)"/><path d="M1155.5 911.208 1217.43 911.208C1218.69 911.208 1219.72 912.234 1219.72 913.5L1219.72 1430.92 1217.43 1428.63 1256.43 1428.63 1256.43 1433.21 1217.43 1433.21C1216.16 1433.21 1215.13 1432.18 1215.13 1430.92L1215.13 913.5 1217.43 915.792 1155.5 915.792ZM1251.85 1417.17 1279.35 1430.92 1251.85 1444.67Z" fill="#7F7F7F"/><path d="M1155.5 911.208 1249.99 911.208 1249.99 915.792 1155.5 915.792ZM1245.41 899.75 1272.91 913.5 1245.41 927.25Z" fill="#7F7F7F"/><path d="M6.67778e-06-2.29167 100.934-2.29137 100.934 2.29196-6.67778e-06 2.29167ZM96.3504-13.7497 123.85 0.000360892 96.3503 13.7503Z" fill="#7F7F7F" transform="matrix(1 0 0 -1 1815.5 912.501)"/><path d="M0-2.29167 61.9254-2.29167C63.1911-2.29167 64.2171-1.26565 64.2171 0L64.2171 517.709 61.9254 515.417 100.934 515.417 100.934 520 61.9254 520C60.6598 520 59.6338 518.974 59.6338 517.709L59.6338 0 61.9254 2.29167 0 2.29167ZM96.3503 503.959 123.85 517.709 96.3503 531.459Z" fill="#7F7F7F" transform="matrix(1 0 0 -1 1815.5 1430.21)"/><path d="M2209.79 1109.5 2209.79 1209.46 2205.21 1209.46 2205.21 1109.5ZM2221.25 1204.88 2207.5 1232.38 2193.75 1204.88Z" fill="#7F7F7F"/><path d="M2210.38 1625.5 2210.38 1643.83 2205.79 1643.83 2205.79 1625.5ZM2210.38 1657.58 2210.38 1675.92 2205.79 1675.92 2205.79 1657.58ZM2210.38 1689.67 2210.38 1708 2205.79 1708 2205.79 1689.67ZM2210.38 1721.75 2210.38 1740.08 2205.79 1740.08 2205.79 1721.75ZM2210.38 1753.83 2210.38 1759.06C2210.38 1760.33 2209.35 1761.36 2208.08 1761.36L2194.98 1761.36 2194.98 1756.77 2208.08 1756.77 2205.79 1759.06 2205.79 1753.83ZM2181.23 1761.36 2162.9 1761.36 2162.9 1756.77 2181.23 1756.77ZM2149.15 1761.36 2130.81 1761.36 2130.81 1756.77 2149.15 1756.77ZM2117.06 1761.36 2098.73 1761.36 2098.73 1756.77 2117.06 1756.77ZM2084.98 1761.36 2066.65 1761.36 2066.65 1756.77 2084.98 1756.77ZM2052.9 1761.36 2034.56 1761.36 2034.56 1756.77 2052.9 1756.77ZM2020.81 1761.36 2002.48 1761.36 2002.48 1756.77 2020.81 1756.77ZM1988.73 1761.36 1970.4 1761.36 1970.4 1756.77 1988.73 1756.77ZM1956.65 1761.36 1938.31 1761.36 1938.31 1756.77 1956.65 1756.77ZM1924.56 1761.36 1906.23 1761.36 1906.23 1756.77 1924.56 1756.77ZM1892.48 1761.36 1874.15 1761.36 1874.15 1756.77 1892.48 1756.77ZM1860.4 1761.36 1842.06 1761.36 1842.06 1756.77 1860.4 1756.77ZM1828.31 1761.36 1809.98 1761.36 1809.98 1756.77 1828.31 1756.77ZM1796.23 1761.36 1777.9 1761.36 1777.9 1756.77 1796.23 1756.77ZM1764.15 1761.36 1745.81 1761.36 1745.81 1756.77 1764.15 1756.77ZM1732.06 1761.36 1713.73 1761.36 1713.73 1756.77 1732.06 1756.77ZM1699.98 1761.36 1681.65 1761.36 1681.65 1756.77 1699.98 1756.77ZM1667.9 1761.36 1649.56 1761.36 1649.56 1756.77 1667.9 1756.77ZM1635.81 1761.36 1617.48 1761.36 1617.48 1756.77 1635.81 1756.77ZM1603.73 1761.36 1585.4 1761.36 1585.4 1756.77 1603.73 1756.77ZM1571.65 1761.36 1553.31 1761.36 1553.31 1756.77 1571.65 1756.77ZM1539.56 1761.36 1521.23 1761.36 1521.23 1756.77 1539.56 1756.77ZM1507.48 1761.36 1489.15 1761.36 1489.15 1756.77 1507.48 1756.77ZM1475.4 1761.36 1457.06 1761.36 1457.06 1756.77 1475.4 1756.77ZM1443.31 1761.36 1424.98 1761.36 1424.98 1756.77 1443.31 1756.77ZM1411.23 1761.36 1392.9 1761.36 1392.9 1756.77 1411.23 1756.77ZM1379.15 1761.36 1360.81 1761.36 1360.81 1756.77 1379.15 1756.77ZM1347.06 1761.36 1328.73 1761.36 1328.73 1756.77 1347.06 1756.77ZM1314.98 1761.36 1296.65 1761.36 1296.65 1756.77 1314.98 1756.77ZM1282.9 1761.36 1264.56 1761.36 1264.56 1756.77 1282.9 1756.77ZM1250.81 1761.36 1232.48 1761.36 1232.48 1756.77 1250.81 1756.77ZM1218.73 1761.36 1200.4 1761.36 1200.4 1756.77 1218.73 1756.77ZM1186.65 1761.36 1168.31 1761.36 1168.31 1756.77 1186.65 1756.77ZM1154.56 1761.36 1136.23 1761.36 1136.23 1756.77 1154.56 1756.77ZM1122.48 1761.36 1104.15 1761.36 1104.15 1756.77 1122.48 1756.77ZM1090.4 1761.36 1072.06 1761.36 1072.06 1756.77 1090.4 1756.77ZM1058.31 1761.36 1039.98 1761.36 1039.98 1756.77 1058.31 1756.77ZM1026.23 1761.36 1007.9 1761.36 1007.9 1756.77 1026.23 1756.77ZM994.148 1761.36 975.815 1761.36 975.815 1756.77 994.148 1756.77ZM962.065 1761.36 943.732 1761.36 943.732 1756.77 962.065 1756.77ZM929.982 1761.36 911.648 1761.36 911.648 1756.77 929.982 1756.77ZM897.898 1761.36 887.5 1761.36C886.234 1761.36 885.208 1760.33 885.208 1759.06L885.208 1751.13 889.792 1751.13 889.792 1759.06 887.5 1756.77 897.898 1756.77ZM885.208 1737.38 885.208 1719.05 889.792 1719.05 889.792 1737.38ZM885.208 1705.3 885.208 1686.96 889.792 1686.96 889.792 1705.3ZM885.208 1673.21 885.208 1654.88 889.792 1654.88 889.792 1673.21ZM873.75 1654.56 887.5 1627.06 901.25 1654.56Z" fill="#7F7F7F"/><path d="M2.29173 22.9167 2.29179 41.25-2.29155 41.25-2.2916 22.9167ZM2.29183 55 2.29188 73.3333-2.29145 73.3333-2.29151 55ZM2.29192 87.0833 2.29196 101.232-2.29137 101.232-2.29141 87.0833ZM-13.7499 27.5 0 0 13.7501 27.5ZM13.7503 96.6484 0.000360892 124.148-13.7497 96.6485Z" fill="#7F7F7F" transform="matrix(1 0 0 -1 887.5 1233.65)"/><path d="M618.5 267.17C618.5 230.901 647.901 201.5 684.17 201.5L1089.83 201.5C1126.1 201.5 1155.5 230.901 1155.5 267.17L1155.5 529.842C1155.5 566.11 1126.1 595.512 1089.83 595.512L684.17 595.512C647.901 595.512 618.5 566.11 618.5 529.842Z" stroke="#7F7F7F" stroke-width="4.58333" stroke-linejoin="round" stroke-miterlimit="10" fill="#FFFFFF" fill-rule="evenodd"/><text fill="#7F7F7F" font-family="Calibri,Calibri_MSFontService,sans-serif" font-weight="400" font-size="73" transform="matrix(1 0 0 1 687.479 423)">Traffic Model</text><path d="M889.792 618.417 889.792 693.86 885.209 693.86 885.208 618.417ZM873.75 623 887.5 595.5 901.25 623ZM901.25 689.277 887.5 716.777 873.75 689.277Z" fill="#7F7F7F"/><text fill="#7F7F7F" font-family="Calibri,Calibri_MSFontService,sans-serif" font-weight="400" font-size="73" transform="matrix(1 0 0 1 2896.05 1267)">3</text><text fill="#7F7F7F" font-family="Calibri,Calibri_MSFontService,sans-serif" font-weight="400" font-size="73" transform="matrix(1 0 0 1 2933.29 1267)">D</text><text fill="#7F7F7F" font-family="Calibri,Calibri_MSFontService,sans-serif" font-weight="400" font-size="73" transform="matrix(1 0 0 1 2995.16 1267)">Models</text><path d="M7.44268e-06-2.29167 18.3333-2.29161 18.3333 2.29173-7.44268e-06 2.29167ZM32.0833-2.29156 50.4167-2.2915 50.4167 2.29183 32.0833 2.29177ZM64.1667-2.29146 82.5-2.2914 82.5 2.29193 64.1667 2.29188ZM83.6221-13.7497 111.122 0.000360892 83.622 13.7503Z" fill="#7F7F7F" transform="matrix(1 0 0 -1 2734.5 1669.5)"/><text fill="#7F7F7F" font-family="Calibri,Calibri_MSFontService,sans-serif" font-weight="400" font-size="73" transform="matrix(1 0 0 1 2896.05 1688)">Proprietary</text><text fill="#7F7F7F" font-family="Calibri,Calibri_MSFontService,sans-serif" font-weight="400" font-size="73" transform="matrix(1 0 0 1 3251.26 1688)">Interface</text><rect x="2721.5" y="947.5" width="102" height="157" stroke="#7F7F7F" stroke-width="4.58333" stroke-linejoin="round" stroke-miterlimit="10" fill="none"/><path d="M0 0 21.437 21.5529" stroke="#7F7F7F" stroke-width="4.58333" stroke-linejoin="round" stroke-miterlimit="10" fill="none" fill-rule="evenodd" transform="matrix(1 0 0 -1 2721.5 969.053)"/><rect x="2742.5" y="967.5" width="103" height="156" stroke="#7F7F7F" stroke-width="4.58333" stroke-linejoin="round" stroke-miterlimit="10" fill="#FFFFFF"/><path d="M0 0 21.437 21.5529" stroke="#7F7F7F" stroke-width="4.58333" stroke-linejoin="round" stroke-miterlimit="10" fill="#FFFFFF" fill-rule="evenodd" transform="matrix(1 0 0 -1 2742.5 988.053)"/><text fill="#7F7F7F" font-family="Calibri,Calibri_MSFontService,sans-serif" font-weight="400" font-size="73" transform="matrix(1 0 0 1 2896.05 1056)">File Format</text><text font-family="Calibri,Calibri_MSFontService,sans-serif" font-weight="400" font-size="73" transform="matrix(1 0 0 1 2962.77 1148)">ASAM </text><text font-family="Calibri,Calibri_MSFontService,sans-serif" font-weight="400" font-size="73" transform="matrix(1 0 0 1 3160.42 1148)">OpenDRIVE</text><text font-family="Calibri,Calibri_MSFontService,sans-serif" font-weight="400" font-size="73" transform="matrix(1 0 0 1 3520.79 1148)">&amp; </text><text font-family="Calibri,Calibri_MSFontService,sans-serif" font-weight="400" font-size="73" transform="matrix(1 0 0 1 3587.24 1148)">OpenSCENARIO</text><text fill="#7F7F7F" font-family="Calibri,Calibri_MSFontService,sans-serif" font-weight="400" font-size="73" transform="matrix(1 0 0 1 2896.05 1478)">Simulation Interface</text><text font-family="Calibri,Calibri_MSFontService,sans-serif" font-weight="400" font-size="73" transform="matrix(1 0 0 1 2962.77 1570)">ASAM Open Simulation Interface (OSI)</text><text font-family="Calibri,Calibri_MSFontService,sans-serif" font-weight="400" font-size="73" transform="matrix(1 0 0 1 2962.77 1361)">OpenMATERIAL</text><path d="M2737.5 1457.21 2822.29 1457.21 2822.29 1461.79 2737.5 1461.79ZM2817.71 1445.75 2845.21 1459.5 2817.71 1473.25Z" fill="#7F7F7F"/><path d="M0 0 38.1301 73.9064" stroke="#7F7F7F" stroke-width="4.58333" stroke-linejoin="round" stroke-miterlimit="10" fill="none" fill-rule="evenodd" transform="matrix(1 0 0 -1 2723.5 1313.41)"/><path d="M2761.5 1240.5 2798.67 1301.7" stroke="#7F7F7F" stroke-width="4.58333" stroke-linejoin="round" stroke-miterlimit="10" fill="none" fill-rule="evenodd"/><path d="M0 0 76.9343 11.8517" stroke="#7F7F7F" stroke-width="4.58333" stroke-linejoin="round" stroke-miterlimit="10" fill="none" fill-rule="evenodd" transform="matrix(-1 0 0 1 2800.43 1301.5)"/><path d="M2761.5 1239.5 2798.67 1272.64" stroke="#7F7F7F" stroke-width="4.58333" stroke-linejoin="round" stroke-miterlimit="10" fill="none" fill-rule="evenodd"/><path d="M2798.5 1272.5 2798.5 1301.41" stroke="#7F7F7F" stroke-width="4.58333" stroke-linejoin="round" stroke-miterlimit="10" fill="none" fill-rule="evenodd"/><path d="M0 0 25.1657 48.7782" stroke="#7F7F7F" stroke-width="4.58333" stroke-linejoin="round" stroke-miterlimit="10" fill="none" fill-rule="evenodd" transform="matrix(1 0 0 -1 2753.5 1227.28)"/><path d="M2778.5 1179.5 2803.03 1219.89" stroke="#7F7F7F" stroke-width="4.58333" stroke-linejoin="round" stroke-miterlimit="10" fill="none" fill-rule="evenodd"/><path d="M0 0 50.7765 7.82198" stroke="#7F7F7F" stroke-width="4.58333" stroke-linejoin="round" stroke-miterlimit="10" fill="none" fill-rule="evenodd" transform="matrix(-1 0 0 1 2804.28 1219.5)"/><path d="M2778.5 1178.5 2803.03 1200.37" stroke="#7F7F7F" stroke-width="4.58333" stroke-linejoin="round" stroke-miterlimit="10" fill="none" fill-rule="evenodd"/><path d="M2803.5 1200.5 2803.5 1219.58" stroke="#7F7F7F" stroke-width="4.58333" stroke-linejoin="round" stroke-miterlimit="10" fill="none" fill-rule="evenodd"/><path d="M0 0 19.0652 36.9532" stroke="#7F7F7F" stroke-width="4.58333" stroke-linejoin="round" stroke-miterlimit="10" fill="none" fill-rule="evenodd" transform="matrix(1 0 0 -1 2806.5 1266.45)"/><path d="M2825.5 1229.5 2844.09 1260.1" stroke="#7F7F7F" stroke-width="4.58333" stroke-linejoin="round" stroke-miterlimit="10" fill="none" fill-rule="evenodd"/><path d="M0 0 38.4672 5.92585" stroke="#7F7F7F" stroke-width="4.58333" stroke-linejoin="round" stroke-miterlimit="10" fill="none" fill-rule="evenodd" transform="matrix(-1 0 0 1 2844.97 1260.5)"/><path d="M2825.5 1229.5 2844.09 1246.07" stroke="#7F7F7F" stroke-width="4.58333" stroke-linejoin="round" stroke-miterlimit="10" fill="none" fill-rule="evenodd"/><path d="M2844.5 1245.5 2844.5 1259.96" stroke="#7F7F7F" stroke-width="4.58333" stroke-linejoin="round" stroke-miterlimit="10" fill="none" fill-rule="evenodd"/><path d="M0 0 38.1301 73.9064" stroke="#7F7F7F" stroke-width="4.58333" stroke-linecap="square" stroke-linejoin="round" stroke-miterlimit="10" stroke-dasharray="13.75 4.58333" fill="none" fill-rule="evenodd" transform="matrix(1 0 0 -1 2584.5 1313.41)"/><path d="M2622.5 1240.5 2659.67 1301.7" stroke="#7F7F7F" stroke-width="4.58333" stroke-linecap="square" stroke-linejoin="round" stroke-miterlimit="10" stroke-dasharray="13.75 4.58333" fill="none" fill-rule="evenodd"/><path d="M0 0 76.9343 11.8517" stroke="#7F7F7F" stroke-width="4.58333" stroke-linecap="square" stroke-linejoin="round" stroke-miterlimit="10" stroke-dasharray="13.75 4.58333" fill="none" fill-rule="evenodd" transform="matrix(-1 0 0 1 2661.43 1301.5)"/><path d="M2622.5 1239.5 2659.67 1272.64" stroke="#7F7F7F" stroke-width="4.58333" stroke-linecap="square" stroke-linejoin="round" stroke-miterlimit="10" stroke-dasharray="13.75 4.58333" fill="none" fill-rule="evenodd"/><path d="M2659.5 1272.5 2659.5 1301.41" stroke="#7F7F7F" stroke-width="4.58333" stroke-linecap="square" stroke-linejoin="round" stroke-miterlimit="10" stroke-dasharray="13.75 4.58333" fill="none" fill-rule="evenodd"/><path d="M0 0 25.1657 48.7782" stroke="#7F7F7F" stroke-width="4.58333" stroke-linecap="square" stroke-linejoin="round" stroke-miterlimit="10" stroke-dasharray="13.75 4.58333" fill="none" fill-rule="evenodd" transform="matrix(1 0 0 -1 2614.5 1227.28)"/><path d="M2639.5 1179.5 2664.03 1219.89" stroke="#7F7F7F" stroke-width="4.58333" stroke-linecap="square" stroke-linejoin="round" stroke-miterlimit="10" stroke-dasharray="13.75 4.58333" fill="none" fill-rule="evenodd"/><path d="M0 0 50.7765 7.82198" stroke="#7F7F7F" stroke-width="4.58333" stroke-linecap="square" stroke-linejoin="round" stroke-miterlimit="10" stroke-dasharray="13.75 4.58333" fill="none" fill-rule="evenodd" transform="matrix(-1 0 0 1 2665.28 1219.5)"/><path d="M2639.5 1178.5 2664.03 1200.37" stroke="#7F7F7F" stroke-width="4.58333" stroke-linecap="square" stroke-linejoin="round" stroke-miterlimit="10" stroke-dasharray="13.75 4.58333" fill="none" fill-rule="evenodd"/><path d="M2664.5 1200.5 2664.5 1219.58" stroke="#7F7F7F" stroke-width="4.58333" stroke-linecap="square" stroke-linejoin="round" stroke-miterlimit="10" stroke-dasharray="13.75 4.58333" fill="none" fill-rule="evenodd"/><path d="M0 0 19.0652 36.9532" stroke="#7F7F7F" stroke-width="4.58333" stroke-linecap="square" stroke-linejoin="round" stroke-miterlimit="10" stroke-dasharray="13.75 4.58333" fill="none" fill-rule="evenodd" transform="matrix(1 0 0 -1 2667.5 1266.45)"/><path d="M2686.5 1229.5 2705.09 1260.1" stroke="#7F7F7F" stroke-width="4.58333" stroke-linecap="square" stroke-linejoin="round" stroke-miterlimit="10" stroke-dasharray="13.75 4.58333" fill="none" fill-rule="evenodd"/><path d="M0 0 38.4672 5.92585" stroke="#7F7F7F" stroke-width="4.58333" stroke-linecap="square" stroke-linejoin="round" stroke-miterlimit="10" stroke-dasharray="13.75 4.58333" fill="none" fill-rule="evenodd" transform="matrix(-1 0 0 1 2705.97 1260.5)"/><path d="M2686.5 1229.5 2705.09 1246.07" stroke="#7F7F7F" stroke-width="4.58333" stroke-linecap="square" stroke-linejoin="round" stroke-miterlimit="10" stroke-dasharray="13.75 4.58333" fill="none" fill-rule="evenodd"/><path d="M2705.5 1245.5 2705.5 1259.96" stroke="#7F7F7F" stroke-width="4.58333" stroke-linecap="square" stroke-linejoin="round" stroke-miterlimit="10" stroke-dasharray="13.75 4.58333" fill="none" fill-rule="evenodd"/></g></svg>