<svg width="1212" height="459" xmlns="http://www.w3.org/2000/svg" xmlns:xlink="http://www.w3.org/1999/xlink" overflow="hidden"><defs><clipPath id="clip0"><rect x="-5" y="57" width="1212" height="459"/></clipPath></defs><g clip-path="url(#clip0)" transform="translate(5 -57)"><rect x="61.5001" y="204.5" width="45" height="69" stroke="#7F7F7F" stroke-width="1.33333" stroke-linejoin="round" stroke-miterlimit="10" fill="none"/><path d="M0 0 9.44882 9.49995" stroke="#7F7F7F" stroke-width="1.33333" stroke-linejoin="round" stroke-miterlimit="10" fill="none" fill-rule="evenodd" transform="matrix(1 0 0 -1 61.5001 214)"/><rect x="70.5001" y="212.5" width="45" height="69" stroke="#7F7F7F" stroke-width="1.33333" stroke-linejoin="round" stroke-miterlimit="10" fill="#FFFFFF"/><path d="M0 0 9.44882 9.49995" stroke="#7F7F7F" stroke-width="1.33333" stroke-linejoin="round" stroke-miterlimit="10" fill="#FFFFFF" fill-rule="evenodd" transform="matrix(1 0 0 -1 70.5001 222)"/><text fill="#7F7F7F" font-family="Calibri,Calibri_MSFontService,sans-serif" font-weight="400" font-size="24" transform="translate(9.93906 314)">Map<tspan x="50.1667" y="0">&amp; Scenario</tspan></text><path d="M372.5 77.6671C372.5 67.0814 381.081 58.5001 391.667 58.5001L509.333 58.5001C519.919 58.5001 528.5 67.0814 528.5 77.6671L528.5 154.333C528.5 164.919 519.919 173.5 509.333 173.5L391.667 173.5C381.081 173.5 372.5 164.919 372.5 154.333Z" stroke="#7F7F7F" stroke-width="1.33333" stroke-linejoin="round" stroke-miterlimit="10" fill="none" fill-rule="evenodd"/><text fill="#7F7F7F" font-family="Calibri,Calibri_MSFontService,sans-serif" font-weight="400" font-size="24" transform="translate(400.518 150)">Rendering</text><path d="M0 0 11.0924 21.5001" stroke="#7F7F7F" stroke-width="1.33333" stroke-linejoin="round" stroke-miterlimit="10" fill="none" fill-rule="evenodd" transform="matrix(1 0 0 -1 377.5 115)"/><path d="M388.5 93.5001 399.314 111.302" stroke="#7F7F7F" stroke-width="1.33333" stroke-linejoin="round" stroke-miterlimit="10" fill="none" fill-rule="evenodd"/><path d="M0 0 22.3809 3.44777" stroke="#7F7F7F" stroke-width="1.33333" stroke-linejoin="round" stroke-miterlimit="10" fill="none" fill-rule="evenodd" transform="matrix(-1 -8.74228e-08 -8.74228e-08 1 399.881 111.5)"/><path d="M388.5 93.5001 399.314 103.141" stroke="#7F7F7F" stroke-width="1.33333" stroke-linejoin="round" stroke-miterlimit="10" fill="none" fill-rule="evenodd"/><path d="M399.5 102.5 399.5 110.911" stroke="#7F7F7F" stroke-width="1.33333" stroke-linejoin="round" stroke-miterlimit="10" fill="none" fill-rule="evenodd"/><path d="M0 0 7.32094 14.19" stroke="#7F7F7F" stroke-width="1.33333" stroke-linejoin="round" stroke-miterlimit="10" fill="none" fill-rule="evenodd" transform="matrix(1 0 0 -1 386.5 89.6901)"/><path d="M393.5 75.5001 400.637 87.2496" stroke="#7F7F7F" stroke-width="1.33333" stroke-linejoin="round" stroke-miterlimit="10" fill="none" fill-rule="evenodd"/><path d="M0 0 14.7713 2.27549" stroke="#7F7F7F" stroke-width="1.33333" stroke-linejoin="round" stroke-miterlimit="10" fill="none" fill-rule="evenodd" transform="matrix(-1 -8.74228e-08 -8.74228e-08 1 401.271 87.5001)"/><path d="M393.5 75.5001 400.637 81.8633" stroke="#7F7F7F" stroke-width="1.33333" stroke-linejoin="round" stroke-miterlimit="10" fill="none" fill-rule="evenodd"/><path d="M400.5 81.5001 400.5 87.0512" stroke="#7F7F7F" stroke-width="1.33333" stroke-linejoin="round" stroke-miterlimit="10" fill="none" fill-rule="evenodd"/><path d="M0 0 5.54625 10.75" stroke="#7F7F7F" stroke-width="1.33333" stroke-linejoin="round" stroke-miterlimit="10" fill="none" fill-rule="evenodd" transform="matrix(1 0 0 -1 401.5 101.25)"/><path d="M406.5 90.5001 411.907 99.4013" stroke="#7F7F7F" stroke-width="1.33333" stroke-linejoin="round" stroke-miterlimit="10" fill="none" fill-rule="evenodd"/><path d="M0 0 11.1904 1.72388" stroke="#7F7F7F" stroke-width="1.33333" stroke-linejoin="round" stroke-miterlimit="10" fill="none" fill-rule="evenodd" transform="matrix(-1 -8.74228e-08 -8.74228e-08 1 412.69 99.5001)"/><path d="M406.5 90.5001 411.907 95.3207" stroke="#7F7F7F" stroke-width="1.33333" stroke-linejoin="round" stroke-miterlimit="10" fill="none" fill-rule="evenodd"/><path d="M412.5 94.5001 412.5 98.7055" stroke="#7F7F7F" stroke-width="1.33333" stroke-linejoin="round" stroke-miterlimit="10" fill="none" fill-rule="evenodd"/><path d="M372.5 227.667C372.5 217.081 381.081 208.5 391.667 208.5L509.333 208.5C519.919 208.5 528.5 217.081 528.5 227.667L528.5 304.333C528.5 314.919 519.919 323.5 509.333 323.5L391.667 323.5C381.081 323.5 372.5 314.919 372.5 304.333Z" stroke="#7F7F7F" stroke-width="1.33333" stroke-linejoin="round" stroke-miterlimit="10" fill="none" fill-rule="evenodd"/><text fill="#7F7F7F" font-family="Calibri,Calibri_MSFontService,sans-serif" font-weight="400" font-size="24" transform="translate(411.818 285)">Physical<tspan x="-28.9333" y="29">Sensor Model</tspan></text><path d="M0 0 11.0924 21.5001" stroke="#7F7F7F" stroke-width="1.33333" stroke-linejoin="round" stroke-miterlimit="10" fill="none" fill-rule="evenodd" transform="matrix(1 0 0 -1 377.5 265)"/><path d="M388.5 243.5 399.314 261.302" stroke="#7F7F7F" stroke-width="1.33333" stroke-linejoin="round" stroke-miterlimit="10" fill="none" fill-rule="evenodd"/><path d="M0 0 22.3809 3.44777" stroke="#7F7F7F" stroke-width="1.33333" stroke-linejoin="round" stroke-miterlimit="10" fill="none" fill-rule="evenodd" transform="matrix(-1 -8.74228e-08 -8.74228e-08 1 399.881 261.5)"/><path d="M388.5 243.5 399.314 253.141" stroke="#7F7F7F" stroke-width="1.33333" stroke-linejoin="round" stroke-miterlimit="10" fill="none" fill-rule="evenodd"/><path d="M398.5 253.5 398.5 261.911" stroke="#7F7F7F" stroke-width="1.33333" stroke-linejoin="round" stroke-miterlimit="10" fill="none" fill-rule="evenodd"/><path d="M0 0 7.32094 14.19" stroke="#7F7F7F" stroke-width="1.33333" stroke-linejoin="round" stroke-miterlimit="10" fill="none" fill-rule="evenodd" transform="matrix(1 0 0 -1 386.5 240.69)"/><path d="M393.5 226.5 400.637 238.25" stroke="#7F7F7F" stroke-width="1.33333" stroke-linejoin="round" stroke-miterlimit="10" fill="none" fill-rule="evenodd"/><path d="M0 0 14.7713 2.27549" stroke="#7F7F7F" stroke-width="1.33333" stroke-linejoin="round" stroke-miterlimit="10" fill="none" fill-rule="evenodd" transform="matrix(-1 -8.74228e-08 -8.74228e-08 1 401.271 238.5)"/><path d="M393.5 226.5 400.637 232.863" stroke="#7F7F7F" stroke-width="1.33333" stroke-linejoin="round" stroke-miterlimit="10" fill="none" fill-rule="evenodd"/><path d="M400.5 232.5 400.5 238.051" stroke="#7F7F7F" stroke-width="1.33333" stroke-linejoin="round" stroke-miterlimit="10" fill="none" fill-rule="evenodd"/><path d="M0 0 5.54625 10.75" stroke="#7F7F7F" stroke-width="1.33333" stroke-linejoin="round" stroke-miterlimit="10" fill="none" fill-rule="evenodd" transform="matrix(1 0 0 -1 401.5 251.25)"/><path d="M406.5 240.5 411.907 249.401" stroke="#7F7F7F" stroke-width="1.33333" stroke-linejoin="round" stroke-miterlimit="10" fill="none" fill-rule="evenodd"/><path d="M0 0 11.1904 1.72388" stroke="#7F7F7F" stroke-width="1.33333" stroke-linejoin="round" stroke-miterlimit="10" fill="none" fill-rule="evenodd" transform="matrix(-1 -8.74228e-08 -8.74228e-08 1 412.69 249.5)"/><path d="M406.5 240.5 411.907 245.321" stroke="#7F7F7F" stroke-width="1.33333" stroke-linejoin="round" stroke-miterlimit="10" fill="none" fill-rule="evenodd"/><path d="M412.5 245.5 412.5 249.706" stroke="#7F7F7F" stroke-width="1.33333" stroke-linejoin="round" stroke-miterlimit="10" fill="none" fill-rule="evenodd"/><text fill="#7F7F7F" font-family="Calibri,Calibri_MSFontService,sans-serif" font-weight="400" font-size="24" transform="translate(195.621 285)">Environment<tspan x="10.6067" y="29">Simulation</tspan></text><path d="M0 0 11.0924 21.5001" stroke="#7F7F7F" stroke-width="1.33333" stroke-linejoin="round" stroke-miterlimit="10" fill="none" fill-rule="evenodd" transform="matrix(1 0 0 -1 185.5 265)"/><path d="M196.5 243.5 207.313 261.302" stroke="#7F7F7F" stroke-width="1.33333" stroke-linejoin="round" stroke-miterlimit="10" fill="none" fill-rule="evenodd"/><path d="M0 0 22.3809 3.44777" stroke="#7F7F7F" stroke-width="1.33333" stroke-linejoin="round" stroke-miterlimit="10" fill="none" fill-rule="evenodd" transform="matrix(-1 -8.74228e-08 -8.74228e-08 1 207.881 261.5)"/><path d="M196.5 243.5 207.313 253.141" stroke="#7F7F7F" stroke-width="1.33333" stroke-linejoin="round" stroke-miterlimit="10" fill="none" fill-rule="evenodd"/><path d="M206.5 252.5 206.5 260.911" stroke="#7F7F7F" stroke-width="1.33333" stroke-linejoin="round" stroke-miterlimit="10" fill="none" fill-rule="evenodd"/><path d="M0 0 7.32094 14.19" stroke="#7F7F7F" stroke-width="1.33333" stroke-linejoin="round" stroke-miterlimit="10" fill="none" fill-rule="evenodd" transform="matrix(1 0 0 -1 193.5 239.69)"/><path d="M201.5 225.5 208.637 237.25" stroke="#7F7F7F" stroke-width="1.33333" stroke-linejoin="round" stroke-miterlimit="10" fill="none" fill-rule="evenodd"/><path d="M0 0 14.7713 2.27549" stroke="#7F7F7F" stroke-width="1.33333" stroke-linejoin="round" stroke-miterlimit="10" fill="none" fill-rule="evenodd" transform="matrix(-1 -8.74228e-08 -8.74228e-08 1 208.271 237.5)"/><path d="M201.5 225.5 208.637 231.863" stroke="#7F7F7F" stroke-width="1.33333" stroke-linejoin="round" stroke-miterlimit="10" fill="none" fill-rule="evenodd"/><path d="M208.5 231.5 208.5 237.051" stroke="#7F7F7F" stroke-width="1.33333" stroke-linejoin="round" stroke-miterlimit="10" fill="none" fill-rule="evenodd"/><path d="M0 0 5.54625 10.75" stroke="#7F7F7F" stroke-width="1.33333" stroke-linejoin="round" stroke-miterlimit="10" fill="none" fill-rule="evenodd" transform="matrix(1 0 0 -1 209.5 251.25)"/><path d="M214.5 240.5 219.907 249.401" stroke="#7F7F7F" stroke-width="1.33333" stroke-linejoin="round" stroke-miterlimit="10" fill="none" fill-rule="evenodd"/><path d="M0 0 11.1904 1.72388" stroke="#7F7F7F" stroke-width="1.33333" stroke-linejoin="round" stroke-miterlimit="10" fill="none" fill-rule="evenodd" transform="matrix(-1 -8.74228e-08 -8.74228e-08 1 220.691 249.5)"/><path d="M214.5 240.5 219.907 245.321" stroke="#7F7F7F" stroke-width="1.33333" stroke-linejoin="round" stroke-miterlimit="10" fill="none" fill-rule="evenodd"/><path d="M220.5 244.5 220.5 248.706" stroke="#7F7F7F" stroke-width="1.33333" stroke-linejoin="round" stroke-miterlimit="10" fill="none" fill-rule="evenodd"/><path d="M180.5 227.667C180.5 217.081 189.081 208.5 199.667 208.5L317.333 208.5C327.919 208.5 336.5 217.081 336.5 227.667L336.5 304.333C336.5 314.919 327.919 323.5 317.333 323.5L199.667 323.5C189.081 323.5 180.5 314.919 180.5 304.333Z" stroke="#7F7F7F" stroke-width="1.33333" stroke-linejoin="round" stroke-miterlimit="10" fill="none" fill-rule="evenodd"/><text fill="#7F7F7F" font-family="Calibri,Calibri_MSFontService,sans-serif" font-weight="400" font-size="24" transform="translate(400.333 437)">Stochastic<tspan x="-18.1667" y="29">Sensor Model</tspan></text><path d="M0 0 11.0924 21.5001" stroke="#7F7F7F" stroke-width="1.33333" stroke-linejoin="round" stroke-miterlimit="10" stroke-dasharray="4 1.33333" fill="none" fill-rule="evenodd" transform="matrix(1 0 0 -1 376.5 416)"/><path d="M387.5 394.5 398.314 412.302" stroke="#7F7F7F" stroke-width="1.33333" stroke-linejoin="round" stroke-miterlimit="10" stroke-dasharray="4 1.33333" fill="none" fill-rule="evenodd"/><path d="M0 0 22.3809 3.44777" stroke="#7F7F7F" stroke-width="1.33333" stroke-linejoin="round" stroke-miterlimit="10" stroke-dasharray="4 1.33333" fill="none" fill-rule="evenodd" transform="matrix(-1 -8.74228e-08 -8.74228e-08 1 398.881 412.5)"/><path d="M387.5 394.5 398.314 404.141" stroke="#7F7F7F" stroke-width="1.33333" stroke-linejoin="round" stroke-miterlimit="10" stroke-dasharray="4 1.33333" fill="none" fill-rule="evenodd"/><path d="M398.5 404.5 398.5 412.911" stroke="#7F7F7F" stroke-width="1.33333" stroke-linejoin="round" stroke-miterlimit="10" stroke-dasharray="4 1.33333" fill="none" fill-rule="evenodd"/><path d="M0 0 7.32094 14.19" stroke="#7F7F7F" stroke-width="1.33333" stroke-linejoin="round" stroke-miterlimit="10" stroke-dasharray="4 1.33333" fill="none" fill-rule="evenodd" transform="matrix(1 0 0 -1 385.5 390.69)"/><path d="M392.5 377.5 399.637 389.25" stroke="#7F7F7F" stroke-width="1.33333" stroke-linejoin="round" stroke-miterlimit="10" stroke-dasharray="4 1.33333" fill="none" fill-rule="evenodd"/><path d="M0 0 14.7713 2.27549" stroke="#7F7F7F" stroke-width="1.33333" stroke-linejoin="round" stroke-miterlimit="10" stroke-dasharray="4 1.33333" fill="none" fill-rule="evenodd" transform="matrix(-1 -8.74228e-08 -8.74228e-08 1 400.271 388.5)"/><path d="M392.5 376.5 399.637 382.863" stroke="#7F7F7F" stroke-width="1.33333" stroke-linejoin="round" stroke-miterlimit="10" stroke-dasharray="4 1.33333" fill="none" fill-rule="evenodd"/><path d="M399.5 383.5 399.5 389.051" stroke="#7F7F7F" stroke-width="1.33333" stroke-linejoin="round" stroke-miterlimit="10" stroke-dasharray="4 1.33333" fill="none" fill-rule="evenodd"/><path d="M0 0 5.54625 10.75" stroke="#7F7F7F" stroke-width="1.33333" stroke-linejoin="round" stroke-miterlimit="10" stroke-dasharray="4 1.33333" fill="none" fill-rule="evenodd" transform="matrix(1 0 0 -1 400.5 402.25)"/><path d="M406.5 391.5 411.907 400.401" stroke="#7F7F7F" stroke-width="1.33333" stroke-linejoin="round" stroke-miterlimit="10" stroke-dasharray="4 1.33333" fill="none" fill-rule="evenodd"/><path d="M0 0 11.1904 1.72388" stroke="#7F7F7F" stroke-width="1.33333" stroke-linejoin="round" stroke-miterlimit="10" stroke-dasharray="4 1.33333" fill="none" fill-rule="evenodd" transform="matrix(-1 -8.74228e-08 -8.74228e-08 1 411.69 400.5)"/><path d="M406.5 391.5 411.907 396.321" stroke="#7F7F7F" stroke-width="1.33333" stroke-linejoin="round" stroke-miterlimit="10" stroke-dasharray="4 1.33333" fill="none" fill-rule="evenodd"/><path d="M411.5 396.5 411.5 400.706" stroke="#7F7F7F" stroke-width="1.33333" stroke-linejoin="round" stroke-miterlimit="10" stroke-dasharray="4 1.33333" fill="none" fill-rule="evenodd"/><path d="M372.5 378.5C372.5 368.007 381.007 359.5 391.5 359.5L509.5 359.5C519.993 359.5 528.5 368.007 528.5 378.5L528.5 454.5C528.5 464.993 519.993 473.5 509.5 473.5L391.5 473.5C381.007 473.5 372.5 464.993 372.5 454.5Z" stroke="#7F7F7F" stroke-width="1.33333" stroke-linejoin="round" stroke-miterlimit="10" fill="none" fill-rule="evenodd"/><path d="M180.5 378.5C180.5 368.007 189.007 359.5 199.5 359.5L317.5 359.5C327.993 359.5 336.5 368.007 336.5 378.5L336.5 454.5C336.5 464.993 327.993 473.5 317.5 473.5L199.5 473.5C189.007 473.5 180.5 464.993 180.5 454.5Z" stroke="#7F7F7F" stroke-width="1.33333" stroke-linejoin="round" stroke-miterlimit="10" fill="none" fill-rule="evenodd"/><text fill="#7F7F7F" font-family="Calibri,Calibri_MSFontService,sans-serif" font-weight="400" font-size="24" transform="translate(188.341 424)">Vehicle Model</text><path d="M564.5 377.667C564.5 367.081 573.081 358.5 583.667 358.5L701.333 358.5C711.919 358.5 720.5 367.081 720.5 377.667L720.5 454.333C720.5 464.919 711.919 473.5 701.333 473.5L583.667 473.5C573.081 473.5 564.5 464.919 564.5 454.333Z" stroke="#7F7F7F" stroke-width="1.33333" stroke-linejoin="round" stroke-miterlimit="10" fill="none" fill-rule="evenodd"/><text fill="#7F7F7F" font-family="Calibri,Calibri_MSFontService,sans-serif" font-weight="400" font-size="24" transform="translate(596.924 409)">AD/ADAS<tspan x="2.49329" y="29">Function</tspan></text><path d="M564.5 227.667C564.5 217.081 573.081 208.5 583.667 208.5L701.333 208.5C711.919 208.5 720.5 217.081 720.5 227.667L720.5 304.333C720.5 314.919 711.919 323.5 701.333 323.5L583.667 323.5C573.081 323.5 564.5 314.919 564.5 304.333Z" stroke="#7F7F7F" stroke-width="1.33333" stroke-linejoin="round" stroke-miterlimit="10" fill="none" fill-rule="evenodd"/><text fill="#7F7F7F" font-family="Calibri,Calibri_MSFontService,sans-serif" font-weight="400" font-size="24" transform="translate(578.081 273)">Logics<tspan x="64.6666" y="0">Model</tspan></text><path d="M0-0.666667 18.0147-0.666667C18.3829-0.666667 18.6813-0.36819 18.6813 0L18.6813 150.141 18.0147 149.475 29.3625 149.475 29.3625 150.808 18.0147 150.808C17.6465 150.808 17.348 150.509 17.348 150.141L17.348 0 18.0147 0.666667 0 0.666667ZM28.0292 146.141 36.0292 150.141 28.0292 154.141Z" fill="#7F7F7F" transform="matrix(1 0 0 -1 336.5 265.641)"/><path d="M336.5 264.833 354.515 264.833C354.883 264.833 355.181 265.132 355.181 265.5L355.181 416.022 354.515 415.355 365.863 415.355 365.863 416.689 354.515 416.689C354.146 416.689 353.848 416.39 353.848 416.022L353.848 265.5 354.515 266.167 336.5 266.167ZM364.529 412.022 372.529 416.022 364.529 420.022Z" fill="#7F7F7F"/><path d="M336.5 264.833 363.989 264.833 363.989 266.167 336.5 266.167ZM362.656 261.5 370.656 265.5 362.656 269.5Z" fill="#7F7F7F"/><path d="M1.94263e-06-0.666667 29.3625-0.666581 29.3625 0.666752-1.94263e-06 0.666667ZM28.0292-3.99992 36.0292 0.000104987 28.0292 4.00008Z" fill="#7F7F7F" transform="matrix(1 0 0 -1 528.5 265.5)"/><path d="M0-0.666667 18.0147-0.666667C18.3829-0.666667 18.6813-0.36819 18.6813 0L18.6813 150.606 18.0147 149.94 29.3625 149.94 29.3625 151.273 18.0147 151.273C17.6465 151.273 17.348 150.974 17.348 150.606L17.348 0 18.0147 0.666667 0 0.666667ZM28.0292 146.606 36.0292 150.606 28.0292 154.606Z" fill="#7F7F7F" transform="matrix(1 0 0 -1 528.5 416.106)"/><path d="M643.167 323.5 643.167 352.579 641.833 352.579 641.833 323.5ZM646.5 351.246 642.5 359.246 638.5 351.246Z" fill="#7F7F7F"/><path d="M643.337 473.5 643.337 478.833 642.003 478.833 642.003 473.5ZM643.337 482.833 643.337 488.167 642.003 488.167 642.003 482.833ZM643.337 492.167 643.337 497.5 642.003 497.5 642.003 492.167ZM643.337 501.5 643.337 506.833 642.003 506.833 642.003 501.5ZM643.337 510.833 643.337 512.355C643.337 512.723 643.038 513.022 642.67 513.022L638.858 513.022 638.858 511.688 642.67 511.688 642.003 512.355 642.003 510.833ZM634.858 513.022 629.525 513.022 629.525 511.688 634.858 511.688ZM625.525 513.022 620.192 513.022 620.192 511.688 625.525 511.688ZM616.192 513.022 610.858 513.022 610.858 511.688 616.192 511.688ZM606.858 513.022 601.525 513.022 601.525 511.688 606.858 511.688ZM597.525 513.022 592.192 513.022 592.192 511.688 597.525 511.688ZM588.192 513.022 582.858 513.022 582.858 511.688 588.192 511.688ZM578.858 513.022 573.525 513.022 573.525 511.688 578.858 511.688ZM569.525 513.022 564.192 513.022 564.192 511.688 569.525 511.688ZM560.192 513.022 554.858 513.022 554.858 511.688 560.192 511.688ZM550.858 513.022 545.525 513.022 545.525 511.688 550.858 511.688ZM541.525 513.022 536.192 513.022 536.192 511.688 541.525 511.688ZM532.192 513.022 526.858 513.022 526.858 511.688 532.192 511.688ZM522.858 513.022 517.525 513.022 517.525 511.688 522.858 511.688ZM513.525 513.022 508.192 513.022 508.192 511.688 513.525 511.688ZM504.192 513.022 498.858 513.022 498.858 511.688 504.192 511.688ZM494.858 513.022 489.525 513.022 489.525 511.688 494.858 511.688ZM485.525 513.022 480.192 513.022 480.192 511.688 485.525 511.688ZM476.192 513.022 470.858 513.022 470.858 511.688 476.192 511.688ZM466.858 513.022 461.525 513.022 461.525 511.688 466.858 511.688ZM457.525 513.022 452.192 513.022 452.192 511.688 457.525 511.688ZM448.192 513.022 442.858 513.022 442.858 511.688 448.192 511.688ZM438.858 513.022 433.525 513.022 433.525 511.688 438.858 511.688ZM429.525 513.022 424.192 513.022 424.192 511.688 429.525 511.688ZM420.192 513.022 414.858 513.022 414.858 511.688 420.192 511.688ZM410.858 513.022 405.525 513.022 405.525 511.688 410.858 511.688ZM401.525 513.022 396.192 513.022 396.192 511.688 401.525 511.688ZM392.192 513.022 386.858 513.022 386.858 511.688 392.192 511.688ZM382.858 513.022 377.525 513.022 377.525 511.688 382.858 511.688ZM373.525 513.022 368.192 513.022 368.192 511.688 373.525 511.688ZM364.192 513.022 358.858 513.022 358.858 511.688 364.192 511.688ZM354.858 513.022 349.525 513.022 349.525 511.688 354.858 511.688ZM345.525 513.022 340.192 513.022 340.192 511.688 345.525 511.688ZM336.192 513.022 330.858 513.022 330.858 511.688 336.192 511.688ZM326.858 513.022 321.525 513.022 321.525 511.688 326.858 511.688ZM317.525 513.022 312.192 513.022 312.192 511.688 317.525 511.688ZM308.192 513.022 302.858 513.022 302.858 511.688 308.192 511.688ZM298.858 513.022 293.525 513.022 293.525 511.688 298.858 511.688ZM289.525 513.022 284.192 513.022 284.192 511.688 289.525 511.688ZM280.192 513.022 274.858 513.022 274.858 511.688 280.192 511.688ZM270.858 513.022 265.525 513.022 265.525 511.688 270.858 511.688ZM261.525 513.022 258.5 513.022C258.132 513.022 257.833 512.723 257.833 512.355L257.833 510.047 259.167 510.047 259.167 512.355 258.5 511.688 261.525 511.688ZM257.833 506.047 257.833 500.713 259.167 500.713 259.167 506.047ZM257.833 496.713 257.833 491.38 259.167 491.38 259.167 496.713ZM257.833 487.38 257.833 482.047 259.167 482.047 259.167 487.38ZM254.5 481.955 258.5 473.955 262.5 481.955Z" fill="#7F7F7F"/><path d="M0.666686 6.66666 0.666701 12-0.666632 12-0.666647 6.66667ZM0.666713 16 0.666729 21.3333-0.666605 21.3333-0.66662 16ZM0.66674 25.3333 0.666752 29.4492-0.666581 29.4492-0.666593 25.3333ZM-3.99998 8.00001 0 0 4.00002 7.99999ZM4.00008 28.1159 0.000104987 36.1159-3.99992 28.1159Z" fill="#7F7F7F" transform="matrix(1 0 0 -1 258.5 359.616)"/><path d="M180.5 78.5004C180.5 68.0068 189.007 59.5001 199.5 59.5001L317.5 59.5001C327.993 59.5001 336.5 68.0068 336.5 78.5004L336.5 154.5C336.5 164.993 327.993 173.5 317.5 173.5L199.5 173.5C189.007 173.5 180.5 164.993 180.5 154.5Z" stroke="#7F7F7F" stroke-width="1.33333" stroke-linejoin="round" stroke-miterlimit="10" fill="none" fill-rule="evenodd"/><text fill="#7F7F7F" font-family="Calibri,Calibri_MSFontService,sans-serif" font-weight="400" font-size="24" transform="translate(193.754 123)">Traffic Model</text><path d="M259.167 180.167 259.167 202.114 257.833 202.114 257.833 180.167ZM254.5 181.5 258.5 173.5 262.5 181.5ZM262.5 200.781 258.5 208.781 254.5 200.781Z" fill="#7F7F7F"/><text fill="#7F7F7F" font-family="Calibri,Calibri_MSFontService,sans-serif" font-weight="400" font-size="24" transform="translate(843.172 372)">3<tspan x="12.1666" y="0">D</tspan><tspan x="32.5" y="0">Models</tspan></text><path d="M2.16514e-06-0.666667 5.33334-0.666649 5.33333 0.666684-2.16514e-06 0.666667ZM9.33334-0.666636 14.6667-0.666619 14.6667 0.666714 9.33333 0.666697ZM18.6667-0.666606 24-0.666589 24 0.666745 18.6667 0.666727ZM24.3264-3.99992 32.3264 0.000104987 24.3264 4.00008Z" fill="#7F7F7F" transform="matrix(1 0 0 -1 796.5 487.5)"/><text fill="#7F7F7F" font-family="Calibri,Calibri_MSFontService,sans-serif" font-weight="400" font-size="24" transform="translate(843.172 494)">Proprietary<tspan x="115.313" y="0">Interface</tspan></text><rect x="792.5" y="277.5" width="30" height="45" stroke="#7F7F7F" stroke-width="1.33333" stroke-linejoin="round" stroke-miterlimit="10" fill="none"/><path d="M0 0 6.23622 6.26992" stroke="#7F7F7F" stroke-width="1.33333" stroke-linejoin="round" stroke-miterlimit="10" fill="none" fill-rule="evenodd" transform="matrix(1 0 0 -1 792.5 283.77)"/><rect x="798.5" y="282.5" width="30" height="46" stroke="#7F7F7F" stroke-width="1.33333" stroke-linejoin="round" stroke-miterlimit="10" fill="#FFFFFF"/><path d="M0 0 6.23622 6.26992" stroke="#7F7F7F" stroke-width="1.33333" stroke-linejoin="round" stroke-miterlimit="10" fill="#FFFFFF" fill-rule="evenodd" transform="matrix(1 0 0 -1 798.5 288.77)"/><text fill="#7F7F7F" font-family="Calibri,Calibri_MSFontService,sans-serif" font-weight="400" font-size="24" transform="translate(843.172 310)">File Format<tspan fill="#000000" font-size="21" x="19.409" y="32">ASAM </tspan><tspan fill="#000000" font-size="21" x="76.7557" y="32">OpenDRIVE</tspan><tspan fill="#000000" font-size="21" x="181.589" y="32">&amp; </tspan><tspan fill="#000000" font-size="21" x="200.922" y="32">OpenSCENARIO</tspan><tspan x="0" y="123">Simulation Interface</tspan><tspan fill="#000000" font-size="21" x="19.409" y="151">ASAM Open Simulation Interface (OSI)</tspan><tspan fill="#000000" font-size="21" x="19.409" y="91">OpenMATERIAL</tspan></text><path d="M797.5 425.833 822.167 425.833 822.167 427.167 797.5 427.167ZM820.833 422.5 828.833 426.5 820.833 430.5Z" fill="#7F7F7F"/><path d="M0 0 11.0924 21.5001" stroke="#7F7F7F" stroke-width="1.33333" stroke-linejoin="round" stroke-miterlimit="10" fill="none" fill-rule="evenodd" transform="matrix(1 0 0 -1 793.5 384)"/><path d="M804.5 362.5 815.313 380.302" stroke="#7F7F7F" stroke-width="1.33333" stroke-linejoin="round" stroke-miterlimit="10" fill="none" fill-rule="evenodd"/><path d="M0 0 22.3809 3.44777" stroke="#7F7F7F" stroke-width="1.33333" stroke-linejoin="round" stroke-miterlimit="10" fill="none" fill-rule="evenodd" transform="matrix(-1 -8.74228e-08 -8.74228e-08 1 815.881 380.5)"/><path d="M804.5 362.5 815.313 372.141" stroke="#7F7F7F" stroke-width="1.33333" stroke-linejoin="round" stroke-miterlimit="10" fill="none" fill-rule="evenodd"/><path d="M815.5 371.5 815.5 379.911" stroke="#7F7F7F" stroke-width="1.33333" stroke-linejoin="round" stroke-miterlimit="10" fill="none" fill-rule="evenodd"/><path d="M0 0 7.32094 14.19" stroke="#7F7F7F" stroke-width="1.33333" stroke-linejoin="round" stroke-miterlimit="10" fill="none" fill-rule="evenodd" transform="matrix(1 0 0 -1 802.5 358.69)"/><path d="M809.5 344.5 816.637 356.25" stroke="#7F7F7F" stroke-width="1.33333" stroke-linejoin="round" stroke-miterlimit="10" fill="none" fill-rule="evenodd"/><path d="M0 0 14.7713 2.27549" stroke="#7F7F7F" stroke-width="1.33333" stroke-linejoin="round" stroke-miterlimit="10" fill="none" fill-rule="evenodd" transform="matrix(-1 -8.74228e-08 -8.74228e-08 1 817.271 356.5)"/><path d="M809.5 344.5 816.637 350.863" stroke="#7F7F7F" stroke-width="1.33333" stroke-linejoin="round" stroke-miterlimit="10" fill="none" fill-rule="evenodd"/><path d="M816.5 350.5 816.5 356.051" stroke="#7F7F7F" stroke-width="1.33333" stroke-linejoin="round" stroke-miterlimit="10" fill="none" fill-rule="evenodd"/><path d="M0 0 5.54625 10.75" stroke="#7F7F7F" stroke-width="1.33333" stroke-linejoin="round" stroke-miterlimit="10" fill="none" fill-rule="evenodd" transform="matrix(1 0 0 -1 817.5 370.25)"/><path d="M823.5 359.5 828.907 368.401" stroke="#7F7F7F" stroke-width="1.33333" stroke-linejoin="round" stroke-miterlimit="10" fill="none" fill-rule="evenodd"/><path d="M0 0 11.1904 1.72388" stroke="#7F7F7F" stroke-width="1.33333" stroke-linejoin="round" stroke-miterlimit="10" fill="none" fill-rule="evenodd" transform="matrix(-1 -8.74228e-08 -8.74228e-08 1 828.69 368.5)"/><path d="M823.5 359.5 828.907 364.321" stroke="#7F7F7F" stroke-width="1.33333" stroke-linejoin="round" stroke-miterlimit="10" fill="none" fill-rule="evenodd"/><path d="M828.5 364.5 828.5 368.706" stroke="#7F7F7F" stroke-width="1.33333" stroke-linejoin="round" stroke-miterlimit="10" fill="none" fill-rule="evenodd"/><path d="M0 0 11.0924 21.5001" stroke="#7F7F7F" stroke-width="1.33333" stroke-linejoin="round" stroke-miterlimit="10" stroke-dasharray="4 1.33333" fill="none" fill-rule="evenodd" transform="matrix(1 0 0 -1 752.5 384)"/><path d="M763.5 362.5 774.313 380.302" stroke="#7F7F7F" stroke-width="1.33333" stroke-linejoin="round" stroke-miterlimit="10" stroke-dasharray="4 1.33333" fill="none" fill-rule="evenodd"/><path d="M0 0 22.3809 3.44777" stroke="#7F7F7F" stroke-width="1.33333" stroke-linejoin="round" stroke-miterlimit="10" stroke-dasharray="4 1.33333" fill="none" fill-rule="evenodd" transform="matrix(-1 -8.74228e-08 -8.74228e-08 1 774.881 380.5)"/><path d="M763.5 362.5 774.313 372.141" stroke="#7F7F7F" stroke-width="1.33333" stroke-linejoin="round" stroke-miterlimit="10" stroke-dasharray="4 1.33333" fill="none" fill-rule="evenodd"/><path d="M774.5 371.5 774.5 379.911" stroke="#7F7F7F" stroke-width="1.33333" stroke-linejoin="round" stroke-miterlimit="10" stroke-dasharray="4 1.33333" fill="none" fill-rule="evenodd"/><path d="M0 0 7.32094 14.19" stroke="#7F7F7F" stroke-width="1.33333" stroke-linejoin="round" stroke-miterlimit="10" stroke-dasharray="4 1.33333" fill="none" fill-rule="evenodd" transform="matrix(1 0 0 -1 761.5 358.69)"/><path d="M768.5 344.5 775.637 356.25" stroke="#7F7F7F" stroke-width="1.33333" stroke-linejoin="round" stroke-miterlimit="10" stroke-dasharray="4 1.33333" fill="none" fill-rule="evenodd"/><path d="M0 0 14.7713 2.27549" stroke="#7F7F7F" stroke-width="1.33333" stroke-linejoin="round" stroke-miterlimit="10" stroke-dasharray="4 1.33333" fill="none" fill-rule="evenodd" transform="matrix(-1 -8.74228e-08 -8.74228e-08 1 776.271 356.5)"/><path d="M768.5 344.5 775.637 350.863" stroke="#7F7F7F" stroke-width="1.33333" stroke-linejoin="round" stroke-miterlimit="10" stroke-dasharray="4 1.33333" fill="none" fill-rule="evenodd"/><path d="M776.5 350.5 776.5 356.051" stroke="#7F7F7F" stroke-width="1.33333" stroke-linejoin="round" stroke-miterlimit="10" stroke-dasharray="4 1.33333" fill="none" fill-rule="evenodd"/><path d="M0 0 5.54625 10.75" stroke="#7F7F7F" stroke-width="1.33333" stroke-linejoin="round" stroke-miterlimit="10" stroke-dasharray="4 1.33333" fill="none" fill-rule="evenodd" transform="matrix(1 0 0 -1 777.5 370.25)"/><path d="M782.5 359.5 787.907 368.401" stroke="#7F7F7F" stroke-width="1.33333" stroke-linejoin="round" stroke-miterlimit="10" stroke-dasharray="4 1.33333" fill="none" fill-rule="evenodd"/><path d="M0 0 11.1904 1.72388" stroke="#7F7F7F" stroke-width="1.33333" stroke-linejoin="round" stroke-miterlimit="10" stroke-dasharray="4 1.33333" fill="none" fill-rule="evenodd" transform="matrix(-1 -8.74228e-08 -8.74228e-08 1 788.69 368.5)"/><path d="M782.5 359.5 787.907 364.321" stroke="#7F7F7F" stroke-width="1.33333" stroke-linejoin="round" stroke-miterlimit="10" stroke-dasharray="4 1.33333" fill="none" fill-rule="evenodd"/><path d="M787.5 364.5 787.5 368.706" stroke="#7F7F7F" stroke-width="1.33333" stroke-linejoin="round" stroke-miterlimit="10" stroke-dasharray="4 1.33333" fill="none" fill-rule="evenodd"/></g></svg>