{
    "asset" : {
        "generator" : "Khronos Blender glTF 2.0 I/O",
        "copyright" : "(C) 2019, Bayerische Motoren Werke Aktiengesellschaft (BMW AG)",
        "version" : "2.0",
        "extensions": {
            "OpenMaterial_asset_info": {
                "asset_type": "geometry",
                "id": "7aa7d4fc8878436fb992e8b51dfcb875",
                "title": "aluminium cube",
                "asset_version": "1",
                "asset_variation": "1",
                "creator": "Bayerische Motoren Werke Aktiengesellschaft (BMW AG)",
                "description": "cube with aluminium as material",
                "creation_date": "2019.04.03. 11:04:00"
            }
        }
    },
    "scene" : 0,
    "scenes" : [
        {
            "name" : "Scene",
            "nodes" : [
                0
            ]
        }
    ],
    "nodes" : [
        {
            "name" : "Cube",
            "mesh" : 0
        }
    ],
    "materials" : [
        {
            "name" : "aluminum",
            "extensions": {
                "OpenMaterial_reference_link": {
                    "id": "732973391cef405c833d8b9d3598328d",
                    "title": "aluminium",
                    "uri": "../materials/aluminium.gltf"
                }
            }
        }
    ],
    "meshes" : [
        {
            "name" : "Cube",
            "primitives" : [
                {
                    "attributes" : {
                        "NORMAL" : 2,
                        "POSITION" : 1
                    },
                    "indices" : 0,
                    "material" : 0
                }
            ]
        }       
    ],
    "accessors" : [
        {
            "bufferView" : 0,
            "componentType" : 5125,
            "count" : 367236,
            "max" : [
                78091
            ],
            "min" : [
                0
            ],
            "type" : "SCALAR"
        },
        {
            "bufferView" : 1,
            "componentType" : 5126,
            "count" : 78092,
            "max" : [
                1.0000004768371582,
                1.0,
                1.0000005960464478
            ],
            "min" : [
                -1.0000003576278687,
                -1.0,
                -1.0000003576278687
            ],
            "type" : "VEC3"
        },
        {
            "bufferView" : 2,
            "componentType" : 5126,
            "count" : 78092,
            "max" : [
                1.0,
                1.0,
                1.0
            ],
            "min" : [
                -1.0,
                -1.0,
                -1.0
            ],
            "type" : "VEC3"
        }        
    ],
    "bufferViews" : [
        {
            "buffer" : 0,
            "byteLength" : 1468944,
            "byteOffset" : 0,
            "target" : 34963
        },
        {
            "buffer" : 0,
            "byteLength" : 937104,
            "byteOffset" : 1468944,
            "target" : 34962
        },
        {
            "buffer" : 0,
            "byteLength" : 937104,
            "byteOffset" : 2406048,
            "target" : 34962
        }      
    ],
    "buffers" : [
        {
            "byteLength" : 3343152,
            "uri" : "data/cubeEnriched.bin"
        }
    ],
    "extensionsUsed": [
        "OpenMaterial_asset_info",
        "OpenMaterial_reference_link"
    ]
}
