{
    "asset" : {
        "generator" : "Khronos Blender glTF 2.0 I/O",
        "copyright" : "(C) 2023, Bayerische Motoren Werke Aktiengesellschaft (BMW AG)",
        "version" : "2.0",
        "extensions": {
            "OpenMaterial_asset_info": {
                "asset_type": "geometry",
                "id": "91502f3e-6839-404f-9ea2-0e7640b82032",
                "title": "gold cube",
                "asset_version": "1",
                "asset_variation": "1",
                "creator": "Bayerische Motoren Werke Aktiengesellschaft (BMW AG)",
                "description": "cube with gold as PBR material and OpenMATERIAL material",
                "creation_date": "2023.04.14. 09:26:00"
            }
        }
    },
    "scene" : 0,
    "scenes" : [
        {
            "name" : "Scene",
            "nodes" : [
                0
            ]
        }
    ],
    "nodes" : [
        {
            "mesh" : 0,
            "name" : "Cube"
        }
    ],
    "materials" : [
        {
            "doubleSided" : true,
            "emissiveFactor" : [
                0,
                0,
                0
            ],
            "name" : "Gold",
            "pbrMetallicRoughness" : {
                "baseColorFactor" : [
                    0.8999999761581421,
                    0.30000001192092896,
                    0,
                    1
                ],
                "metallicFactor" : 1,
                "roughnessFactor" : 0.05000000074505806
            },
            "extensions": {
                "OpenMaterial_reference_link": {
                    "id": "14a26d5676f611e9bce963d67eb64759",
                    "title": "gold",
                    "uri": "../materials/gold.gltf"
                }
            }
        }
    ],
    "meshes" : [
        {
            "name" : "Cube",
            "primitives" : [
                {
                    "attributes" : {
                        "POSITION" : 0,
                        "NORMAL" : 1,
                        "TEXCOORD_0" : 2
                    },
                    "indices" : 3,
                    "material" : 0
                }
            ]
        }
    ],
    "accessors" : [
        {
            "bufferView" : 0,
            "componentType" : 5126,
            "count" : 24,
            "max" : [
                1,
                1,
                1
            ],
            "min" : [
                -1,
                -1,
                -1
            ],
            "type" : "VEC3"
        },
        {
            "bufferView" : 1,
            "componentType" : 5126,
            "count" : 24,
            "type" : "VEC3"
        },
        {
            "bufferView" : 2,
            "componentType" : 5126,
            "count" : 24,
            "type" : "VEC2"
        },
        {
            "bufferView" : 3,
            "componentType" : 5123,
            "count" : 36,
            "type" : "SCALAR"
        }
    ],
    "bufferViews" : [
        {
            "buffer" : 0,
            "byteLength" : 288,
            "byteOffset" : 0
        },
        {
            "buffer" : 0,
            "byteLength" : 288,
            "byteOffset" : 288
        },
        {
            "buffer" : 0,
            "byteLength" : 192,
            "byteOffset" : 576
        },
        {
            "buffer" : 0,
            "byteLength" : 72,
            "byteOffset" : 768
        }
    ],
    "buffers" : [
        {
            "byteLength" : 840,
            "uri" : "data/cube_pbr_gold.bin"
        }
    ],
    "extensionsUsed": [
        "OpenMaterial_asset_info",
        "OpenMaterial_reference_link"
    ]
}
