{
    "asset" : {
        "generator" : "Khronos Blender glTF 2.0 I/O",
        "copyright" : "(C) 2019, Bayerische Motoren Werke Aktiengesellschaft (BMW AG)",
        "version" : "2.0",
        "extensions": {
            "OpenMaterial_asset_info": {
                "asset_type": "geometry",
                "id": "32cc2b34984a47228ddc555e13f1cb8f",
                "title": "aluminium sphere",
                "asset_version": "1",
                "asset_variation": "1",
                "creator": "Bayerische Motoren Werke Aktiengesellschaft (BMW AG)",
                "description": "sphere with aluminium as material",
                "creation_date": "2019.06.19. 14:50:00"
            }
        }
    },
    "scene" : 0,
    "scenes" : [
        {
            "name" : "Scene",
            "nodes" : [
                0
            ]
        }
    ],
    "nodes" : [
        {
            "mesh" : 0,
            "name" : "Sphere"
        }
    ],
    "materials": [
        {
            "name" : "aluminium",
            "extensions": {
                "OpenMaterial_reference_link": {
                    "id": "732973391cef405c833d8b9d3598328d",
                    "title": "aluminium_demo",
                    "uri": "../materials/aluminium.gltf"
                }
            }
        }
    ],
    "meshes" : [
        {
            "name" : "Basic_Sphere",
            "primitives" : [
                {
                    "attributes" : {
                        "NORMAL" : 2,
                        "POSITION" : 1
                    },
                    "indices" : 0,
                    "material" : 0
                }
            ]
        }
    ],
    "accessors" : [
        {
            "bufferView" : 0,
            "componentType" : 5125,
            "count" : 2759049,
            "max" : [
                460066
            ],
            "min" : [
                0
            ],
            "type" : "SCALAR"
        },
        {
            "bufferView" : 1,
            "componentType" : 5126,
            "count" : 460067,
            "max" : [
                1.0000133514404297,
                1.0,
                1.000026822090149
            ],
            "min" : [
                -1.0000216960906982,
                -1.0,
                -1.0000165700912476
            ],
            "type" : "VEC3"
        },
        {
            "bufferView" : 2,
            "componentType" : 5126,
            "count" : 460067,
            "max" : [
                0.999969482421875,
                0.999969482421875,
                1.0
            ],
            "min" : [
                -1.0,
                -1.0,
                -0.999969482421875
            ],
            "type" : "VEC3"
        }
    ],
    "bufferViews" : [
        {
            "buffer" : 0,
            "byteLength" : 11036196,
            "byteOffset" : 0,
            "target" : 34963
        },
        {
            "buffer" : 0,
            "byteLength" : 5520804,
            "byteOffset" : 11036196,
            "target" : 34962
        },
        {
            "buffer" : 0,
            "byteLength" : 5520804,
            "byteOffset" : 16557000,
            "target" : 34962
        }
    ],
    "buffers" : [
        {
            "byteLength" : 22077804,
            "uri" : "data/sphereEnriched.bin"
        }
    ],
    "extensionsUsed": [
        "OpenMaterial_asset_info",
        "OpenMaterial_reference_link"
    ]
}
