{
    "asset" : {
        "generator" : "Khronos Blender glTF 2.0 I/O",
        "copyright" : "(C) 2019, Bayerische Motoren Werke Aktiengesellschaft (BMW AG)",
        "version" : "2.0",
        "extensions": {
            "OpenMaterial_asset_info": {
                "asset_type": "geometry",
                "id": "cfcf73ea837511e9a20893854fb0f275",
                "title": "aluminium sphere",
                "asset_version": "1",
                "asset_variation": "1",
                "creator": "Bayerische Motoren Werke Aktiengesellschaft (BMW AG)",
                "description": "sphere with aluminium as material",
                "creation_date": "2019.05.31. 09:29:00"
            }
        }
    },
    "scene" : 0,
    "scenes" : [
        {
            "name" : "Scene",
            "nodes" : [
                0
            ]
        }
    ],
    "nodes" : [
        {
            "mesh" : 0,
            "name" : "sphere"
        }
    ],
    "materials": [
        {
            "name" : "aluminium",
            "extensions": {
                "OpenMaterial_reference_link": {
                    "id": "fe7d707050e545f19f2658ecacb6ac5e",
                    "title": "aluminium_demo",
                    "uri": "../materials/aluminium.gltf"
                }
            }
        }
    ],
    "meshes" : [
        {
            "name" : "sphere",
            "primitives" : [
                {
                    "attributes" : {
                        "POSITION" : 0,
                        "NORMAL" : 1,
                        "TEXCOORD_0" : 2
                    },
                    "indices" : 3,
                    "material": 0
                }
            ]
        }
    ],
    "accessors" : [
        {
            "bufferView" : 0,
            "componentType" : 5126,
            "count" : 559,
            "max" : [
                1.000000238418579,
                1,
                1.0000003576278687
            ],
            "min" : [
                -0.9999998211860657,
                -1,
                -1
            ],
            "type" : "VEC3"
        },
        {
            "bufferView" : 1,
            "componentType" : 5126,
            "count" : 559,
            "type" : "VEC3"
        },
        {
            "bufferView" : 2,
            "componentType" : 5126,
            "count" : 559,
            "type" : "VEC2"
        },
        {
            "bufferView" : 3,
            "componentType" : 5123,
            "count" : 2880,
            "type" : "SCALAR"
        }
    ],
    "bufferViews" : [
        {
            "buffer" : 0,
            "byteLength" : 6708,
            "byteOffset" : 0
        },
        {
            "buffer" : 0,
            "byteLength" : 6708,
            "byteOffset" : 6708
        },
        {
            "buffer" : 0,
            "byteLength" : 4472,
            "byteOffset" : 13416
        },
        {
            "buffer" : 0,
            "byteLength" : 5760,
            "byteOffset" : 17888
        }
    ],
    "buffers" : [
        {
            "byteLength" : 23648,
            "uri" : "data:application/octet-stream;base64,"
        }
    ],
    "extensionsUsed": [
        "OpenMaterial_asset_info",
        "OpenMaterial_reference_link"
    ]
}
