{
    "asset" : {
        "copyright" : "(C) 2019, Bayerische Motoren Werke Aktiengesellschaft (BMW AG)",
        "generator" : "Khronos Blender glTF 2.0 I/O",
        "version" : "2.0",
        "extensions": {
            "OpenMaterial_asset_info": {
                "asset_type": "geometry",
                "id": "a3a62d4531e64ae5a620030b1deaff7c",
                "title": "blender teapot",
                "asset_version": "1",
                "asset_variation": "1",
                "creator": "Bayerische Motoren Werke Aktiengesellschaft (BMW AG)",
                "description": "blender teapot with aluminium as material",
                "creation_date": "2019.06.24. 13:56:00"
            }
        }
    },
    "scene" : 0,
    "scenes" : [
        {
            "name" : "Scene",
            "nodes" : [
                0
            ]
        }
    ],
    "nodes" : [
        {
            "mesh" : 0,
            "name" : "teapot"
        }
    ],
    "materials" : [
        {
            "name" : "aluminium",
            "extensions": {
                "OpenMaterial_reference_link": {
                    "id": "fe7d707050e545f19f2658ecacb6ac5e",
                    "title": "aluminium",
                    "uri": "../materials/aluminium.gltf"
                }
            }
        }
    ],
    "meshes" : [
        {
            "name" : "teapot",
            "primitives" : [
                {
                    "attributes" : {
                        "POSITION" : 0,
                        "NORMAL" : 1
                    },
                    "indices" : 2,
                    "material" : 0
                }
            ]
        }
    ],
    "accessors" : [
        {
            "bufferView" : 0,
            "componentType" : 5126,
            "count" : 829,
            "max" : [
                3.434000015258789,
                3.1500000953674316,
                2
            ],
            "min" : [
                -3,
                0,
                -2
            ],
            "type" : "VEC3"
        },
        {
            "bufferView" : 1,
            "componentType" : 5126,
            "count" : 829,
            "type" : "VEC3"
        },
        {
            "bufferView" : 2,
            "componentType" : 5123,
            "count" : 4680,
            "type" : "SCALAR"
        }
    ],
    "bufferViews" : [
        {
            "buffer" : 0,
            "byteLength" : 9948,
            "byteOffset" : 0
        },
        {
            "buffer" : 0,
            "byteLength" : 9948,
            "byteOffset" : 9948
        },
        {
            "buffer" : 0,
            "byteLength" : 9360,
            "byteOffset" : 19896
        }
    ],
    "buffers" : [
        {
            "byteLength" : 29256,
            "uri" : "data/teapot.bin"
        }
    ],
    "extensionsUsed": [
        "OpenMaterial_asset_info",
        "OpenMaterial_reference_link"
    ]
}
