<svg width="1065" height="2445" xmlns="http://www.w3.org/2000/svg" xmlns:xlink="http://www.w3.org/1999/xlink" xml:space="preserve" overflow="hidden"><defs><clipPath id="clip0"><rect x="1597" y="55" width="1065" height="2445"/></clipPath></defs><g clip-path="url(#clip0)" transform="translate(-1597 -55)"><path d="M2153.5 1265.53C2149.39 1280.51 2144.32 1296.93 2140.31 1318.78 2136.29 1340.63 2134 1366.2 2129.41 1396.64 2124.82 1427.08 2116.98 1476.7 2112.77 1501.41 2108.56 1526.13 2106.37 1531.76 2104.17 1544.93 2101.97 1558.09 2100.72 1567.16 2099.58 1580.42 2098.43 1593.69 2097.38 1609.05 2097.28 1624.51 2097.19 1639.97 2098.14 1656.47 2099 1673.17 2099.86 1689.87 2101.39 1706.57 2102.45 1724.7 2103.5 1742.83 2105.6 1762.11 2105.31 1781.95 2105.03 1801.8 2103.5 1820.89 2100.72 1843.79 2097.95 1866.69 2093.46 1894.07 2088.68 1919.36 2083.9 1944.65 2075.68 1974.13 2072.04 1995.51 2068.41 2016.88 2067.84 2032.53 2066.88 2047.61 2065.92 2062.68 2067.64 2074.8 2066.31 2085.97 2064.97 2097.13 2062.48 2105.34 2058.85 2114.59 2055.22 2123.85 2050.34 2133.01 2044.51 2141.5 2038.67 2150 2023.86 2165.55 2023.86 2165.55 2014.77 2175.76 1999.28 2193.03 1990.01 2202.76 1980.74 2212.5 1974.43 2218.8 1968.21 2223.95 1962 2229.1 1956.55 2231.39 1952.72 2233.68 1948.9 2235.97 1949.38 2237.02 1945.27 2237.69 1941.15 2238.36 1934.84 2239.12 1928.06 2237.69 1921.27 2236.26 1912.95 2232.92 1904.54 2229.1 1896.12 2225.28 1882.93 2218.79 1877.58 2214.79 1872.22 2210.78 1873.27 2208.68 1872.41 2205.05 1871.55 2201.43 1870.88 2197.61 1872.41 2193.03 1873.94 2188.45 1875.66 2184.54 1881.59 2177.57 1887.52 2170.61 1895.84 2162.69 1907.98 2151.24 1920.12 2139.79 1942.59 2120.42 1954.44 2108.87 1966.3 2097.32 1971.18 2092.36 1979.11 2081.96 1987.05 2071.56 1997.56 2055.24 2002.06 2046.46 2006.55 2037.68 2005.02 2036.06 2006.07 2029.29 2007.12 2022.51 2008.08 2018.12 2008.37 2005.81 2008.65 1993.5 2008.46 1977.47 2007.79 1955.43 2007.12 1933.39 2005.4 1904.38 2004.35 1873.56 2003.3 1842.74 2001.48 1797.13 2001.48 1770.5 2001.48 1743.88 2003.78 1728.9 2004.35 1713.82 2004.93 1698.75 2005.21 1692.07 2004.93 1680.04 2004.64 1668.02 2003.97 1659.81 2002.63 1641.68 2001.29 1623.55 1998.71 1606.38 1996.89 1571.26 1995.08 1536.15 1992.78 1471.16 1991.73 1430.99 1990.68 1390.82 1990.58 1360.48 1990.58 1330.23 1990.58 1299.98 1991.16 1274.74 1991.73 1249.5" stroke="#7F7F7F" stroke-width="4.58333" stroke-miterlimit="8" fill="none" fill-rule="evenodd"/><path d="M2150.5 1265.5C2161.54 1272.23 2174.49 1279.91 2180.9 1284.97 2187.3 1290.03 2186.16 1284.59 2188.93 1295.85 2191.7 1307.11 2194 1329.06 2197.53 1352.54 2201.07 1376.02 2206.33 1412.86 2210.15 1436.72 2213.97 1460.58 2215.31 1469.45 2220.48 1495.7 2225.64 1521.95 2236.25 1568.14 2241.12 1594.19 2246 1620.25 2247.15 1637.14 2249.73 1652.03 2252.31 1666.92 2254.22 1673.79 2256.61 1683.52 2259 1693.26 2262.73 1699.27 2264.07 1710.44 2265.4 1721.6 2264.83 1733.34 2264.64 1750.52 2264.45 1767.7 2262.63 1791.08 2262.92 1813.51 2263.21 1835.94 2264.83 1862.76 2266.36 1885.09 2267.89 1907.42 2270.09 1926.32 2272.1 1947.51 2274.1 1968.7 2276.3 1990.55 2278.41 2012.22 2280.51 2033.88 2283.76 2062.23 2284.71 2077.5 2285.67 2092.77 2285 2096.59 2284.14 2103.84 2283.28 2111.09 2281.18 2114.72 2279.55 2121.02 2277.93 2127.32 2280.41 2129.89 2274.39 2141.63 2268.37 2153.37 2254.51 2175.13 2243.42 2191.45 2232.33 2207.77 2216.27 2225.33 2207.86 2239.55 2199.44 2253.77 2194.38 2268.09 2192.94 2276.77 2191.51 2285.46 2194.76 2287.56 2199.25 2291.66 2203.75 2295.77 2209.67 2297.68 2219.9 2301.4 2230.13 2305.12 2251.35 2311.9 2260.62 2314 2269.9 2316.1 2269.9 2315.91 2275.54 2314 2281.18 2312.09 2288.63 2309.61 2294.47 2302.54 2300.3 2295.48 2304.6 2285.08 2310.53 2271.62 2316.45 2258.16 2324.86 2235.83 2330.03 2221.8 2335.19 2207.77 2338.34 2198.99 2341.5 2187.44 2344.65 2175.9 2348.09 2163.58 2348.95 2152.51 2349.81 2141.44 2347.43 2130.37 2346.66 2121.02 2345.9 2111.66 2343.7 2106.22 2344.37 2096.39 2345.03 2086.56 2346.09 2082.56 2350.68 2062.04 2355.26 2041.52 2365.21 2001.05 2371.9 1973.28 2378.59 1945.5 2386.52 1916.3 2390.82 1895.4 2395.13 1874.5 2396.27 1863.05 2397.71 1847.87 2399.14 1832.7 2399.72 1821.43 2399.43 1804.35 2399.14 1787.27 2397.33 1763.6 2395.99 1745.37 2394.65 1727.14 2393.21 1710.44 2391.4 1694.98 2389.58 1679.52 2387 1671.4 2385.09 1652.6 2383.18 1633.8 2380.21 1603.16 2379.93 1582.17 2379.64 1561.17 2382.41 1544.09 2383.37 1526.62 2384.32 1509.16 2384.71 1492.55 2385.66 1477.38 2386.62 1462.2 2388.63 1449.98 2389.1 1435.57 2389.58 1421.16 2389.06 1406.03 2388.53 1390.91" stroke="#7F7F7F" stroke-width="4.58333" stroke-miterlimit="8" fill="none" fill-rule="evenodd"/><path d="M2378.6 1239.5C2374.09 1202.44 2371.01 1163.47 2368.92 1118.99 2366.83 1074.52 2364.36 1016.37 2366.07 972.662 2367.78 928.955 2371.77 897.106 2379.17 856.746 2386.58 816.385 2398.54 773.443 2410.5 730.5" stroke="#7F7F7F" stroke-width="4.58333" stroke-miterlimit="8" fill="none" fill-rule="evenodd"/><path d="M2380.5 1296.5 2378.5 1267.5" stroke="#7F7F7F" stroke-width="4.58333" stroke-miterlimit="8" fill="none" fill-rule="evenodd"/><path d="M2409.81 729.444C2413.72 745.298 2417.25 771.946 2421.26 795.346 2425.27 818.746 2430.13 848.163 2433.86 869.844 2437.58 891.524 2441.68 913.11 2443.59 925.431 2445.5 937.751 2446.93 934.122 2445.31 943.769 2443.68 953.415 2437.86 965.927 2433.86 983.31 2429.85 1000.69 2425.84 1021.42 2421.26 1048.07 2416.68 1074.71 2410.19 1116.74 2406.37 1143.19 2402.56 1169.65 2400.84 1192.48 2398.36 1206.8 2395.88 1221.13 2396.74 1222.37 2391.49 1229.15 2386.24 1235.93 2373.45 1240.9 2366.87 1247.49 2360.29 1254.08 2355.61 1260.77 2351.98 1268.69 2348.36 1276.62 2345.69 1289.42 2345.11 1295.05 2344.54 1300.69 2347.02 1301.36 2348.55 1302.5 2350.08 1303.65 2351.7 1304.89 2354.27 1301.93 2356.85 1298.97 2360.38 1290.66 2364.01 1284.74 2367.63 1278.82 2372.98 1269.65 2376.03 1266.4 2379.08 1263.15 2380.61 1264.01 2382.33 1265.26 2384.05 1266.5 2385.95 1268.41 2386.34 1273.85 2386.72 1279.3 2386.72 1289.52 2384.62 1297.92 2382.52 1306.33 2376.7 1316.64 2373.74 1324.28 2370.78 1331.92 2371.55 1335.46 2366.87 1343.77 2362.19 1352.07 2350.84 1366.4 2345.69 1374.14 2340.53 1381.87 2338.05 1386.55 2335.95 1390.18 2333.85 1393.81 2333.57 1394.1 2333.09 1395.91 2332.61 1397.73 2332.04 1398.87 2333.09 1401.07 2334.14 1403.27 2336.34 1407.28 2339.39 1409.09 2342.44 1410.91 2345.4 1413.68 2351.41 1411.96 2357.42 1410.24 2368.02 1403.55 2375.46 1398.78 2382.9 1394 2388.72 1391.9 2396.07 1383.31 2403.42 1374.71 2413.25 1358.76 2419.54 1347.2 2425.84 1335.65 2430.71 1324.09 2433.86 1313.97 2437.01 1303.84 2437.96 1295.72 2438.44 1286.46 2438.91 1277.19 2436.72 1266.11 2436.72 1258.38 2436.72 1250.64 2433.28 1253.79 2438.44 1240.04 2443.59 1226.29 2455.99 1202.6 2467.64 1175.86 2479.28 1149.12 2496.93 1108.71 2508.29 1079.58 2519.64 1050.45 2529.95 1020.75 2535.77 1001.07 2541.59 981.4 2541.59 972.899 2543.21 961.533 2544.83 950.168 2545.5 949.021 2545.5 932.88 2545.5 916.739 2544.83 894.867 2543.21 864.686 2541.59 834.505 2538.15 781.688 2535.77 751.793 2533.38 721.898 2531.66 704.038 2528.9 685.318 2526.13 666.598 2522.88 653.036 2519.16 639.473 2515.44 625.911 2511.72 614.45 2506.57 603.944 2501.42 593.438 2499.51 587.038 2488.25 576.436 2476.99 565.835 2459.81 553.323 2439.01 540.334 2418.21 527.344 2390.82 512.922 2363.44 498.5" stroke="#7F7F7F" stroke-width="4.58333" stroke-miterlimit="8" fill="none" fill-rule="evenodd"/><path d="M1991.5 1252.5C1993.15 1231.54 1994.8 1210.57 1996.75 1194.62 1998.69 1178.67 2000.64 1171.13 2003.16 1156.8 2005.69 1142.48 2008.51 1127.1 2011.91 1108.67 2015.31 1090.23 2021.05 1064.54 2023.58 1046.2 2026.1 1027.87 2026.1 1015.45 2027.08 998.64 2028.05 981.831 2029.21 963.016 2029.41 945.347 2029.6 927.678 2029.6 914.785 2028.24 892.627 2026.88 870.469 2023.58 836.755 2021.24 812.401 2018.91 788.046 2016.29 763.501 2014.24 746.5" stroke="#7F7F7F" stroke-width="4.58333" stroke-miterlimit="8" fill="none" fill-rule="evenodd"/><path d="M2014.63 742.128C2007.7 764.948 2000.78 788.342 1993.99 810.303 1987.21 832.264 1978.52 859.477 1973.93 873.895 1969.35 888.313 1972.69 885.162 1966.48 896.811 1960.27 908.46 1949.95 924.596 1936.67 943.788 1923.39 962.98 1905.91 987.137 1886.8 1011.96 1867.69 1036.79 1834.64 1077.18 1822.03 1092.74 1809.42 1108.31 1813.91 1102 1811.14 1105.35 1808.37 1108.69 1807.89 1109.26 1805.41 1112.79 1802.92 1116.33 1804.83 1115.56 1796.23 1126.54 1787.64 1137.52 1766.04 1163.78 1753.82 1178.68 1741.59 1193.57 1732.03 1203.69 1722.86 1215.92 1713.69 1228.14 1703.95 1244.08 1698.79 1252.01 1693.63 1259.93 1694.39 1260.79 1691.91 1263.47 1689.42 1266.14 1686.94 1267.48 1683.88 1268.05 1680.83 1268.62 1677.39 1269 1673.57 1266.9 1669.74 1264.8 1663.63 1260.03 1660.95 1255.45 1658.28 1250.86 1657.61 1245.42 1657.52 1239.4 1657.42 1233.39 1657.71 1227.66 1660.38 1219.35 1663.06 1211.05 1667.83 1199.59 1673.57 1189.56 1679.3 1179.54 1687.23 1168.65 1694.77 1159.2 1702.32 1149.75 1711.4 1140.1 1718.85 1132.85 1726.3 1125.59 1733.56 1121.2 1739.49 1115.66 1745.41 1110.12 1749.8 1106.3 1754.39 1099.62 1758.97 1092.93 1767 1075.56 1767 1075.56L1819.16 975.298C1833.78 947.512 1845.82 924.978 1854.7 908.841 1863.59 892.705 1867.5 886.689 1872.47 878.478 1877.44 870.266 1881.93 864.251 1884.51 859.572 1887.09 854.893 1886.71 855.848 1887.95 850.406 1889.19 844.963 1890.43 836.656 1891.96 826.917 1893.49 817.178 1897.12 791.97 1897.12 791.97 1899.7 775.07 1902.95 748.525 1907.44 725.514 1911.93 702.502 1918.23 675.385 1924.06 653.901 1929.89 632.418 1935.14 613.13 1942.4 596.612 1949.67 580.093 1958.45 565.961 1967.63 554.79 1976.8 543.618 1981.29 539.13 1997.43 529.582 2013.58 520.034 2039.04 508.767 2064.5 497.5" stroke="#7F7F7F" stroke-width="4.58333" stroke-miterlimit="8" fill="none" fill-rule="evenodd"/><path d="M2362.5 498.5C2353.34 494.393 2344.17 490.285 2335.58 484.745 2326.99 479.205 2317.54 471.755 2310.95 465.259 2304.36 458.764 2299.97 452.364 2296.06 445.773 2292.14 439.183 2289.47 433.356 2287.46 425.715 2285.46 418.073 2284.6 407.852 2284.03 399.924 2283.45 391.996 2283.26 385.596 2284.03 378.146 2284.79 370.696 2285.27 363.723 2288.61 355.221 2291.95 346.72 2304.07 327.139 2304.07 327.139 2309.23 317.778 2315.34 307.748 2319.54 299.056 2323.74 290.364 2325.94 285.874 2329.28 274.985 2332.62 264.096 2337.49 247.38 2339.59 233.721 2341.69 220.062 2343.12 207.549 2341.88 193.03 2340.64 178.511 2338.16 160.935 2332.14 146.608 2326.13 132.28 2316.39 117.57 2305.79 107.063 2295.2 96.556 2279.16 88.8187 2268.56 83.5652 2257.96 78.3117 2251.28 77.1655 2242.21 75.5416 2233.14 73.9178 2223.69 72.9629 2214.15 73.8225 2204.6 74.682 2195.53 76.2106 2184.93 80.6998 2174.34 85.1891 2160.49 92.735 2150.57 100.759 2140.64 108.782 2132.33 118.525 2125.36 128.841 2118.39 139.157 2113.14 150.142 2108.75 162.655 2104.36 175.168 2101.4 189.973 2099.01 203.919 2096.63 217.865 2094.81 232.67 2094.43 246.33 2094.05 259.989 2095.39 272.502 2096.72 285.875 2098.06 299.247 2099.78 314.912 2102.45 326.566 2105.12 338.219 2108.46 348.058 2112.76 355.795 2117.06 363.532 2122.69 368.021 2128.23 372.988 2133.76 377.955 2141.21 381.203 2145.98 385.597 2150.76 389.991 2155.05 392.283 2156.87 399.351 2158.68 406.42 2157.82 420.27 2156.87 428.007 2155.91 435.744 2153.62 440.615 2151.14 445.773 2148.66 450.931 2145.89 454.944 2141.97 458.955 2138.06 462.967 2133.95 466.215 2127.65 469.844 2121.35 473.474 2114.86 476.244 2104.17 480.734 2093.48 485.223 2078.49 492.148 2063.5 497.927" stroke="#7F7F7F" stroke-width="4.58333" stroke-miterlimit="8" fill="none" fill-rule="evenodd"/><path d="M1.14977-1.98236 230.693 131.153 228.393 135.117-1.14977 1.98236ZM232.477 118.941 249.367 144.633 218.68 142.73Z" transform="matrix(-1 0 0 1 2194.87 1174.5)"/><path d="M2194.91 1172.25 2590.01 1244 2589.19 1248.51 2194.09 1176.75ZM2587.54 1231.91 2612.15 1250.35 2582.63 1258.97Z"/><path d="M2.29141-0.0342641 8.00491 382.055 3.42209 382.124-2.29141 0.0342641ZM19.3934 377.301 6.05614 405.004-8.1035 377.712Z" transform="matrix(1 0 0 -1 2194.5 1174.5)"/><text font-family="Times New Roman,Times New Roman_MSFontService,sans-serif" font-weight="700" font-size="55" transform="matrix(1 0 0 1 1902.69 1345)">x<tspan font-weight="400" font-size="37" x="27.5" y="13">Ref</tspan><tspan font-size="55" x="260.004" y="-607">z</tspan><tspan font-weight="400" font-size="37" x="284.64" y="-594">Ref</tspan><tspan font-size="55" x="619.906" y="-142">y</tspan><tspan font-weight="400" font-size="37" x="647.406" y="-129">Ref</tspan><tspan font-size="55" x="280.39" y="-115">O</tspan><tspan font-weight="400" font-size="37" x="323.358" y="-102">Ref</tspan></text><path d="M1975.5 1989.5 2578.78 2185.44" stroke="#7F7F7F" stroke-width="4.58333" stroke-miterlimit="8" stroke-dasharray="18.3333 13.75" fill="none" fill-rule="evenodd"/><path d="M0 0 302.742 250.604" stroke="#7F7F7F" stroke-width="4.58333" stroke-miterlimit="8" stroke-dasharray="18.3333 13.75" fill="none" fill-rule="evenodd" transform="matrix(-1 0 0 1 1974.24 1990.5)"/><path d="M0 0 246.453 311.953" stroke="#7F7F7F" stroke-width="4.58333" stroke-miterlimit="8" stroke-dasharray="18.3333 13.75" fill="none" fill-rule="evenodd" transform="matrix(1 0 0 -1 2327.5 2497.45)"/><path d="M2327.22 2496.49 1671.5 2238.5" stroke="#7F7F7F" stroke-width="4.58333" stroke-miterlimit="8" stroke-dasharray="18.3333 13.75" fill="none" fill-rule="evenodd"/><path d="M0 0 79.9236 2111.08" stroke="#7F7F7F" stroke-width="4.58333" stroke-miterlimit="8" stroke-dasharray="18.3333 13.75" fill="none" fill-rule="evenodd" transform="matrix(1 0 0 -1 2578.5 2184.58)"/><path d="M1674.96 2238.54 1601.5 73.5" stroke="#7F7F7F" stroke-width="4.58333" stroke-miterlimit="8" stroke-dasharray="18.3333 13.75" fill="none" fill-rule="evenodd"/><path d="M0 0 45.8521 2438.49" stroke="#7F7F7F" stroke-width="4.58333" stroke-miterlimit="8" stroke-dasharray="18.3333 13.75" fill="none" fill-rule="evenodd" transform="matrix(1 0 0 -1 2327.5 2496.99)"/><path d="M1975.81 1989.31 1959.5 81.5" stroke="#7F7F7F" stroke-width="4.58333" stroke-miterlimit="8" stroke-dasharray="18.3333 13.75" fill="none" fill-rule="evenodd"/><path d="M1961.54 81.6902 1599.5 73.5001" stroke="#7F7F7F" stroke-width="4.58333" stroke-miterlimit="8" stroke-dasharray="18.3333 13.75" fill="none" fill-rule="evenodd"/><path d="M0 0 775.043 13.1643" stroke="#7F7F7F" stroke-width="4.58333" stroke-miterlimit="8" stroke-dasharray="18.3333 13.75" fill="none" fill-rule="evenodd" transform="matrix(-1 0 0 1 2376.54 58.4999)"/><path d="M0 0 699.518 7.35823" stroke="#7F7F7F" stroke-width="4.58333" stroke-miterlimit="8" stroke-dasharray="18.3333 13.75" fill="none" fill-rule="evenodd" transform="matrix(1 0 0 -1 1959.5 80.8583)"/><path d="M2373.5 57.4999 2658.49 73.9923" stroke="#7F7F7F" stroke-width="4.58333" stroke-miterlimit="8" stroke-dasharray="18.3333 13.75" fill="none" fill-rule="evenodd"/></g></svg>