<svg width="469" height="245" xmlns="http://www.w3.org/2000/svg" xmlns:xlink="http://www.w3.org/1999/xlink" overflow="hidden"><defs><clipPath id="clip0"><rect x="254" y="214" width="469" height="245"/></clipPath></defs><g clip-path="url(#clip0)" transform="translate(-254 -214)"><path d="M427.5 373.5 434.5 372.5" stroke="#7F7F7F" stroke-width="1.33333" stroke-miterlimit="8" fill="none" fill-rule="evenodd"/><path d="M365.597 448.061C362.651 448.877 359.704 449.693 355.41 449.46 351.115 449.227 349.018 449.093 339.829 446.662 330.64 444.23 310.399 438.334 300.278 434.87 290.157 431.405 284.064 428.474 279.104 425.876 274.143 423.277 272.412 420.879 270.514 419.28 268.617 417.681 268.783 416.749 267.718 416.282 266.652 415.816 265.321 416.649 264.122 416.482 262.924 416.316 261.026 416.049 260.527 415.283 260.027 414.517 260.726 413.318 261.126 411.885 261.525 410.453 263.024 409.054 262.924 406.689 262.824 404.324 261.559 401.992 260.527 397.695 259.495 393.398 257.264 384.637 256.731 380.906 256.199 377.175 256.665 377.708 257.331 375.31 257.996 372.912 260.061 368.248 260.726 366.516 261.392 364.784 261.359 366.549 261.326 364.917 261.292 363.285 260.493 358.921 260.527 356.723 260.56 354.524 259.994 354.424 261.525 351.726 263.057 349.028 267.085 344.331 269.715 340.534 272.345 336.736 273.444 333.405 277.306 328.942 281.168 324.478 287.727 317.716 292.887 313.752 298.047 309.788 301.443 308.256 308.268 305.158 315.093 302.06 323.483 298.695 333.836 295.165 344.19 291.634 358.173 287.37 370.391 283.972 382.61 280.574 397.059 277.177 407.146 274.778 417.234 272.38 425.157 270.748 430.917 269.582 436.676 268.416 439.44 268.116 441.703 267.783 443.967 267.45 444.067 267.45 444.5 267.583" stroke="#7F7F7F" stroke-width="1.33333" stroke-miterlimit="8" fill="none" fill-rule="evenodd"/><path d="M490.5 439.5C486.126 441.206 480.416 443.594 477.678 445.027 474.939 446.46 475.307 447.313 474.071 448.097 472.836 448.882 474.272 448.745 470.265 449.735 466.258 450.724 457.475 452.703 450.029 454.033 442.583 455.364 432.799 457.001 425.586 457.718 418.374 458.434 414.934 458.707 406.753 458.332 398.572 457.957 383.078 456.831 376.5 455.466" stroke="#7F7F7F" stroke-width="1.33333" stroke-miterlimit="8" fill="none" fill-rule="evenodd"/><path d="M376.5 455.5C370.401 451.448 364.303 447.397 365.703 447.502" stroke="#7F7F7F" stroke-width="1.33333" stroke-miterlimit="8" fill="none" fill-rule="evenodd"/><path d="M562.5 400.5C561.817 403.937 561.133 407.374 559.9 410.862 558.667 414.349 557 418.04 555.1 421.426 553.2 424.813 551.233 427.894 548.5 431.179 545.767 434.463 542.167 438.56 538.7 441.134 535.233 443.707 531.2 445.57 527.7 446.619 524.2 447.669 521.467 447.534 517.7 447.432 513.933 447.331 509.167 447.026 505.1 446.01 501.033 444.994 495.9 442.387 493.3 441.337 490.7 440.287 490.1 440 489.5 439.712" stroke="#7F7F7F" stroke-width="1.33333" stroke-miterlimit="8" fill="none" fill-rule="evenodd"/><path d="M567.5 402.5 684.5 342.5" stroke="#7F7F7F" stroke-width="1.33333" stroke-miterlimit="8" fill="none" fill-rule="evenodd"/><path d="M0 0 2.26005 1.14005" stroke="#7F7F7F" stroke-width="1.33333" stroke-miterlimit="8" fill="none" fill-rule="evenodd" transform="matrix(1 0 0 -1 562.5 400.64)"/><path d="M0 0 3.53008 0.000104987" stroke="#7F7F7F" stroke-width="1.33333" stroke-miterlimit="8" fill="none" fill-rule="evenodd" transform="matrix(-1 -8.74228e-08 -8.74228e-08 1 567.03 402.5)"/><path d="M0 0 1.13008 3.14005" stroke="#7F7F7F" stroke-width="1.33333" stroke-miterlimit="8" fill="none" fill-rule="evenodd" transform="matrix(1 0 0 -1 563.5 402.64)"/><path d="M712.5 321.5C711.582 325.374 710.829 328.879 709.551 332.569 708.273 336.259 706.405 340.921 704.832 343.638 703.258 346.355 701.784 347.73 700.112 348.871 698.441 350.011 697.261 350.347 694.803 350.481 692.346 350.615 687.921 350.011 685.365 349.676 682.809 349.34 680.777 348.904 679.466 348.468 678.156 348.032 677.828 347.546 677.5 347.06" stroke="#7F7F7F" stroke-width="1.33333" stroke-miterlimit="8" fill="none" fill-rule="evenodd"/><path d="M712.006 322.5C713.752 320.553 715.498 318.605 716.995 315.31 718.491 312.015 720.254 307.388 720.986 302.728 721.717 298.067 721.484 291.61 721.385 287.349 721.285 283.088 721.218 281.257 720.387 277.163 719.555 273.069 718.125 266.378 716.396 262.783 714.667 259.188 712.638 257.624 710.01 255.593 707.383 253.563 704.323 252.498 700.632 250.6 696.94 248.703 692.384 245.707 687.861 244.209 683.338 242.711 676.387 241.946 673.493 241.613 670.6 241.28 670.55 241.746 670.5 242.212" stroke="#7F7F7F" stroke-width="1.33333" stroke-miterlimit="8" fill="none" fill-rule="evenodd"/><path d="M450.869 261.5C449.108 259.157 447.346 256.814 447.511 254.618 447.675 252.423 450.375 249.769 451.857 248.327 453.338 246.885 454.754 246.426 456.401 245.967 458.047 245.509 460.384 245.41 461.734 245.574 463.084 245.738 464.105 246.688 464.5 246.95" stroke="#7F7F7F" stroke-width="1.33333" stroke-miterlimit="8" fill="none" fill-rule="evenodd"/><path d="M531.074 444.5C527.474 444.35 523.873 444.2 520.42 443.1 516.967 442.001 513.284 440.601 510.357 437.902 507.431 435.202 504.668 431.903 502.86 426.904 501.051 421.905 499.604 414.84 499.505 407.909 499.407 400.977 500.656 392.279 502.268 385.314 503.879 378.349 506.378 371.517 509.173 366.118 511.969 360.72 515.882 356.354 519.039 352.922 522.196 349.489 524.662 347.256 528.115 345.523 531.568 343.79 536.007 342.291 539.756 342.524 543.505 342.757 547.484 344.457 550.608 346.923 553.732 349.389 558.319 356.437 558.5 357.321" stroke="#7F7F7F" stroke-width="1.33333" stroke-miterlimit="8" fill="none" fill-rule="evenodd"/><path d="M562.38 403.5C563.324 396.304 564.396 388.974 564.492 382.921 564.588 376.868 563.788 371.421 562.956 367.184 562.124 362.947 560.716 360.409 559.5 357.5" stroke="#7F7F7F" stroke-width="1.33333" stroke-miterlimit="8" fill="none" fill-rule="evenodd"/><path d="M488.761 439.5C488.025 434.383 487.288 429.266 487.556 422.41 487.824 415.554 488.159 407.307 490.368 398.365 492.577 389.423 496.493 377.235 500.811 368.756 505.128 360.277 511.119 352.891 516.274 347.493 521.428 342.094 527.018 338.683 531.737 336.365 536.456 334.046 540.372 333.218 544.59 333.582 548.807 333.947 553.359 335.537 557.041 338.55 560.722 341.564 564.438 346.168 566.68 351.666 568.923 357.164 570.596 363.722 570.496 371.538 570.396 379.354 566.915 393.662 566.078 398.564 565.241 403.466 565.475 400.948 565.475 400.948" stroke="#7F7F7F" stroke-width="1.33333" stroke-miterlimit="8" fill="none" fill-rule="evenodd"/><path d="M698.5 349.5C696.544 349.483 693.971 349.668 691.912 347.683 689.853 345.697 687.382 340.784 686.147 337.587 684.912 334.39 684.912 330.856 684.5 328.5" stroke="#7F7F7F" stroke-width="1.33333" stroke-miterlimit="8" fill="none" fill-rule="evenodd"/><path d="M683.5 341.5C684.511 332.742 685.521 323.984 686.532 317.17 687.542 310.356 687.846 305.802 689.563 300.617 691.281 295.432 694.717 289.416 696.839 286.059 698.962 282.702 700.579 281.539 702.296 280.475 704.014 279.411 705.598 279.345 707.147 279.677 708.697 280.01 710.314 280.708 711.594 282.469 712.874 284.231 714.187 287.355 714.827 290.247 715.467 293.139 715.602 296.463 715.434 299.82 715.265 303.177 714.305 308.179 713.817 310.389" stroke="#7F7F7F" stroke-width="1.33333" stroke-miterlimit="8" fill="none" fill-rule="evenodd"/><path d="M712.221 321.5C713.058 314.96 713.728 308.183 713.427 303.201 713.125 298.22 711.685 294.188 710.412 291.612 709.139 289.037 707.464 288.291 705.789 287.749 704.115 287.207 702.071 287.614 700.363 288.359 698.655 289.105 696.879 290.697 695.539 292.222 694.199 293.747 693.664 295.035 692.324 297.508 690.984 299.982 688.639 304.845 687.5 307.064" stroke="#7F7F7F" stroke-width="1.33333" stroke-miterlimit="8" fill="none" fill-rule="evenodd"/><path d="M601.5 371.5 649.5 347.5" stroke="#7F7F7F" stroke-width="1.33333" stroke-miterlimit="8" fill="none" fill-rule="evenodd"/><path d="M648.5 347.5 676.5 322.5" stroke="#7F7F7F" stroke-width="1.33333" stroke-miterlimit="8" fill="none" fill-rule="evenodd"/><path d="M677.197 322.5C678.807 313.509 680.418 304.517 681.022 297.74 681.626 290.963 681.76 286.803 680.82 281.838 679.881 276.872 678.438 271.504 675.385 267.948 672.331 264.392 666.577 262.53 662.5 260.5" stroke="#7F7F7F" stroke-width="1.33333" stroke-miterlimit="8" fill="none" fill-rule="evenodd"/><path d="M662.5 260.5C660.659 254.901 658.818 249.302 656.073 244.656 653.328 240.01 650.114 235.129 646.03 232.622 641.946 230.115 636.657 229.146 631.568 229.614 626.48 230.082 620.99 232.756 615.5 235.43" stroke="#7F7F7F" stroke-width="1.33333" stroke-miterlimit="8" fill="none" fill-rule="evenodd"/><path d="M597.5 281.5 615.5 235.5" stroke="#7F7F7F" stroke-width="1.33333" stroke-miterlimit="8" fill="none" fill-rule="evenodd"/><path d="M597.5 279.5 623.5 277.438C630.767 276.781 637.433 276.719 641.1 275.563 644.767 274.406 645.133 272.453 645.5 270.5" stroke="#7F7F7F" stroke-width="1.33333" stroke-miterlimit="8" fill="none" fill-rule="evenodd"/><path d="M610.5 272.5C612.017 268.336 613.534 264.171 614.95 261.679 616.365 259.187 615.219 257.875 618.994 257.547 622.77 257.22 633.421 258.662 637.601 259.712 641.781 260.761 642.59 262.007 644.073 263.843 645.556 265.68 646.028 268.204 646.5 270.729" stroke="#7F7F7F" stroke-width="1.33333" stroke-miterlimit="8" fill="none" fill-rule="evenodd"/><path d="M645.5 266.5 662.5 261.5" stroke="#7F7F7F" stroke-width="1.33333" stroke-miterlimit="8" fill="none" fill-rule="evenodd"/><path d="M449.5 267.5C468.7 250.717 487.9 233.933 499.5 226.5" stroke="#7F7F7F" stroke-width="1.33333" stroke-miterlimit="8" fill="none" fill-rule="evenodd"/><path d="M500.5 225.64C508.517 224.211 515.533 222.963 524.7 222.601 533.867 222.239 546.4 222.926 555.5 223.469 564.6 224.012 570.967 224.518 579.3 225.857 587.633 227.195 596.567 229.348 605.5 231.5" stroke="#7F7F7F" stroke-width="1.33333" stroke-miterlimit="8" fill="none" fill-rule="evenodd"/><path d="M581.5 280.5 605.5 231.5" stroke="#7F7F7F" stroke-width="1.33333" stroke-miterlimit="8" fill="none" fill-rule="evenodd"/><path d="M444.5 267.5 499.5 225.5" stroke="#7F7F7F" stroke-width="1.33333" stroke-miterlimit="8" fill="none" fill-rule="evenodd"/><path d="M670.5 241.5C665.634 237.052 661.764 232.233 655.552 228.715 649.341 225.198 644.226 222.559 633.231 220.395 622.236 218.23 605.428 216.269 589.584 215.727 573.74 215.186 553.178 215.592 538.164 217.148 523.15 218.704 511.325 221.883 499.5 225.062" stroke="#7F7F7F" stroke-width="1.33333" stroke-miterlimit="8" fill="none" fill-rule="evenodd"/><path d="M0 0 0.2 4.6" stroke="#7F7F7F" stroke-width="1.33333" stroke-miterlimit="8" fill="none" fill-rule="evenodd" transform="matrix(-1 -8.74228e-08 -8.74228e-08 1 464.7 246.5)"/><path d="M624.5 271.5C627.95 271.288 631.4 271.077 634.9 270.577 638.4 270.077 641.95 269.289 645.5 268.5" stroke="#7F7F7F" stroke-width="1.33333" stroke-miterlimit="8" fill="none" fill-rule="evenodd"/><path d="M624.5 273.5C627.95 273.359 631.4 273.218 634.9 272.885 638.4 272.551 641.95 272.026 645.5 271.5" stroke="#7F7F7F" stroke-width="1.33333" stroke-miterlimit="8" fill="none" fill-rule="evenodd"/><path d="M450.643 257.731 447.77 254.611" stroke="#7F7F7F" stroke-width="1.33333" stroke-miterlimit="8" fill="none" fill-rule="evenodd"/><path d="M447.5 254.5 450.5 257.554" stroke="#7F7F7F" stroke-width="1.33333" stroke-miterlimit="8" fill="none" fill-rule="evenodd"/><path d="M385.5 367.5C391.956 363.749 398.411 359.998 406.064 356.396 413.718 352.794 422.303 349.192 431.42 345.888 440.538 342.583 453.016 338.716 460.769 336.568 468.522 334.42 473.38 333.627 477.939 332.999 482.498 332.371 484.362 332.372 488.122 332.801 491.882 333.231 496.108 334.123 500.5 335.577" stroke="#7F7F7F" stroke-width="1.33333" stroke-miterlimit="8" fill="none" fill-rule="evenodd"/><path d="M500.5 334.5C494.818 340.124 489.136 345.748 483.806 350.568 478.476 355.389 474.453 359.406 468.52 363.423 462.587 367.44 455.614 371.926 448.205 374.671 440.797 377.416 431.444 378.755 424.069 379.893 416.695 381.031 408.582 381.5 403.956 381.5 399.33 381.5 398.894 380.998 396.313 379.893 393.732 378.789 390.413 376.546 388.469 374.872 386.525 373.198 385.117 371.19 384.647 369.85 384.178 368.511 384.916 367.674 385.653 366.838" stroke="#7F7F7F" stroke-width="1.33333" stroke-miterlimit="8" fill="none" fill-rule="evenodd"/><path d="M600.887 371.5C601.474 348.31 602.061 325.121 600.496 310.287 598.932 295.454 595.216 288.977 591.5 282.5" stroke="#7F7F7F" stroke-width="1.33333" stroke-miterlimit="8" fill="none" fill-rule="evenodd"/><path d="M591.5 283.5C593.761 282.893 596.023 282.286 597.009 281.786 597.995 281.286 597.145 280.786 597.417 280.5" stroke="#7F7F7F" stroke-width="1.33333" stroke-miterlimit="8" fill="none" fill-rule="evenodd"/><path d="M599.5 273.5 611.5 272.5" stroke="#7F7F7F" stroke-width="1.33333" stroke-miterlimit="8" fill="none" fill-rule="evenodd"/><path d="M449.5 267.5 512.386 273.391 556.989 277.656C568.508 278.841 575.004 279.671 581.5 280.5" stroke="#7F7F7F" stroke-width="1.33333" stroke-miterlimit="8" fill="none" fill-rule="evenodd"/><path d="M624.5 271.5 624.9 273.755" stroke="#7F7F7F" stroke-width="1.33333" stroke-miterlimit="8" fill="none" fill-rule="evenodd"/><path d="M449.281 258.266 447.558 256.394" stroke="#7F7F7F" stroke-width="1.33333" stroke-miterlimit="8" fill="none" fill-rule="evenodd"/><path d="M391.5 369.5C399.315 365.643 407.13 361.785 416.786 357.827 426.443 353.869 438.821 349.139 449.44 345.752 460.059 342.364 470.279 339.932 480.5 337.5" stroke="#7F7F7F" stroke-width="1.33333" stroke-miterlimit="8" fill="none" fill-rule="evenodd"/><path d="M390.5 367.5C398.315 363.643 406.13 359.785 415.786 355.827 425.443 351.869 437.821 347.139 448.44 343.752 459.059 340.364 469.279 337.932 479.5 335.5" stroke="#7F7F7F" stroke-width="1.33333" stroke-miterlimit="8" fill="none" fill-rule="evenodd"/><path d="M480.688 337.491 479.5 335.5" stroke="#7F7F7F" stroke-width="1.33333" stroke-miterlimit="8" fill="none" fill-rule="evenodd"/><path d="M427.5 373.5C426.728 367.493 425.956 361.485 427.025 359.5" stroke="#7F7F7F" stroke-width="1.33333" stroke-miterlimit="8" fill="none" fill-rule="evenodd"/><path d="M433.5 373.5 438.5 365.5" stroke="#7F7F7F" stroke-width="1.33333" stroke-miterlimit="8" fill="none" fill-rule="evenodd"/><path d="M438.5 366.5C437.583 363.984 436.667 361.467 434.833 360.337 433 359.207 430.25 359.464 427.5 359.721" stroke="#7F7F7F" stroke-width="1.33333" stroke-miterlimit="8" fill="none" fill-rule="evenodd"/><path d="M334.5 425.5 328.5 406.5" stroke="#7F7F7F" stroke-width="1.33333" stroke-miterlimit="8" fill="none" fill-rule="evenodd"/><path d="M278.5 406.5 273.5 390.5" stroke="#7F7F7F" stroke-width="1.33333" stroke-miterlimit="8" fill="none" fill-rule="evenodd"/><path d="M273.5 391.5C283.217 394.667 292.933 397.833 302.1 400.5 311.267 403.167 319.883 405.333 328.5 407.5" stroke="#7F7F7F" stroke-width="1.33333" stroke-miterlimit="8" fill="none" fill-rule="evenodd"/><path d="M277.5 407.5C287.1 410.883 296.701 414.267 306.201 417.1 315.701 419.933 325.1 422.217 334.5 424.5" stroke="#7F7F7F" stroke-width="1.33333" stroke-miterlimit="8" fill="none" fill-rule="evenodd"/><path d="M436.644 347.849 467.534 354.663 467.246 355.965 436.356 349.151ZM466.95 351.121 473.9 356.75 465.226 358.933Z"/><path d="M435.534 348.859 434.089 311.187 435.422 311.136 436.866 348.808ZM430.81 312.647 434.5 304.5 438.804 312.341Z"/><path d="M0.270351-0.609389 28.7765 12.0371 28.2358 13.2559-0.270351 0.609389ZM28.9094 8.44948 34.6 15.35 25.6652 15.7621Z" transform="matrix(-1 -8.74228e-08 -8.74228e-08 1 436.1 348.5)"/><text font-family="Times New Roman,Times New Roman_MSFontService,sans-serif" font-weight="700" font-size="16" transform="translate(422.195 294)">z<tspan font-weight="400" font-size="11" x="7.16666" y="3">Indicator</tspan></text><rect x="453" y="357" width="11" height="16" fill="#FFFFFF"/><rect x="381" y="364" width="11" height="10" fill="#FFFFFF"/><rect x="389" y="368" width="40" height="10" fill="#FFFFFF"/><text font-family="Times New Roman,Times New Roman_MSFontService,sans-serif" font-weight="700" font-size="16" transform="translate(381.25 372)">x<tspan font-weight="400" font-size="11" x="8" y="3">Indicator</tspan></text><rect x="393" y="334" width="39" height="11" fill="#FFFFFF"/><text font-family="Times New Roman,Times New Roman_MSFontService,sans-serif" font-weight="700" font-size="16" transform="translate(379.76 339)">O<tspan font-weight="400" font-size="11" x="12.5" y="3">Indicator</tspan></text><rect x="464" y="364" width="38" height="9" fill="#FFFFFF"/><text font-family="Times New Roman,Times New Roman_MSFontService,sans-serif" font-weight="700" font-size="16" transform="translate(454.974 368)">y<tspan font-weight="400" font-size="11" x="8" y="3">Indicator</tspan></text></g></svg>