<svg width="469" height="245" xmlns="http://www.w3.org/2000/svg" xmlns:xlink="http://www.w3.org/1999/xlink" overflow="hidden"><defs><clipPath id="clip0"><rect x="540" y="350" width="469" height="245"/></clipPath></defs><g clip-path="url(#clip0)" transform="translate(-540 -350)"><path d="M651.178 583.061C648.216 583.877 645.253 584.693 640.936 584.46 636.618 584.227 634.51 584.093 625.272 581.662 616.035 579.23 595.685 573.334 585.511 569.87 575.336 566.405 569.211 563.474 564.224 560.876 559.237 558.277 557.497 555.879 555.589 554.28 553.681 552.681 553.849 551.749 552.778 551.282 551.706 550.816 550.368 551.649 549.163 551.482 547.958 551.316 546.05 551.049 545.548 550.283 545.046 549.517 545.749 548.318 546.151 546.885 546.552 545.453 548.058 544.054 547.958 541.689 547.858 539.324 546.586 536.992 545.548 532.695 544.511 528.398 542.268 519.637 541.733 515.906 541.197 512.175 541.666 512.708 542.335 510.31 543.004 507.912 545.08 503.248 545.749 501.516 546.418 499.784 546.385 501.549 546.351 499.917 546.318 498.285 545.515 493.921 545.548 491.723 545.582 489.524 545.013 489.424 546.552 486.726 548.092 484.028 552.142 479.331 554.786 475.534 557.43 471.736 558.534 468.405 562.417 463.942 566.299 459.478 572.893 452.716 578.08 448.752 583.268 444.788 586.682 443.256 593.543 440.158 600.404 437.06 608.839 433.695 619.248 430.165 629.657 426.634 643.714 422.37 655.997 418.972 668.28 415.574 682.806 412.177 692.947 409.778 703.089 407.38 711.054 405.748 716.845 404.582 722.635 403.416 725.413 403.116 727.689 402.783 729.965 402.45 730.065 402.45 730.5 402.583" stroke="#7F7F7F" stroke-width="1.33333" stroke-miterlimit="8" fill="none" fill-rule="evenodd"/><path d="M776.5 575.5C772.126 577.206 766.416 579.594 763.678 581.027 760.939 582.46 761.307 583.313 760.071 584.097 758.836 584.882 760.272 584.745 756.265 585.735 752.258 586.724 743.476 588.703 736.029 590.033 728.583 591.364 718.799 593.001 711.586 593.718 704.374 594.434 700.934 594.707 692.753 594.332 684.572 593.957 669.078 592.831 662.5 591.466" stroke="#7F7F7F" stroke-width="1.33333" stroke-miterlimit="8" fill="none" fill-rule="evenodd"/><path d="M662.5 591.5C656.401 587.448 650.303 583.397 651.703 583.502" stroke="#7F7F7F" stroke-width="1.33333" stroke-miterlimit="8" fill="none" fill-rule="evenodd"/><path d="M848.5 536.5C847.817 539.864 847.133 543.228 845.9 546.641 844.667 550.055 843 553.667 841.1 556.981 839.2 560.295 837.233 563.311 834.5 566.526 831.767 569.74 828.167 573.751 824.7 576.269 821.233 578.788 817.2 580.611 813.7 581.638 810.2 582.666 807.467 582.533 803.7 582.434 799.933 582.334 795.167 582.036 791.1 581.042 787.033 580.047 781.9 577.495 779.3 576.468 776.7 575.441 776.1 575.159 775.5 574.877" stroke="#7F7F7F" stroke-width="1.33333" stroke-miterlimit="8" fill="none" fill-rule="evenodd"/><path d="M853.5 538.5 970.5 478.5" stroke="#7F7F7F" stroke-width="1.33333" stroke-miterlimit="8" fill="none" fill-rule="evenodd"/><path d="M0 0 2.26005 1.14005" stroke="#7F7F7F" stroke-width="1.33333" stroke-miterlimit="8" fill="none" fill-rule="evenodd" transform="matrix(1 0 0 -1 848.5 536.64)"/><path d="M0 0 3.53008 0.000104987" stroke="#7F7F7F" stroke-width="1.33333" stroke-miterlimit="8" fill="none" fill-rule="evenodd" transform="matrix(-1 -8.74228e-08 -8.74228e-08 1 853.03 538.5)"/><path d="M0 0 1.13008 3.14005" stroke="#7F7F7F" stroke-width="1.33333" stroke-miterlimit="8" fill="none" fill-rule="evenodd" transform="matrix(1 0 0 -1 849.5 538.64)"/><path d="M998.5 457.5C997.556 461.374 996.781 464.879 995.466 468.569 994.152 472.259 992.23 476.921 990.612 479.638 988.994 482.355 987.478 483.73 985.758 484.871 984.039 486.011 982.826 486.347 980.298 486.481 977.77 486.615 973.219 486.011 970.59 485.676 967.961 485.34 965.871 484.904 964.523 484.468 963.174 484.032 962.837 483.546 962.5 483.06" stroke="#7F7F7F" stroke-width="1.33333" stroke-miterlimit="8" fill="none" fill-rule="evenodd"/><path d="M998.006 458.5C999.752 456.529 1001.5 454.557 1002.99 451.221 1004.49 447.885 1006.25 443.201 1006.99 438.483 1007.72 433.766 1007.48 427.228 1007.38 422.915 1007.28 418.602 1007.22 416.748 1006.39 412.603 1005.56 408.459 1004.13 401.685 1002.4 398.046 1000.67 394.407 998.638 392.823 996.01 390.767 993.383 388.712 990.323 387.633 986.632 385.712 982.94 383.792 978.384 380.759 973.861 379.242 969.338 377.726 962.387 376.951 959.493 376.614 956.6 376.277 956.55 376.749 956.5 377.221" stroke="#7F7F7F" stroke-width="1.33333" stroke-miterlimit="8" fill="none" fill-rule="evenodd"/><path d="M736.869 397.5C735.108 395.157 733.346 392.814 733.511 390.618 733.675 388.423 736.375 385.769 737.857 384.327 739.338 382.885 740.754 382.426 742.401 381.967 744.047 381.509 746.384 381.41 747.734 381.574 749.084 381.738 750.105 382.688 750.5 382.95" stroke="#7F7F7F" stroke-width="1.33333" stroke-miterlimit="8" fill="none" fill-rule="evenodd"/><path d="M816.61 580.5C812.948 580.35 809.286 580.2 805.774 579.1 802.263 578.001 798.518 576.601 795.541 573.902 792.565 571.202 789.756 567.903 787.917 562.904 786.077 557.905 784.606 550.84 784.506 543.909 784.405 536.977 785.676 528.279 787.315 521.314 788.953 514.349 791.495 507.517 794.337 502.118 797.18 496.72 801.16 492.354 804.37 488.922 807.58 485.489 810.088 483.256 813.6 481.523 817.111 479.79 821.626 478.291 825.438 478.524 829.251 478.757 833.297 480.457 836.474 482.923 839.651 485.389 844.316 492.437 844.5 493.321" stroke="#7F7F7F" stroke-width="1.33333" stroke-miterlimit="8" fill="none" fill-rule="evenodd"/><path d="M848.38 539.5C849.324 532.304 850.396 524.974 850.492 518.921 850.588 512.868 849.788 507.421 848.956 503.184 848.124 498.947 846.716 496.409 845.5 493.5" stroke="#7F7F7F" stroke-width="1.33333" stroke-miterlimit="8" fill="none" fill-rule="evenodd"/><path d="M774.761 575.5C774.025 570.383 773.289 565.266 773.556 558.41 773.824 551.554 774.159 543.307 776.368 534.365 778.577 525.423 782.493 513.235 786.811 504.756 791.128 496.277 797.119 488.891 802.274 483.493 807.428 478.094 813.018 474.683 817.737 472.365 822.456 470.046 826.372 469.218 830.59 469.582 834.807 469.947 839.359 471.537 843.041 474.55 846.722 477.564 850.438 482.168 852.68 487.666 854.923 493.164 856.596 499.722 856.496 507.538 856.396 515.354 852.915 529.662 852.078 534.564 851.241 539.466 851.475 536.948 851.475 536.948" stroke="#7F7F7F" stroke-width="1.33333" stroke-miterlimit="8" fill="none" fill-rule="evenodd"/><path d="M984.5 484.5C982.544 484.484 979.971 484.66 977.912 482.769 975.853 480.878 973.382 476.199 972.147 473.154 970.912 470.109 970.912 466.744 970.5 464.5" stroke="#7F7F7F" stroke-width="1.33333" stroke-miterlimit="8" fill="none" fill-rule="evenodd"/><path d="M969.5 477.5C970.479 468.742 971.458 459.984 972.437 453.17 973.416 446.356 973.71 441.802 975.374 436.617 977.038 431.432 980.367 425.416 982.423 422.059 984.479 418.702 986.045 417.539 987.709 416.475 989.373 415.411 990.907 415.345 992.408 415.677 993.909 416.01 995.476 416.708 996.716 418.469 997.956 420.231 999.228 423.355 999.848 426.247 1000.47 429.139 1000.6 432.463 1000.44 435.82 1000.27 439.177 999.343 444.179 998.869 446.389" stroke="#7F7F7F" stroke-width="1.33333" stroke-miterlimit="8" fill="none" fill-rule="evenodd"/><path d="M998.221 457.5C999.058 450.96 999.728 444.183 999.427 439.201 999.125 434.22 997.685 430.188 996.412 427.612 995.139 425.037 993.464 424.291 991.789 423.749 990.115 423.207 988.071 423.614 986.363 424.359 984.655 425.105 982.879 426.697 981.539 428.222 980.199 429.747 979.664 431.035 978.324 433.508 976.984 435.982 974.639 440.845 973.5 443.064" stroke="#7F7F7F" stroke-width="1.33333" stroke-miterlimit="8" fill="none" fill-rule="evenodd"/><path d="M886.5 507.5 935.5 482.5" stroke="#7F7F7F" stroke-width="1.33333" stroke-miterlimit="8" fill="none" fill-rule="evenodd"/><path d="M934.5 483.5 962.5 457.5" stroke="#7F7F7F" stroke-width="1.33333" stroke-miterlimit="8" fill="none" fill-rule="evenodd"/><path d="M962.423 457.5C963.949 448.654 965.475 439.807 966.047 433.14 966.619 426.472 966.746 422.379 965.856 417.494 964.966 412.608 963.599 407.327 960.707 403.828 957.814 400.329 952.362 398.497 948.5 396.5" stroke="#7F7F7F" stroke-width="1.33333" stroke-miterlimit="8" fill="none" fill-rule="evenodd"/><path d="M948.5 396.5C946.659 390.901 944.818 385.302 942.073 380.656 939.328 376.01 936.114 371.129 932.03 368.622 927.946 366.115 922.657 365.146 917.568 365.614 912.48 366.082 906.99 368.756 901.5 371.43" stroke="#7F7F7F" stroke-width="1.33333" stroke-miterlimit="8" fill="none" fill-rule="evenodd"/><path d="M882.5 417.5 901.5 371.5" stroke="#7F7F7F" stroke-width="1.33333" stroke-miterlimit="8" fill="none" fill-rule="evenodd"/><path d="M883.5 415.5 909.5 413.208C916.767 412.479 923.433 412.41 927.1 411.125 930.767 409.84 931.133 407.67 931.5 405.5" stroke="#7F7F7F" stroke-width="1.33333" stroke-miterlimit="8" fill="none" fill-rule="evenodd"/><path d="M896.5 408.5C898.017 404.058 899.534 399.616 900.95 396.958 902.365 394.299 901.219 392.9 904.994 392.551 908.77 392.201 919.421 393.74 923.601 394.859 927.781 395.978 928.59 397.307 930.073 399.266 931.556 401.225 932.028 403.918 932.5 406.611" stroke="#7F7F7F" stroke-width="1.33333" stroke-miterlimit="8" fill="none" fill-rule="evenodd"/><path d="M931.5 402.5 948.5 397.5" stroke="#7F7F7F" stroke-width="1.33333" stroke-miterlimit="8" fill="none" fill-rule="evenodd"/><path d="M735.5 403.5C754.7 386.717 773.9 369.933 785.5 362.5" stroke="#7F7F7F" stroke-width="1.33333" stroke-miterlimit="8" fill="none" fill-rule="evenodd"/><path d="M785.5 361.291C793.517 360.021 800.533 358.911 809.7 358.59 818.867 358.268 831.4 358.879 840.5 359.361 849.6 359.844 855.967 360.294 864.3 361.484 872.633 362.673 881.567 364.587 890.5 366.5" stroke="#7F7F7F" stroke-width="1.33333" stroke-miterlimit="8" fill="none" fill-rule="evenodd"/><path d="M866.5 416.5 891.5 367.5" stroke="#7F7F7F" stroke-width="1.33333" stroke-miterlimit="8" fill="none" fill-rule="evenodd"/><path d="M729.5 403.5 785.5 361.5" stroke="#7F7F7F" stroke-width="1.33333" stroke-miterlimit="8" fill="none" fill-rule="evenodd"/><path d="M956.5 377.5C951.634 373.052 947.764 368.233 941.552 364.715 935.341 361.198 930.226 358.56 919.231 356.395 908.236 354.23 891.428 352.269 875.584 351.727 859.74 351.186 839.178 351.592 824.164 353.148 809.15 354.704 797.325 357.883 785.5 361.062" stroke="#7F7F7F" stroke-width="1.33333" stroke-miterlimit="8" fill="none" fill-rule="evenodd"/><path d="M0 0 0.2 4.6" stroke="#7F7F7F" stroke-width="1.33333" stroke-miterlimit="8" fill="none" fill-rule="evenodd" transform="matrix(-1 -8.74228e-08 -8.74228e-08 1 750.7 382.5)"/><path d="M910.5 407.5C913.95 407.288 917.4 407.077 920.9 406.577 924.4 406.077 927.95 405.289 931.5 404.5" stroke="#7F7F7F" stroke-width="1.33333" stroke-miterlimit="8" fill="none" fill-rule="evenodd"/><path d="M910.5 409.5C913.95 409.288 917.4 409.077 920.9 408.577 924.4 408.077 927.95 407.289 931.5 406.5" stroke="#7F7F7F" stroke-width="1.33333" stroke-miterlimit="8" fill="none" fill-rule="evenodd"/><path d="M736.436 393.455 733.563 390.335" stroke="#7F7F7F" stroke-width="1.33333" stroke-miterlimit="8" fill="none" fill-rule="evenodd"/><path d="M733.5 390.5 736.5 393.554" stroke="#7F7F7F" stroke-width="1.33333" stroke-miterlimit="8" fill="none" fill-rule="evenodd"/><path d="M671.5 503.5C677.956 499.642 684.411 495.784 692.064 492.079 699.718 488.374 708.303 484.669 717.42 481.27 726.538 477.871 739.016 473.894 746.769 471.685 754.522 469.475 759.38 468.659 763.939 468.014 768.498 467.368 770.362 467.368 774.122 467.81 777.882 468.251 782.108 469.169 786.5 470.665" stroke="#7F7F7F" stroke-width="1.33333" stroke-miterlimit="8" fill="none" fill-rule="evenodd"/><path d="M785.5 470.5C779.867 476.124 774.234 481.748 768.95 486.568 763.666 491.389 759.678 495.406 753.796 499.423 747.913 503.44 741.001 507.926 733.656 510.671 726.312 513.416 717.04 514.755 709.728 515.893 702.417 517.031 694.375 517.5 689.788 517.5 685.202 517.5 684.77 516.998 682.211 515.893 679.652 514.789 676.362 512.546 674.435 510.872 672.507 509.198 671.111 507.19 670.646 505.85 670.181 504.511 670.912 503.674 671.643 502.838" stroke="#7F7F7F" stroke-width="1.33333" stroke-miterlimit="8" fill="none" fill-rule="evenodd"/><path d="M886.887 507.5C887.474 484.31 888.061 461.121 886.496 446.287 884.932 431.454 881.216 424.977 877.5 418.5" stroke="#7F7F7F" stroke-width="1.33333" stroke-miterlimit="8" fill="none" fill-rule="evenodd"/><path d="M877.5 418.5C879.761 418.095 882.023 417.691 883.009 417.357 883.995 417.024 883.145 416.691 883.417 416.5" stroke="#7F7F7F" stroke-width="1.33333" stroke-miterlimit="8" fill="none" fill-rule="evenodd"/><path d="M885.5 409.5 896.5 407.5" stroke="#7F7F7F" stroke-width="1.33333" stroke-miterlimit="8" fill="none" fill-rule="evenodd"/><path d="M735.5 403.5 798.386 409.391 842.989 413.656C854.508 414.841 861.004 415.671 867.5 416.5" stroke="#7F7F7F" stroke-width="1.33333" stroke-miterlimit="8" fill="none" fill-rule="evenodd"/><path d="M910.5 407.5 910.9 409.755" stroke="#7F7F7F" stroke-width="1.33333" stroke-miterlimit="8" fill="none" fill-rule="evenodd"/><path d="M735.074 393.99 733.351 392.118" stroke="#7F7F7F" stroke-width="1.33333" stroke-miterlimit="8" fill="none" fill-rule="evenodd"/><path d="M677.5 505.5C685.315 501.643 693.13 497.785 702.786 493.827 712.443 489.869 724.821 485.139 735.44 481.752 746.059 478.364 756.279 475.932 766.5 473.5" stroke="#7F7F7F" stroke-width="1.33333" stroke-miterlimit="8" fill="none" fill-rule="evenodd"/><path d="M675.5 503.5C683.403 499.643 691.305 495.785 701.071 491.827 710.836 487.869 723.352 483.139 734.091 479.752 744.829 476.364 755.164 473.932 765.5 471.5" stroke="#7F7F7F" stroke-width="1.33333" stroke-miterlimit="8" fill="none" fill-rule="evenodd"/><path d="M766.688 473.491 765.5 471.5" stroke="#7F7F7F" stroke-width="1.33333" stroke-miterlimit="8" fill="none" fill-rule="evenodd"/><path d="M676.688 505.491 675.5 503.5" stroke="#7F7F7F" stroke-width="1.33333" stroke-miterlimit="8" fill="none" fill-rule="evenodd"/><path d="M713.5 508.5C712.728 502.922 711.956 497.343 713.025 495.5" stroke="#7F7F7F" stroke-width="1.33333" stroke-miterlimit="8" fill="none" fill-rule="evenodd"/><path d="M713.5 509.5 720.5 508.5" stroke="#7F7F7F" stroke-width="1.33333" stroke-miterlimit="8" fill="none" fill-rule="evenodd"/><path d="M720.5 508.5 724.5 501.5" stroke="#7F7F7F" stroke-width="1.33333" stroke-miterlimit="8" fill="none" fill-rule="evenodd"/><path d="M724.5 502.5C723.5 499.984 722.5 497.467 720.5 496.337 718.5 495.207 715.5 495.464 712.5 495.721" stroke="#7F7F7F" stroke-width="1.33333" stroke-miterlimit="8" fill="none" fill-rule="evenodd"/><path d="M620.5 560.5 614.5 542.5" stroke="#7F7F7F" stroke-width="1.33333" stroke-miterlimit="8" fill="none" fill-rule="evenodd"/><path d="M564.5 542.5 558.5 526.5" stroke="#7F7F7F" stroke-width="1.33333" stroke-miterlimit="8" fill="none" fill-rule="evenodd"/><path d="M559.5 526.5C569.217 529.667 578.933 532.833 588.1 535.5 597.267 538.167 605.883 540.333 614.5 542.5" stroke="#7F7F7F" stroke-width="1.33333" stroke-miterlimit="8" fill="none" fill-rule="evenodd"/><path d="M563.5 542.5C573.1 545.883 582.701 549.267 592.201 552.1 601.701 554.933 611.1 557.217 620.5 559.5" stroke="#7F7F7F" stroke-width="1.33333" stroke-miterlimit="8" fill="none" fill-rule="evenodd"/><path d="M907.577 442.838 940.857 446.726 940.703 448.051 907.423 444.162ZM939.92 443.261 947.402 448.162 938.991 451.207Z"/><path d="M0.211846-0.632112 20.6096 6.20397 20.1859 7.46819-0.211846 0.632112ZM20.4046 2.61972 26.7188 8.95454 17.8624 10.2051Z" transform="matrix(-1 -8.74228e-08 -8.74228e-08 1 907.219 443.5)"/><path d="M907.058 443.199 906.868 406.17 908.201 406.163 908.392 443.192ZM903.541 407.521 907.5 399.5 911.541 407.479Z"/><text font-family="Times New Roman,Times New Roman_MSFontService,sans-serif" font-weight="700" font-size="16" transform="translate(910.474 423)">z<tspan font-weight="400" font-size="11" x="7.16669" y="3">Sensor</tspan><tspan x="-8.56464" y="37">O</tspan><tspan font-weight="400" font-size="11" x="3.93536" y="40">Sensor</tspan></text><rect x="960" y="436" width="24" height="9" fill="#FFFFFF"/><text font-family="Times New Roman,Times New Roman_MSFontService,sans-serif" font-weight="700" font-size="16" transform="translate(945.344 439)">y<tspan font-weight="400" font-size="11" x="8" y="3">Sensor</tspan></text><rect x="883" y="457" width="13" height="9" fill="#FFFFFF"/><text font-family="Times New Roman,Times New Roman_MSFontService,sans-serif" font-weight="700" font-size="16" transform="translate(857.486 460)">x<tspan font-weight="400" font-size="11" x="8" y="3">Sensor</tspan></text></g></svg>