<svg width="307" height="258" xmlns="http://www.w3.org/2000/svg" xmlns:xlink="http://www.w3.org/1999/xlink" overflow="hidden"><defs><clipPath id="clip0"><rect x="420" y="247" width="307" height="258"/></clipPath></defs><g clip-path="url(#clip0)" transform="translate(-420 -247)"><path d="M0.666556-0.0121192 1.34536 37.3223 0.012251 37.3465-0.666556 0.0121192ZM4.65391 35.9286 0.8 44-3.34477 36.074Z" transform="matrix(1 0 0 -1 573.5 337.5)"/><path d="M574.5 336.833 613.7 336.833 613.7 338.167 574.5 338.167ZM612.367 333.5 620.367 337.5 612.367 341.5Z"/><path d="M574.167 337.5 574.167 346.567 572.833 346.567 572.833 337.5ZM577.5 345.233 573.5 353.233 569.5 345.233Z"/><path d="M445.994 484.5C440.243 481.233 434.491 477.967 430.747 472.1 427.002 466.233 425.062 457.9 423.524 449.3 421.986 440.7 421.384 430.533 421.518 420.5 421.652 410.467 422.889 398.633 424.327 389.1 425.764 379.567 428.005 368.9 430.145 363.3 432.285 357.7 430.613 360.833 433.555 354.3 436.498 347.767 445.994 338 453.818 327.7 461.642 317.4 471.74 304.3 480.5 292.5" stroke="#7F7F7F" stroke-width="1.33333" stroke-miterlimit="8" fill="none" fill-rule="evenodd"/><path d="M480.5 292.5C485.026 282.718 489.553 272.935 492.726 267.216 495.9 261.497 496.869 260.394 499.541 258.186 502.213 255.979 503.316 255.243 508.761 253.973 514.206 252.702 524.495 251.431 532.211 250.561 539.928 249.692 548.179 249.09 555.06 248.755 561.942 248.421 568.222 248.488 573.5 248.555" stroke="#7F7F7F" stroke-width="1.33333" stroke-miterlimit="8" fill="none" fill-rule="evenodd"/><path d="M573.5 323.5 540.188 323.304C530.646 323.011 522.301 322.261 516.251 321.739 510.2 321.217 506.809 320.793 503.883 320.174 500.958 319.554 499.761 318.967 498.697 318.022 497.633 317.076 497.567 315.788 497.5 314.5" stroke="#7F7F7F" stroke-width="1.33333" stroke-miterlimit="8" fill="none" fill-rule="evenodd"/><path d="M503.5 293.5C501.5 297.883 499.5 302.233 498.5 305.9 497.5 309.567 497.5 312.617 497.5 315.5" stroke="#7F7F7F" stroke-width="1.33333" stroke-miterlimit="8" fill="none" fill-rule="evenodd"/><path d="M503.5 294.5C504.267 292.727 505.033 290.954 507.9 289.819 510.767 288.684 513.267 288.472 520.7 287.692 528.133 286.911 543.533 285.67 552.5 285.138 561.467 284.607 567.983 284.553 574.5 284.5" stroke="#7F7F7F" stroke-width="1.33333" stroke-miterlimit="8" fill="none" fill-rule="evenodd"/><path d="M445.5 484.5 452.5 483.5" stroke="#7F7F7F" stroke-width="1.33333" stroke-miterlimit="8" fill="none" fill-rule="evenodd"/><path d="M474.5 498.5C467.258 496.616 460.016 494.733 456.452 493.569 452.889 492.404 453.935 492.336 453.118 491.514 452.3 490.692 451.744 489.596 451.548 488.637 451.352 487.678 451.81 486.616 451.94 485.76 452.071 484.904 452.202 484.202 452.333 483.5" stroke="#7F7F7F" stroke-width="1.33333" stroke-miterlimit="8" fill="none" fill-rule="evenodd"/><path d="M487.5 485.5C486.292 490.189 484.978 495.114 483.664 497.441 482.35 499.769 481.142 499.263 479.615 499.465 478.088 499.667 476.152 498.942 474.5 498.655" stroke="#7F7F7F" stroke-width="1.33333" stroke-miterlimit="8" fill="none" fill-rule="evenodd"/><path d="M486.303 484.898C487.188 484.237 488.441 484.418 489.102 485.303 489.301 485.569 489.431 485.881 489.479 486.21" stroke="#7F7F7F" stroke-width="1.33333" stroke-miterlimit="8" fill="none" fill-rule="evenodd"/><path d="M489.91 486.5C489.047 488.969 488.183 491.438 488.615 492.583 489.047 493.727 490.773 493.547 492.5 493.368" stroke="#7F7F7F" stroke-width="1.33333" stroke-miterlimit="8" fill="none" fill-rule="evenodd"/><path d="M498.5 498.5C496.7 497.327 494.067 496 492.9 495.167 491.733 494.333 491.7 493.932 491.5 493.5" stroke="#7F7F7F" stroke-width="1.33333" stroke-miterlimit="8" fill="none" fill-rule="evenodd"/><path d="M498.5 498.5C500.343 497.533 502.348 496.286 504.515 495.81 506.682 495.334 509.075 495.516 511.5 495.642" stroke="#7F7F7F" stroke-width="1.33333" stroke-miterlimit="8" fill="none" fill-rule="evenodd"/><path d="M564.5 497.5 511.5 495.5" stroke="#7F7F7F" stroke-width="1.33333" stroke-miterlimit="8" fill="none" fill-rule="evenodd"/><path d="M564.5 496.5C565.5 498.799 566.633 501.098 567.3 502.265 567.967 503.431 567.9 503.466 568.5 503.5" stroke="#7F7F7F" stroke-width="1.33333" stroke-miterlimit="8" fill="none" fill-rule="evenodd"/><path d="M571.5 496.5C570.603 499.198 569.706 501.896 569.206 502.938 568.706 503.98 568.603 503.367 568.5 502.754" stroke="#7F7F7F" stroke-width="1.33333" stroke-miterlimit="8" fill="none" fill-rule="evenodd"/><path d="M571.5 496.5 573.567 496.5" stroke="#7F7F7F" stroke-width="1.33333" stroke-miterlimit="8" fill="none" fill-rule="evenodd"/><path d="M494.5 401.5C493.593 399.719 492.687 397.098 490.874 395.452 489.06 393.805 492.183 394.78 483.621 391.621 475.059 388.462 457.279 382.481 439.5 376.5" stroke="#7F7F7F" stroke-width="1.33333" stroke-miterlimit="8" fill="none" fill-rule="evenodd"/><path d="M439.242 376.5C438.537 375.927 438.302 376.009 438.678 372.175 439.054 368.342 440.23 360.855 441.5 353.5" stroke="#7F7F7F" stroke-width="1.33333" stroke-miterlimit="8" fill="none" fill-rule="evenodd"/><path d="M428.5 370.5C430.153 367.669 431.806 364.839 434.054 362.008 436.302 359.178 436.93 357.189 441.988 353.516 447.045 349.843 458.649 343.306 464.401 339.97 470.153 336.634 473.327 335.067 476.5 333.5" stroke="#7F7F7F" stroke-width="1.33333" stroke-miterlimit="8" fill="none" fill-rule="evenodd"/><path d="M476.5 333.833 486.658 334.5 573.5 333.5" stroke="#7F7F7F" stroke-width="1.33333" stroke-miterlimit="8" fill="none" fill-rule="evenodd"/><path d="M428.708 370.5C427.604 375.061 426.5 379.623 426.5 383.495 426.5 387.367 427.27 391.239 428.708 393.733 430.147 396.227 430.716 396.687 435.132 398.459 439.548 400.231 447.645 402.692 455.206 404.365 462.768 406.039 471.634 407.27 480.5 408.5" stroke="#7F7F7F" stroke-width="1.33333" stroke-miterlimit="8" fill="none" fill-rule="evenodd"/><path d="M479.5 409.5C482.521 408.526 485.542 407.551 488.042 406.218 490.542 404.885 494.5 401.5 494.5 401.5" stroke="#7F7F7F" stroke-width="1.33333" stroke-miterlimit="8" fill="none" fill-rule="evenodd"/><path d="M573.5 424.5 521.182 423.618C506.349 423.118 495.425 422.309 484.5 421.5" stroke="#7F7F7F" stroke-width="1.33333" stroke-miterlimit="8" fill="none" fill-rule="evenodd"/><path d="M484.5 421.5C483.25 419.254 482 417.008 481.167 415.008 480.333 413.008 479.917 411.254 479.5 409.5" stroke="#7F7F7F" stroke-width="1.33333" stroke-miterlimit="8" fill="none" fill-rule="evenodd"/><path d="M24.4105 193C18.6789 189.723 12.9473 186.446 9.21515 180.561 5.48295 174.676 3.55021 166.317 2.01734 157.69 0.484472 149.063-0.115345 138.865 0.0179473 128.8 0.15124 118.736 1.38425 106.866 2.8171 97.3025 4.24994 87.7394 6.48265 77.0395 8.61533 71.422 10.748 65.8046 9.08186 68.9477 12.0143 62.394 14.9467 55.8403 24.3773 46.11 32.2082 35.711 40.0391 25.3121 50.2693 11.8368 59 0" stroke="#7F7F7F" stroke-width="1.33333" stroke-miterlimit="8" fill="none" fill-rule="evenodd" transform="matrix(-1 -8.74228e-08 -8.74228e-08 1 726.5 291.5)"/><path d="M0 44C4.50705 34.2176 9.01421 24.4352 12.1741 18.7163 15.334 12.9975 16.2987 11.8937 18.9597 9.68644 21.6207 7.47914 22.7184 6.74337 28.1401 5.47249 33.562 4.20162 43.8068 2.93075 51.4904 2.0612 59.1741 1.19166 67.1572 0.589668 74.242 0.255228 81.3269-0.0792123 88.7445-0.0123243 94 0.0545638" stroke="#7F7F7F" stroke-width="1.33333" stroke-miterlimit="8" fill="none" fill-rule="evenodd" transform="matrix(-1 -8.74228e-08 -8.74228e-08 1 667.5 248.5)"/><path d="M76 9 42.6877 8.80435C33.1462 8.51092 24.8014 7.76087 18.7507 7.23913 12.6999 6.71739 9.30884 6.29343 6.3832 5.67391 3.45757 5.0544 2.26072 4.46734 1.19685 3.52174 0.132983 2.57614 0.0664917 1.28802 0 0" stroke="#7F7F7F" stroke-width="1.33333" stroke-miterlimit="8" fill="none" fill-rule="evenodd" transform="matrix(-1 -8.74228e-08 -8.74228e-08 1 650.5 314.5)"/><path d="M6 0C4 4.38331 2 8.73333 1 12.4 0 16.0667 0 19.1166 0 22" stroke="#7F7F7F" stroke-width="1.33333" stroke-miterlimit="8" fill="none" fill-rule="evenodd" transform="matrix(-1 -8.74228e-08 -8.74228e-08 1 650.5 293.5)"/><path d="M0 10C0.766614 8.22695 1.53333 6.4539 4.4 5.31915 7.26667 4.1844 9.76672 3.97163 17.2 3.19149 24.6333 2.41135 40.0334 1.17016 49 0.638298 57.9666 0.106439 64.4833 0.0531636 71 0" stroke="#7F7F7F" stroke-width="1.33333" stroke-miterlimit="8" fill="none" fill-rule="evenodd" transform="matrix(-1 -8.74228e-08 -8.74228e-08 1 644.5 284.5)"/><path d="M0 1 6 0" stroke="#7F7F7F" stroke-width="1.33333" stroke-miterlimit="8" fill="none" fill-rule="evenodd" transform="matrix(-1 -8.74228e-08 -8.74228e-08 1 701.5 483.5)"/><path d="M24 15C16.4431 13.1164 8.88631 11.2329 5.16766 10.0685 1.44901 8.90411 2.54064 8.83562 1.68778 8.0137 0.834915 7.19178 0.25488 6.09589 0.0501809 5.13699-0.154518 4.17808 0.323113 3.11638 0.459579 2.26027 0.596046 1.40416 0.732512 0.702082 0.868978 0" stroke="#7F7F7F" stroke-width="1.33333" stroke-miterlimit="8" fill="none" fill-rule="evenodd" transform="matrix(-1 -8.74228e-08 -8.74228e-08 1 696.5 483.5)"/><path d="M12 0C10.8852 4.68866 9.67218 9.6136 8.45902 11.941 7.24595 14.2686 6.1312 13.7625 4.72131 13.9649 3.31153 14.1673 1.52462 13.442 0 13.1554" stroke="#7F7F7F" stroke-width="1.33333" stroke-miterlimit="8" fill="none" fill-rule="evenodd" transform="matrix(-1 -8.74228e-08 -8.74228e-08 1 672.5 485.5)"/><path d="M0.441181 0.583333C1.02798-0.196358 1.97773-0.19416 2.5625 0.588244 2.80278 0.909735 2.95391 1.33064 2.99104 1.7818" stroke="#7F7F7F" stroke-width="1.33333" stroke-miterlimit="8" fill="none" fill-rule="evenodd" transform="matrix(-1 -8.74228e-08 -8.74228e-08 1 661.5 484.5)"/><path d="M1.40986 0C0.546483 2.46902-0.316896 4.93814 0.114793 6.08268 0.546483 7.22722 2.27324 7.04738 4 6.86754" stroke="#7F7F7F" stroke-width="1.33333" stroke-miterlimit="8" fill="none" fill-rule="evenodd" transform="matrix(-1 -8.74228e-08 -8.74228e-08 1 659.5 486.5)"/><path d="M7 5C5.2 3.82716 2.56672 2.50005 1.4 1.66667 0.233386 0.833382 0.2 0.432099 0 0" stroke="#7F7F7F" stroke-width="1.33333" stroke-miterlimit="8" fill="none" fill-rule="evenodd" transform="matrix(-1 -8.74228e-08 -8.74228e-08 1 655.5 493.5)"/><path d="M0 3C1.84323 2.03324 3.84831 0.786361 6.01493 0.309955 8.18164-0.166451 10.5746 0.0157096 13 0.141827" stroke="#7F7F7F" stroke-width="1.33333" stroke-miterlimit="8" fill="none" fill-rule="evenodd" transform="matrix(-1 -8.74228e-08 -8.74228e-08 1 649.5 495.5)"/><path d="M54 2 0 0" stroke="#7F7F7F" stroke-width="1.33333" stroke-miterlimit="8" fill="none" fill-rule="evenodd" transform="matrix(-1 -8.74228e-08 -8.74228e-08 1 636.5 495.5)"/><path d="M0 0C1 2.29897 2.13333 4.59804 2.8 5.76471 3.46667 6.93137 3.4 6.96563 4 7" stroke="#7F7F7F" stroke-width="1.33333" stroke-miterlimit="8" fill="none" fill-rule="evenodd" transform="matrix(-1 -8.74228e-08 -8.74228e-08 1 583.5 496.5)"/><path d="M3 0C2.10292 2.69773 1.20584 5.39546 0.705882 6.43776 0.205836 7.48007 0.102918 6.86695 0 6.25383" stroke="#7F7F7F" stroke-width="1.33333" stroke-miterlimit="8" fill="none" fill-rule="evenodd" transform="matrix(-1 -8.74228e-08 -8.74228e-08 1 579.5 496.5)"/><path d="M0 0 2.06667 0.000104987" stroke="#7F7F7F" stroke-width="1.33333" stroke-miterlimit="8" fill="none" fill-rule="evenodd" transform="matrix(-1 -8.74228e-08 -8.74228e-08 1 576.567 496.5)"/><path d="M55 25C54.0933 23.219 53.1868 20.5981 51.3736 18.9516 49.5604 17.3052 52.6831 18.2796 44.1209 15.121 35.5587 11.9624 17.7793 5.98118 0 0" stroke="#7F7F7F" stroke-width="1.33333" stroke-miterlimit="8" fill="none" fill-rule="evenodd" transform="matrix(-1 -8.74228e-08 -8.74228e-08 1 708.5 376.5)"/><path d="M0.742371 23C0.0368371 22.4266-0.198308 22.5086 0.177964 18.6752 0.554235 14.8419 1.73006 7.35534 3 0" stroke="#7F7F7F" stroke-width="1.33333" stroke-miterlimit="8" fill="none" fill-rule="evenodd" transform="matrix(-1 -8.74228e-08 -8.74228e-08 1 708.5 353.5)"/><path d="M0 37C1.68733 34.1694 3.37466 31.3388 5.66942 28.5082 7.96419 25.6776 8.60542 23.6894 13.7686 20.0164 18.9318 16.3434 30.7769 9.80596 36.6488 6.46995 42.5207 3.13393 45.7603 1.56697 49 0" stroke="#7F7F7F" stroke-width="1.33333" stroke-miterlimit="8" fill="none" fill-rule="evenodd" transform="matrix(-1 -8.74228e-08 -8.74228e-08 1 719.5 333.5)"/><path d="M0 0.333333 10.1581 1 97 0" stroke="#7F7F7F" stroke-width="1.33333" stroke-miterlimit="8" fill="none" fill-rule="evenodd" transform="matrix(-1 -8.74228e-08 -8.74228e-08 1 671.5 333.5)"/><path d="M2.20818 0C1.10404 4.56126 0 9.12263 0 12.9948 0 16.867 0.769569 20.7392 2.20818 23.2332 3.64679 25.7271 4.21561 26.1865 8.63197 27.9585 13.0483 29.7306 21.145 32.1918 28.7063 33.8653 36.2677 35.5389 45.1338 36.7695 54 38" stroke="#7F7F7F" stroke-width="1.33333" stroke-miterlimit="8" fill="none" fill-rule="evenodd" transform="matrix(-1 -8.74228e-08 -8.74228e-08 1 721.5 370.5)"/><path d="M0 8C2.81939 7.02561 5.63889 6.05123 7.97222 4.71795 10.3056 3.38467 14 0 14 0" stroke="#7F7F7F" stroke-width="1.33333" stroke-miterlimit="8" fill="none" fill-rule="evenodd" transform="matrix(-1 -8.74228e-08 -8.74228e-08 1 667.5 401.5)"/><path d="M88 3 36.2703 2.11765C21.6036 1.61769 10.8017 0.8088 0 0" stroke="#7F7F7F" stroke-width="1.33333" stroke-miterlimit="8" fill="none" fill-rule="evenodd" transform="matrix(-1 -8.74228e-08 -8.74228e-08 1 662.5 421.5)"/><path d="M4 12C3 9.75407 2 7.50814 1.33333 5.5082 0.666667 3.50815 0.333333 1.75407 0 0" stroke="#7F7F7F" stroke-width="1.33333" stroke-miterlimit="8" fill="none" fill-rule="evenodd" transform="matrix(-1 -8.74228e-08 -8.74228e-08 1 667.5 409.5)"/><path d="M523.5 424.5 623.5 425.5" stroke="#7F7F7F" stroke-width="1.33333" stroke-miterlimit="8" fill="none" fill-rule="evenodd"/><path d="M524.5 446.5 622.5 445.5" stroke="#7F7F7F" stroke-width="1.33333" stroke-miterlimit="8" fill="none" fill-rule="evenodd"/><path d="M622.5 445.5 623.5 425.5" stroke="#7F7F7F" stroke-width="1.33333" stroke-miterlimit="8" fill="none" fill-rule="evenodd"/><path d="M524.5 445.5 523.5 425.5" stroke="#7F7F7F" stroke-width="1.33333" stroke-miterlimit="8" fill="none" fill-rule="evenodd"/><text font-family="Times New Roman,Times New Roman_MSFontService,sans-serif" font-weight="700" font-size="16" transform="translate(543.393 361)">x<tspan font-weight="400" font-size="11" x="8" y="3">Trunk_Lid</tspan><tspan x="36.5514" y="-63">z</tspan><tspan font-weight="400" font-size="11" x="43.7181" y="-60">Trunk_Lid</tspan><tspan x="60.6774" y="-8">y</tspan><tspan font-weight="400" font-size="11" x="68.6774" y="-5">Trunk_Lid</tspan></text><rect x="502" y="328" width="16" height="9" fill="#FFFFFF"/><text font-family="Times New Roman,Times New Roman_MSFontService,sans-serif" font-weight="700" font-size="16" transform="translate(504.41 340)">O<tspan font-weight="400" font-size="11" x="12.5" y="3">Trunk_Lid</tspan></text></g></svg>