<svg width="520" height="245" xmlns="http://www.w3.org/2000/svg" xmlns:xlink="http://www.w3.org/1999/xlink" overflow="hidden"><defs><clipPath id="clip0"><rect x="231" y="143" width="520" height="245"/></clipPath></defs><g clip-path="url(#clip0)" transform="translate(-231 -143)"><path d="M393.597 376.061C390.651 376.877 387.704 377.693 383.41 377.46 379.115 377.227 377.018 377.093 367.829 374.662 358.64 372.23 338.399 366.334 328.278 362.87 318.157 359.405 312.064 356.474 307.104 353.876 302.143 351.277 300.412 348.879 298.514 347.28 296.617 345.681 296.783 344.749 295.718 344.282 294.652 343.816 293.321 344.649 292.122 344.482 290.924 344.316 289.026 344.049 288.527 343.283 288.027 342.517 288.726 341.318 289.126 339.885 289.525 338.453 291.024 337.054 290.924 334.689 290.824 332.324 289.559 329.992 288.527 325.695 287.495 321.398 285.264 312.637 284.731 308.906 284.199 305.175 284.665 305.708 285.331 303.31 285.996 300.912 288.061 296.248 288.726 294.516 289.392 292.784 289.359 294.549 289.326 292.917 289.292 291.285 288.493 286.921 288.527 284.723 288.56 282.524 287.994 282.424 289.525 279.726 291.057 277.028 295.085 272.331 297.715 268.534 300.345 264.736 301.444 261.405 305.306 256.942 309.168 252.478 315.727 245.716 320.887 241.752 326.047 237.788 329.443 236.256 336.268 233.158 343.093 230.06 351.483 226.695 361.836 223.165 372.19 219.634 386.173 215.37 398.391 211.972 410.61 208.574 425.059 205.177 435.146 202.778 445.234 200.38 453.157 198.748 458.917 197.582 464.676 196.416 467.44 196.116 469.703 195.783 471.967 195.45 472.067 195.45 472.5 195.583" stroke="#7F7F7F" stroke-width="1.33333" stroke-miterlimit="8" fill="none" fill-rule="evenodd"/><path d="M518.5 368.5C514.126 370.116 508.416 372.378 505.678 373.736 502.939 375.093 503.307 375.901 502.071 376.645 500.836 377.388 502.272 377.259 498.265 378.196 494.258 379.133 485.475 381.008 478.029 382.268 470.583 383.529 460.799 385.08 453.586 385.759 446.374 386.438 442.934 386.696 434.753 386.341 426.572 385.985 411.078 384.919 404.5 383.626" stroke="#7F7F7F" stroke-width="1.33333" stroke-miterlimit="8" fill="none" fill-rule="evenodd"/><path d="M404.5 384.5C398.401 380.448 392.303 376.397 393.703 376.502" stroke="#7F7F7F" stroke-width="1.33333" stroke-miterlimit="8" fill="none" fill-rule="evenodd"/><path d="M590.5 329.5C589.817 332.864 589.133 336.228 587.9 339.641 586.667 343.055 585 346.667 583.1 349.981 581.2 353.295 579.233 356.311 576.5 359.526 573.767 362.74 570.167 366.751 566.7 369.269 563.233 371.788 559.2 373.611 555.7 374.638 552.2 375.665 549.467 375.533 545.7 375.434 541.933 375.334 537.167 375.036 533.1 374.042 529.033 373.047 523.9 370.495 521.3 369.468 518.7 368.441 518.1 368.159 517.5 367.877" stroke="#7F7F7F" stroke-width="1.33333" stroke-miterlimit="8" fill="none" fill-rule="evenodd"/><path d="M595.5 331.5 712.5 270.5" stroke="#7F7F7F" stroke-width="1.33333" stroke-miterlimit="8" fill="none" fill-rule="evenodd"/><path d="M0 0 2.26005 1.14005" stroke="#7F7F7F" stroke-width="1.33333" stroke-miterlimit="8" fill="none" fill-rule="evenodd" transform="matrix(1 0 0 -1 590.5 329.64)"/><path d="M0 0 3.53008 0.000104987" stroke="#7F7F7F" stroke-width="1.33333" stroke-miterlimit="8" fill="none" fill-rule="evenodd" transform="matrix(-1 -8.74228e-08 -8.74228e-08 1 595.03 331.5)"/><path d="M0 0 1.13008 3.14005" stroke="#7F7F7F" stroke-width="1.33333" stroke-miterlimit="8" fill="none" fill-rule="evenodd" transform="matrix(1 0 0 -1 591.5 331.64)"/><path d="M740.5 250.5C739.582 254.241 738.829 257.625 737.551 261.187 736.273 264.75 734.405 269.252 732.832 271.875 731.258 274.498 729.784 275.826 728.112 276.927 726.441 278.028 725.261 278.352 722.803 278.482 720.346 278.611 715.921 278.028 713.365 277.704 710.809 277.38 708.777 276.959 707.466 276.538 706.156 276.117 705.828 275.648 705.5 275.178" stroke="#7F7F7F" stroke-width="1.33333" stroke-miterlimit="8" fill="none" fill-rule="evenodd"/><path d="M740.006 250.5C741.752 248.553 743.498 246.605 744.995 243.31 746.491 240.015 748.254 235.388 748.986 230.728 749.717 226.067 749.484 219.61 749.385 215.349 749.285 211.088 749.218 209.257 748.387 205.163 747.555 201.069 746.125 194.378 744.396 190.783 742.667 187.188 740.638 185.624 738.01 183.593 735.383 181.563 732.323 180.498 728.632 178.6 724.94 176.703 720.384 173.707 715.861 172.209 711.338 170.711 704.387 169.946 701.493 169.613 698.6 169.28 698.55 169.746 698.5 170.212" stroke="#7F7F7F" stroke-width="1.33333" stroke-miterlimit="8" fill="none" fill-rule="evenodd"/><path d="M478.869 190.5C477.108 188.157 475.346 185.814 475.511 183.618 475.675 181.423 478.375 178.769 479.857 177.327 481.338 175.885 482.754 175.426 484.401 174.967 486.047 174.509 488.384 174.41 489.734 174.574 491.084 174.738 492.105 175.688 492.5 175.95" stroke="#7F7F7F" stroke-width="1.33333" stroke-miterlimit="8" fill="none" fill-rule="evenodd"/><path d="M559.61 373.5C555.948 373.35 552.286 373.2 548.774 372.1 545.263 371.001 541.518 369.601 538.541 366.902 535.565 364.202 532.756 360.903 530.917 355.904 529.077 350.905 527.606 343.84 527.506 336.909 527.405 329.977 528.676 321.279 530.315 314.314 531.953 307.349 534.495 300.517 537.337 295.118 540.18 289.72 544.16 285.354 547.37 281.922 550.58 278.489 553.088 276.256 556.6 274.523 560.111 272.79 564.626 271.291 568.438 271.524 572.251 271.757 576.297 273.457 579.474 275.923 582.651 278.389 587.316 285.437 587.5 286.321" stroke="#7F7F7F" stroke-width="1.33333" stroke-miterlimit="8" fill="none" fill-rule="evenodd"/><path d="M590.38 332.5C591.324 325.304 592.396 317.974 592.492 311.921 592.588 305.868 591.788 300.421 590.956 296.184 590.124 291.947 588.716 289.409 587.5 286.5" stroke="#7F7F7F" stroke-width="1.33333" stroke-miterlimit="8" fill="none" fill-rule="evenodd"/><path d="M516.761 368.5C516.025 363.335 515.289 358.169 515.556 351.249 515.824 344.328 516.159 336.004 518.368 326.977 520.577 317.95 524.493 305.647 528.811 297.088 533.128 288.53 539.119 281.074 544.274 275.625 549.428 270.175 555.018 266.732 559.737 264.392 564.456 262.051 568.372 261.216 572.59 261.583 576.807 261.951 581.359 263.556 585.041 266.598 588.722 269.64 592.438 274.288 594.68 279.837 596.923 285.387 598.596 292.007 598.496 299.897 598.396 307.787 594.915 322.23 594.078 327.178 593.241 332.126 593.475 329.585 593.475 329.585" stroke="#7F7F7F" stroke-width="1.33333" stroke-miterlimit="8" fill="none" fill-rule="evenodd"/><path d="M726.5 277.5C724.684 277.483 722.294 277.668 720.382 275.683 718.471 273.697 716.177 268.784 715.029 265.587 713.882 262.39 713.882 258.856 713.5 256.5" stroke="#7F7F7F" stroke-width="1.33333" stroke-miterlimit="8" fill="none" fill-rule="evenodd"/><path d="M711.5 270.5C712.511 261.742 713.521 252.984 714.532 246.17 715.542 239.356 715.846 234.802 717.563 229.617 719.281 224.432 722.717 218.416 724.839 215.059 726.962 211.702 728.579 210.539 730.296 209.475 732.014 208.411 733.598 208.345 735.147 208.677 736.697 209.01 738.314 209.708 739.594 211.469 740.874 213.231 742.187 216.355 742.827 219.247 743.467 222.139 743.602 225.463 743.434 228.82 743.265 232.177 742.305 237.179 741.817 239.389" stroke="#7F7F7F" stroke-width="1.33333" stroke-miterlimit="8" fill="none" fill-rule="evenodd"/><path d="M740.27 249.5C741.075 243.152 741.719 236.574 741.429 231.74 741.14 226.905 739.755 222.991 738.531 220.491 737.307 217.992 735.696 217.268 734.086 216.742 732.475 216.215 730.511 216.61 728.868 217.334 727.226 218.057 725.518 219.603 724.23 221.083 722.942 222.563 722.426 223.813 721.138 226.214 719.85 228.615 717.595 233.335 716.5 235.489" stroke="#7F7F7F" stroke-width="1.33333" stroke-miterlimit="8" fill="none" fill-rule="evenodd"/><path d="M629.5 299.5 677.5 275.5" stroke="#7F7F7F" stroke-width="1.33333" stroke-miterlimit="8" fill="none" fill-rule="evenodd"/><path d="M676.5 275.5 704.5 250.5" stroke="#7F7F7F" stroke-width="1.33333" stroke-miterlimit="8" fill="none" fill-rule="evenodd"/><path d="M705.197 250.5C706.807 241.654 708.418 232.807 709.022 226.14 709.626 219.472 709.76 215.379 708.82 210.494 707.881 205.608 706.438 200.327 703.385 196.828 700.331 193.329 694.577 191.497 690.5 189.5" stroke="#7F7F7F" stroke-width="1.33333" stroke-miterlimit="8" fill="none" fill-rule="evenodd"/><path d="M690.5 189.5C688.659 183.901 686.818 178.302 684.073 173.656 681.328 169.01 678.114 164.129 674.03 161.622 669.946 159.115 664.657 158.146 659.568 158.614 654.48 159.082 648.99 161.756 643.5 164.43" stroke="#7F7F7F" stroke-width="1.33333" stroke-miterlimit="8" fill="none" fill-rule="evenodd"/><path d="M625.5 209.5 643.5 164.5" stroke="#7F7F7F" stroke-width="1.33333" stroke-miterlimit="8" fill="none" fill-rule="evenodd"/><path d="M626.5 208.5 652.5 206.208C659.767 205.479 666.433 205.41 670.1 204.125 673.767 202.84 674.133 200.67 674.5 198.5" stroke="#7F7F7F" stroke-width="1.33333" stroke-miterlimit="8" fill="none" fill-rule="evenodd"/><path d="M638.5 200.5C640.017 196.336 641.534 192.171 642.95 189.679 644.365 187.187 643.219 185.875 646.994 185.547 650.77 185.22 661.421 186.662 665.601 187.712 669.781 188.761 670.59 190.007 672.073 191.843 673.556 193.68 674.028 196.204 674.5 198.729" stroke="#7F7F7F" stroke-width="1.33333" stroke-miterlimit="8" fill="none" fill-rule="evenodd"/><path d="M674.5 195.5 690.5 189.5" stroke="#7F7F7F" stroke-width="1.33333" stroke-miterlimit="8" fill="none" fill-rule="evenodd"/><path d="M478.5 195.5C497.7 178.717 516.9 161.933 528.5 154.5" stroke="#7F7F7F" stroke-width="1.33333" stroke-miterlimit="8" fill="none" fill-rule="evenodd"/><path d="M528.5 154.291C536.517 153.021 543.533 151.911 552.7 151.59 561.867 151.268 574.4 151.879 583.5 152.361 592.6 152.844 598.967 153.294 607.3 154.484 615.633 155.673 624.567 157.587 633.5 159.5" stroke="#7F7F7F" stroke-width="1.33333" stroke-miterlimit="8" fill="none" fill-rule="evenodd"/><path d="M609.5 209.5 633.5 159.5" stroke="#7F7F7F" stroke-width="1.33333" stroke-miterlimit="8" fill="none" fill-rule="evenodd"/><path d="M472.5 196.5 527.5 153.5" stroke="#7F7F7F" stroke-width="1.33333" stroke-miterlimit="8" fill="none" fill-rule="evenodd"/><path d="M699.5 169.5C694.605 165.223 690.713 160.589 684.465 157.207 678.217 153.825 673.072 151.288 662.013 149.207 650.954 147.125 634.048 145.239 618.111 144.719 602.174 144.198 581.492 144.589 566.391 146.085 551.289 147.581 539.394 150.638 527.5 153.695" stroke="#7F7F7F" stroke-width="1.33333" stroke-miterlimit="8" fill="none" fill-rule="evenodd"/><path d="M0 0 0.2 4.6" stroke="#7F7F7F" stroke-width="1.33333" stroke-miterlimit="8" fill="none" fill-rule="evenodd" transform="matrix(-1 -8.74228e-08 -8.74228e-08 1 492.7 175.5)"/><path d="M652.5 200.5C655.95 200.288 659.4 200.077 662.9 199.577 666.4 199.077 669.95 198.289 673.5 197.5" stroke="#7F7F7F" stroke-width="1.33333" stroke-miterlimit="8" fill="none" fill-rule="evenodd"/><path d="M653.5 202.5C656.95 202.288 660.4 202.077 663.9 201.577 667.4 201.077 670.95 200.289 674.5 199.5" stroke="#7F7F7F" stroke-width="1.33333" stroke-miterlimit="8" fill="none" fill-rule="evenodd"/><path d="M478.752 186.297 475.879 183.178" stroke="#7F7F7F" stroke-width="1.33333" stroke-miterlimit="8" fill="none" fill-rule="evenodd"/><path d="M475.5 183.5 478.5 186.554" stroke="#7F7F7F" stroke-width="1.33333" stroke-miterlimit="8" fill="none" fill-rule="evenodd"/><path d="M413.5 296.5C419.956 292.642 426.411 288.784 434.064 285.079 441.718 281.374 450.303 277.669 459.42 274.27 468.538 270.871 481.016 266.894 488.769 264.685 496.522 262.475 501.38 261.659 505.939 261.014 510.498 260.368 512.362 260.368 516.122 260.81 519.882 261.251 524.108 262.169 528.5 263.665" stroke="#7F7F7F" stroke-width="1.33333" stroke-miterlimit="8" fill="none" fill-rule="evenodd"/><path d="M528.5 263.5C522.818 269.124 517.136 274.748 511.806 279.568 506.476 284.389 502.453 288.406 496.52 292.423 490.587 296.44 483.614 300.926 476.205 303.671 468.797 306.416 459.444 307.755 452.069 308.893 444.695 310.031 436.582 310.5 431.956 310.5 427.33 310.5 426.894 309.998 424.313 308.893 421.732 307.789 418.413 305.546 416.469 303.872 414.525 302.198 413.117 300.19 412.647 298.85 412.178 297.511 412.916 296.674 413.653 295.838" stroke="#7F7F7F" stroke-width="1.33333" stroke-miterlimit="8" fill="none" fill-rule="evenodd"/><path d="M628.887 299.5C629.474 276.571 630.061 253.642 628.496 238.975 626.932 224.308 623.216 217.904 619.5 211.5" stroke="#7F7F7F" stroke-width="1.33333" stroke-miterlimit="8" fill="none" fill-rule="evenodd"/><path d="M619.5 211.5C621.761 210.893 624.023 210.286 625.009 209.786 625.995 209.286 625.145 208.786 625.417 208.5" stroke="#7F7F7F" stroke-width="1.33333" stroke-miterlimit="8" fill="none" fill-rule="evenodd"/><path d="M628.5 201.5 639.5 200.5" stroke="#7F7F7F" stroke-width="1.33333" stroke-miterlimit="8" fill="none" fill-rule="evenodd"/><path d="M478.5 196.5 540.909 201.938 585.174 205.875C596.606 206.969 603.053 207.734 609.5 208.5" stroke="#7F7F7F" stroke-width="1.33333" stroke-miterlimit="8" fill="none" fill-rule="evenodd"/><path d="M652.5 200.5 652.9 202.755" stroke="#7F7F7F" stroke-width="1.33333" stroke-miterlimit="8" fill="none" fill-rule="evenodd"/><path d="M477.39 186.832 475.666 184.96" stroke="#7F7F7F" stroke-width="1.33333" stroke-miterlimit="8" fill="none" fill-rule="evenodd"/><path d="M419.5 298.5C427.315 294.643 435.13 290.785 444.786 286.827 454.443 282.869 466.821 278.139 477.44 274.752 488.059 271.364 498.279 268.932 508.5 266.5" stroke="#7F7F7F" stroke-width="1.33333" stroke-miterlimit="8" fill="none" fill-rule="evenodd"/><path d="M418.5 296.5C426.315 292.643 434.13 288.785 443.786 284.827 453.443 280.869 465.821 276.139 476.44 272.752 487.059 269.364 497.279 266.932 507.5 264.5" stroke="#7F7F7F" stroke-width="1.33333" stroke-miterlimit="8" fill="none" fill-rule="evenodd"/><path d="M508.688 266.491 507.5 264.5" stroke="#7F7F7F" stroke-width="1.33333" stroke-miterlimit="8" fill="none" fill-rule="evenodd"/><path d="M419.688 298.491 418.5 296.5" stroke="#7F7F7F" stroke-width="1.33333" stroke-miterlimit="8" fill="none" fill-rule="evenodd"/><path d="M455.5 301.5C454.728 295.922 453.956 290.343 455.025 288.5" stroke="#7F7F7F" stroke-width="1.33333" stroke-miterlimit="8" fill="none" fill-rule="evenodd"/><path d="M455.5 302.5 462.5 301.5" stroke="#7F7F7F" stroke-width="1.33333" stroke-miterlimit="8" fill="none" fill-rule="evenodd"/><path d="M462.5 300.5 466.5 294.5" stroke="#7F7F7F" stroke-width="1.33333" stroke-miterlimit="8" fill="none" fill-rule="evenodd"/><path d="M466.5 295.5C465.583 292.984 464.667 290.467 462.833 289.337 461 288.207 458.25 288.464 455.5 288.721" stroke="#7F7F7F" stroke-width="1.33333" stroke-miterlimit="8" fill="none" fill-rule="evenodd"/><path d="M362.5 353.5 357.5 335.5" stroke="#7F7F7F" stroke-width="1.33333" stroke-miterlimit="8" fill="none" fill-rule="evenodd"/><path d="M306.5 335.5 301.5 319.5" stroke="#7F7F7F" stroke-width="1.33333" stroke-miterlimit="8" fill="none" fill-rule="evenodd"/><path d="M302.5 319.5C312.217 322.667 321.933 325.833 331.1 328.5 340.267 331.167 348.883 333.333 357.5 335.5" stroke="#7F7F7F" stroke-width="1.33333" stroke-miterlimit="8" fill="none" fill-rule="evenodd"/><path d="M306.5 335.5C315.932 338.883 325.364 342.267 334.697 345.1 344.031 347.933 353.265 350.217 362.5 352.5" stroke="#7F7F7F" stroke-width="1.33333" stroke-miterlimit="8" fill="none" fill-rule="evenodd"/><path d="M327.644 335.849 358.534 342.663 358.246 343.965 327.356 337.151ZM357.95 339.121 364.9 344.75 356.226 346.933Z"/><path d="M326.534 336.859 325.089 299.187 326.422 299.136 327.866 336.808ZM321.81 300.647 325.5 292.5 329.804 300.341Z"/><path d="M0.270351-0.609389 28.7765 12.0371 28.2358 13.2559-0.270351 0.609389ZM28.9094 8.44948 34.6 15.35 25.6652 15.7621Z" transform="matrix(-1 -8.74228e-08 -8.74228e-08 1 327.1 336.5)"/><text font-family="Times New Roman,Times New Roman_MSFontService,sans-serif" font-weight="700" font-size="16" transform="translate(296.883 284)">z<tspan font-weight="400" font-size="11" x="7.16669" y="3">Number_Plate</tspan><tspan x="71.0694" y="63">y</tspan><tspan font-weight="400" font-size="11" x="79.0694" y="66">Number_Plate</tspan><tspan x="-55.9762" y="75">x</tspan><tspan font-weight="400" font-size="11" x="-47.9762" y="78">Number_Plate</tspan></text><rect x="317" y="348" width="17" height="14" fill="#FFFFFF"/><rect x="328" y="356" width="24" height="9" fill="#FFFFFF"/><text font-family="Times New Roman,Times New Roman_MSFontService,sans-serif" font-weight="700" font-size="16" transform="translate(318.22 359)">O<tspan font-weight="400" font-size="11" x="12.5" y="3">Number_Plate</tspan></text></g></svg>