<svg width="292" height="333" xmlns="http://www.w3.org/2000/svg" xmlns:xlink="http://www.w3.org/1999/xlink" overflow="hidden"><defs><clipPath id="clip0"><rect x="365" y="216" width="292" height="333"/></clipPath></defs><g clip-path="url(#clip0)" transform="translate(-365 -216)"><path d="M615.243 393.5C617.993 393.299 620.542 392.496 622.085 390.89 623.627 389.284 624.466 387.009 624.499 383.863 624.533 380.718 623.694 376.167 622.286 372.018 620.877 367.869 618.094 363.017 616.048 358.969 614.003 354.92 611.99 352.979 610.012 347.726 608.033 342.472 606.021 334.174 604.177 327.448 602.332 320.723 600.32 312.692 598.945 307.372 597.57 302.052 597.168 298.672 595.927 295.527 594.686 292.382 593.093 290.441 591.5 288.5" stroke="#7F7F7F" stroke-width="1.33333" stroke-miterlimit="8" fill="none" fill-rule="evenodd"/><path d="M418.92 357.474C415.034 357.524 411.148 357.574 408.625 356.873 406.102 356.172 404.823 354.802 403.78 353.265 402.737 351.729 402.737 349.691 402.367 347.654 401.997 345.616 401.291 343.178 401.56 341.04 401.829 338.902 402.334 337.165 403.982 334.827 405.63 332.488 408.827 330.184 411.451 327.01 414.075 323.837 417.069 320.163 419.727 315.787 422.385 311.411 425.177 305.432 427.398 300.755 429.618 296.079 431.671 291.202 433.05 287.728 434.429 284.254 434.766 282.116 435.674 279.911 436.582 277.707 437.541 276.103 438.5 274.5" stroke="#7F7F7F" stroke-width="1.33333" stroke-miterlimit="8" fill="none" fill-rule="evenodd"/><path d="M592.5 288.5C590.047 286.281 587.594 284.063 583.088 280.217 578.582 276.372 572.14 269.798 565.465 265.427 558.79 261.055 550.178 256.881 543.036 253.988 535.893 251.096 529.385 249.288 522.609 248.072 515.834 246.856 509.325 246.133 502.383 246.692 495.441 247.25 486.396 249.913 480.955 251.425 475.515 252.937 469.741 255.763 469.741 255.763 466.403 257.045 463.499 257.834 460.929 259.116 458.359 260.398 456.357 261.943 454.321 263.455 452.285 264.966 450.549 266.807 448.713 268.188 446.878 269.568 445.008 270.653 443.306 271.737 441.604 272.822 438.5 274.695 438.5 274.695" stroke="#7F7F7F" stroke-width="1.33333" stroke-miterlimit="8" fill="none" fill-rule="evenodd"/><path d="M456.5 498.5C453.738 496.795 450.976 495.09 446.716 491.151 442.456 487.211 435.4 480.259 430.941 474.863 426.481 469.467 423.486 464.468 419.958 458.774 416.431 453.08 412.504 446.591 409.775 440.699 407.046 434.806 404.949 427.39 403.585 423.418 402.22 419.445 401.854 418.651 401.588 416.863 401.322 415.075 401.721 413.586 401.987 412.692 402.253 411.798 402.719 411.649 403.185 411.5" stroke="#7F7F7F" stroke-width="1.33333" stroke-miterlimit="8" fill="none" fill-rule="evenodd"/><path d="M457.391 497.5C458.674 489.572 459.956 481.644 460.632 474.461 461.307 467.278 461.644 459.134 461.442 454.401 461.239 449.667 461.239 449.435 459.416 446.059 457.593 442.682 453.644 437.452 450.504 434.142 447.365 430.832 445.845 429.044 440.579 426.198 435.313 423.351 425.253 419.511 418.906 417.061 412.56 414.612 407.53 413.056 402.5 411.5" stroke="#7F7F7F" stroke-width="1.33333" stroke-miterlimit="8" fill="none" fill-rule="evenodd"/><path d="M516.5 518.5C522.583 504.859 528.667 491.217 533.3 481.789 537.933 472.36 539.967 466.442 544.3 461.929 548.633 457.415 553.367 456.178 559.3 454.707 565.233 453.236 571.7 453.47 579.9 453.102 588.1 452.734 598.3 452.617 608.5 452.5" stroke="#7F7F7F" stroke-width="1.33333" stroke-miterlimit="8" fill="none" fill-rule="evenodd"/><path d="M516.5 518.5C521.435 517.93 526.369 517.36 533.247 515.683 540.125 514.006 550.493 511.624 557.77 508.438 565.047 505.252 571.36 500.992 576.909 496.565 582.458 492.138 587.11 486.134 591.065 481.875 595.019 477.615 598.175 474.161 600.634 471.008 603.093 467.855 604.688 465.876 605.818 462.958 606.948 460.04 607.778 455.965 607.413 453.5" stroke="#7F7F7F" stroke-width="1.33333" stroke-miterlimit="8" fill="none" fill-rule="evenodd"/><path d="M418.5 357.5 437.836 354.7C442.003 354.033 441.205 354.017 443.5 353.5" stroke="#7F7F7F" stroke-width="1.33333" stroke-miterlimit="8" fill="none" fill-rule="evenodd"/><path d="M500.5 547.285C508.228 547.518 515.956 547.752 523.985 546.885 532.014 546.019 539.307 545.385 548.674 542.086 558.041 538.786 570.52 532.753 580.188 527.087 589.856 521.421 598.019 516.388 606.684 508.088 615.348 499.789 625.451 488.057 632.176 477.291 638.9 466.525 643.249 454.559 647.029 443.493 650.81 432.428 653.285 421.362 654.858 410.896 656.43 400.43 656.597 388.931 656.463 380.699 656.33 372.466 655.008 367.516 654.055 361.5" stroke="#7F7F7F" stroke-width="1.33333" stroke-miterlimit="8" fill="none" fill-rule="evenodd"/><path d="M653.5 362.5C652.551 356.53 651.602 350.56 648.505 340.627 645.407 330.694 641.278 315.377 634.917 302.902 628.556 290.427 620.197 276.614 610.339 265.778 600.482 254.942 587.826 245.31 575.771 237.886 563.715 230.461 550.993 224.608 538.005 221.23 525.017 217.852 509.797 217.184 497.842 217.618 485.886 218.053 476.994 220.227 466.27 223.839 455.547 227.451 438.862 236.782 433.5 239.29" stroke="#7F7F7F" stroke-width="1.33333" stroke-miterlimit="8" fill="none" fill-rule="evenodd"/><path d="M373.231 427.5C370.929 418.717 368.626 409.933 367.625 398.5 366.624 387.067 365.89 371.7 367.225 358.9 368.559 346.1 371.663 333.4 375.634 321.7 379.605 310 385.412 298.6 391.052 288.7 396.691 278.8 402.398 270.5 409.473 262.3 416.547 254.1 425.024 246.8 433.5 239.5" stroke="#7F7F7F" stroke-width="1.33333" stroke-miterlimit="8" fill="none" fill-rule="evenodd"/><path d="M500.5 547.5C493.815 546.602 487.13 545.703 478.604 542.908 470.077 540.112 458.698 536.285 449.342 530.728 439.986 525.17 430.796 517.716 422.469 509.563 414.141 501.41 405.814 490.894 399.378 481.809 392.942 472.724 388.164 464.271 383.851 455.053 379.538 445.835 376.519 436.167 373.5 426.5" stroke="#7F7F7F" stroke-width="1.33333" stroke-miterlimit="8" fill="none" fill-rule="evenodd"/><path d="M527.5 327.614C523.183 326.593 518.533 325.112 513.1 324.454 507.667 323.795 501.267 323.203 494.9 323.664 488.533 324.124 480.567 325.474 474.9 327.219 469.233 328.963 465 331.334 460.9 334.132 456.8 336.93 453.033 340.946 450.3 344.007 447.567 347.068 445.867 349.291 444.5 352.5" stroke="#7F7F7F" stroke-width="1.33333" stroke-miterlimit="8" fill="none" fill-rule="evenodd"/><path d="M615.5 393.5C610.846 393.05 606.359 392.1 601.437 390.3 596.515 388.5 589.985 385.067 585.967 382.7 581.949 380.333 580.007 379.233 577.328 376.1 574.65 372.967 572.406 368.167 569.895 363.9 567.384 359.633 565.375 354.633 562.261 350.5 559.147 346.367 557.171 342.933 551.211 339.1 545.251 335.267 535.842 330.533 526.5 327.5" stroke="#7F7F7F" stroke-width="1.33333" stroke-miterlimit="8" fill="none" fill-rule="evenodd"/><path d="M500.504 389.833 533.58 390.047 533.571 391.38 500.496 391.167ZM532.268 386.705 540.242 390.757 532.217 394.705Z"/><path d="M0.660102-0.0933233 12.3269 82.4291 11.0067 82.6157-0.660102 0.0933233ZM15.4407 80.6422 12.6 89.1234 7.51951 81.7621Z" transform="matrix(1 0 0 -1 500.5 390.623)"/><text font-family="Times New Roman,Times New Roman_MSFontService,sans-serif" font-weight="700" font-size="16" transform="translate(510.571 293)">z<tspan font-weight="400" font-size="11" x="7.16666" y="3">Steering_Wheel</tspan><tspan x="-51.1927" y="113">O</tspan><tspan font-weight="400" font-size="11" x="-38.6927" y="116">Steering_Wheel</tspan><tspan x="-131.945" y="71">y</tspan><tspan font-weight="400" font-size="11" x="-123.945" y="74">Steering_Wheel</tspan></text><rect x="517" y="373" width="70" height="13" fill="#FFFFFF"/><text font-family="Times New Roman,Times New Roman_MSFontService,sans-serif" font-weight="700" font-size="16" transform="translate(509.724 377)">x<tspan font-weight="400" font-size="11" x="8.00003" y="3">Steering_Wheel</tspan></text><path d="M428.177 376.05 501.381 389.511 501.14 390.822 427.936 377.361ZM428.645 380.881 421.5 375.5 430.092 373.013Z"/></g></svg>